RecursiveSans-CasualLight.ufo
<glyph name="exclam" format="1">
  <advance width="350"/>
  <unicode hex="0021"/>
  <outline>
    <contour>
      <point x="201" y="243" type="line"/>
      <point x="208" y="320"/>
      <point x="213" y="397"/>
      <point x="213" y="473" type="curve"/>
      <point x="213" y="668" type="line" smooth="yes"/>
      <point x="213" y="700"/>
      <point x="199" y="710"/>
      <point x="154" y="710" type="curve" smooth="yes"/>
      <point x="144" y="710"/>
      <point x="137" y="709"/>
      <point x="130" y="707" type="curve"/>
      <point x="136" y="672"/>
      <point x="137" y="637"/>
      <point x="137" y="599" type="curve" smooth="yes"/>
      <point x="137" y="473" type="line"/>
      <point x="137" y="354"/>
      <point x="141" y="269"/>
      <point x="156" y="255" type="curve" smooth="yes"/>
      <point x="165" y="245"/>
      <point x="181" y="243"/>
      <point x="196" y="243" type="curve"/>
    </contour>
    <contour>
      <point x="239" y="8" type="curve"/>
      <point x="239" y="74" type="line" smooth="yes"/>
      <point x="239" y="109"/>
      <point x="214" y="129"/>
      <point x="163" y="129" type="curve" smooth="yes"/>
      <point x="141" y="129"/>
      <point x="124" y="125"/>
      <point x="111" y="116" type="curve"/>
      <point x="111" y="51" type="line" smooth="yes"/>
      <point x="111" y="15"/>
      <point x="136" y="-5"/>
      <point x="187" y="-5" type="curve" smooth="yes"/>
      <point x="209" y="-5"/>
      <point x="226" y="0"/>
    </contour>
  </outline>
</glyph>
<glyph name="quotedbl" format="1">
  <advance width="600"/>
  <unicode hex="0022"/>
  <outline>
    <contour>
      <point x="221" y="438" type="curve"/>
      <point x="232" y="689" type="line" smooth="yes"/>
      <point x="234" y="732"/>
      <point x="214" y="754"/>
      <point x="168" y="754" type="curve" smooth="yes"/>
      <point x="153" y="754"/>
      <point x="142" y="752"/>
      <point x="136" y="750" type="curve"/>
      <point x="144" y="727"/>
      <point x="145" y="719"/>
      <point x="147" y="662" type="curve" smooth="yes"/>
      <point x="157" y="473" type="line" smooth="yes"/>
      <point x="158" y="448"/>
      <point x="173" y="438"/>
      <point x="210" y="438" type="curve" smooth="yes"/>
      <point x="214" y="438"/>
      <point x="218" y="438"/>
    </contour>
    <contour>
      <point x="442" y="438" type="curve"/>
      <point x="453" y="678" type="line" smooth="yes"/>
      <point x="455" y="732"/>
      <point x="435" y="754"/>
      <point x="388" y="754" type="curve" smooth="yes"/>
      <point x="379" y="754"/>
      <point x="372" y="753"/>
      <point x="363" y="750" type="curve"/>
      <point x="378" y="473" type="line"/>
      <point x="380" y="448"/>
      <point x="394" y="438"/>
      <point x="431" y="438" type="curve" smooth="yes"/>
      <point x="435" y="438"/>
      <point x="439" y="438"/>
    </contour>
  </outline>
</glyph>
<glyph name="numbersign" format="1">
  <advance width="600"/>
  <unicode hex="0023"/>
  <outline>
    <contour>
      <point x="215" y="715" type="curve"/>
      <point x="215" y="513"/>
      <point x="185" y="239"/>
      <point x="77" y="-14" type="curve"/>
      <point x="85" y="-17"/>
      <point x="90" y="-20"/>
      <point x="99" y="-20" type="curve"/>
      <point x="118" y="-20"/>
      <point x="130" y="-16"/>
      <point x="139" y="5" type="curve" smooth="yes"/>
      <point x="237" y="251"/>
      <point x="266" y="530"/>
      <point x="266" y="699" type="curve" smooth="yes"/>
      <point x="266" y="718"/>
      <point x="251" y="720"/>
      <point x="240" y="720" type="curve" smooth="yes"/>
      <point x="231" y="720"/>
      <point x="223" y="718"/>
    </contour>
    <contour>
      <point x="412" y="715" type="curve"/>
      <point x="412" y="517"/>
      <point x="382" y="239"/>
      <point x="274" y="-14" type="curve"/>
      <point x="282" y="-17"/>
      <point x="287" y="-20"/>
      <point x="296" y="-20" type="curve"/>
      <point x="315" y="-20"/>
      <point x="327" y="-16"/>
      <point x="336" y="5" type="curve" smooth="yes"/>
      <point x="434" y="251"/>
      <point x="463" y="530"/>
      <point x="463" y="699" type="curve" smooth="yes"/>
      <point x="463" y="718"/>
      <point x="447" y="720"/>
      <point x="437" y="720" type="curve" smooth="yes"/>
      <point x="428" y="720"/>
      <point x="420" y="718"/>
    </contour>
    <contour>
      <point x="562" y="448" type="line"/>
      <point x="562" y="452"/>
      <point x="562" y="456"/>
      <point x="562" y="459" type="curve" smooth="yes"/>
      <point x="562" y="477"/>
      <point x="558" y="488"/>
      <point x="550" y="497" type="curve" smooth="yes"/>
      <point x="546" y="501"/>
      <point x="541" y="503"/>
      <point x="534" y="503" type="curve"/>
      <point x="78" y="503" type="line"/>
      <point x="78" y="499"/>
      <point x="78" y="494"/>
      <point x="78" y="490" type="curve" smooth="yes"/>
      <point x="78" y="466"/>
      <point x="83" y="448"/>
      <point x="104" y="448" type="curve"/>
    </contour>
    <contour>
      <point x="38" y="252" type="line"/>
      <point x="38" y="248"/>
      <point x="38" y="244"/>
      <point x="38" y="241" type="curve" smooth="yes"/>
      <point x="38" y="223"/>
      <point x="42" y="212"/>
      <point x="50" y="203" type="curve" smooth="yes"/>
      <point x="54" y="199"/>
      <point x="59" y="197"/>
      <point x="66" y="197" type="curve"/>
      <point x="522" y="197" type="line"/>
      <point x="522" y="201"/>
      <point x="522" y="206"/>
      <point x="522" y="210" type="curve" smooth="yes"/>
      <point x="522" y="234"/>
      <point x="517" y="252"/>
      <point x="496" y="252" type="curve"/>
    </contour>
  </outline>
</glyph>
<glyph name="ampersand" format="1">
  <advance width="600"/>
  <unicode hex="0026"/>
  <outline>
    <contour>
      <point x="316" y="710" type="curve" smooth="yes"/>
      <point x="202" y="710"/>
      <point x="121" y="644"/>
      <point x="121" y="541" type="curve" smooth="yes"/>
      <point x="121" y="518"/>
      <point x="134" y="482"/>
      <point x="170" y="482" type="curve"/>
      <point x="167" y="495"/>
      <point x="167" y="504"/>
      <point x="167" y="520" type="curve" smooth="yes"/>
      <point x="167" y="591"/>
      <point x="223" y="654"/>
      <point x="315" y="654" type="curve" smooth="yes"/>
      <point x="384" y="654"/>
      <point x="425" y="636"/>
      <point x="453" y="610" type="curve"/>
      <point x="457" y="610" type="line"/>
      <point x="459" y="618"/>
      <point x="461" y="625"/>
      <point x="461" y="633" type="curve"/>
      <point x="461" y="653"/>
      <point x="458" y="668"/>
      <point x="447" y="679" type="curve" smooth="yes"/>
      <point x="430" y="696"/>
      <point x="386" y="710"/>
    </contour>
    <contour>
      <point x="232" y="355" type="curve" smooth="yes"/>
      <point x="196" y="424"/>
      <point x="176" y="490"/>
      <point x="176" y="537" type="curve" smooth="yes"/>
      <point x="176" y="568"/>
      <point x="181" y="591"/>
      <point x="200" y="622" type="curve"/>
      <point x="160" y="636"/>
      <point x="121" y="588"/>
      <point x="121" y="541" type="curve" smooth="yes"/>
      <point x="121" y="538" type="line" smooth="yes"/>
      <point x="121" y="477"/>
      <point x="146" y="408"/>
      <point x="182" y="338" type="curve" smooth="yes"/>
      <point x="233" y="237"/>
      <point x="310" y="136"/>
      <point x="381" y="66" type="curve" smooth="yes"/>
      <point x="432" y="14"/>
      <point x="473" y="-10"/>
      <point x="516" y="-10" type="curve" smooth="yes"/>
      <point x="519" y="-10" type="line" smooth="yes"/>
      <point x="553" y="-10"/>
      <point x="567" y="8"/>
      <point x="567" y="35" type="curve" smooth="yes"/>
      <point x="567" y="46"/>
      <point x="566" y="57"/>
      <point x="564" y="65" type="curve"/>
      <point x="560" y="65" type="line"/>
      <point x="550" y="52"/>
      <point x="538" y="46"/>
      <point x="517" y="46" type="curve" smooth="yes"/>
      <point x="491" y="46"/>
      <point x="454" y="70"/>
      <point x="417" y="107" type="curve" smooth="yes"/>
      <point x="341" y="183"/>
      <point x="275" y="272"/>
    </contour>
    <contour>
      <point x="214" y="-10" type="curve" smooth="yes"/>
      <point x="301" y="-10"/>
      <point x="354" y="22"/>
      <point x="390" y="68" type="curve" smooth="yes"/>
      <point x="397" y="78"/>
      <point x="385" y="98"/>
      <point x="365" y="111" type="curve"/>
      <point x="326" y="63"/>
      <point x="286" y="43"/>
      <point x="217" y="43" type="curve" smooth="yes"/>
      <point x="138" y="43"/>
      <point x="96" y="98"/>
      <point x="96" y="165" type="curve" smooth="yes"/>
      <point x="96" y="168" type="line" smooth="yes"/>
      <point x="96" y="250"/>
      <point x="150" y="289"/>
      <point x="222" y="308" type="curve"/>
      <point x="221" y="321"/>
      <point x="210" y="355"/>
      <point x="186" y="349" type="curve" smooth="yes"/>
      <point x="121" y="329"/>
      <point x="41" y="277"/>
      <point x="41" y="164" type="curve" smooth="yes"/>
      <point x="41" y="160" type="line" smooth="yes"/>
      <point x="41" y="63"/>
      <point x="100" y="-10"/>
    </contour>
    <contour>
      <point x="451" y="381" type="curve" smooth="yes"/>
      <point x="448" y="381"/>
      <point x="446" y="381"/>
      <point x="443" y="380" type="curve"/>
      <point x="443" y="369"/>
      <point x="443" y="359"/>
      <point x="443" y="348" type="curve" smooth="yes"/>
      <point x="443" y="259"/>
      <point x="425" y="196"/>
      <point x="379" y="130" type="curve" smooth="yes"/>
      <point x="370" y="117"/>
      <point x="394" y="99"/>
      <point x="411" y="91" type="curve"/>
      <point x="474" y="179"/>
      <point x="499" y="259"/>
      <point x="499" y="340" type="curve" smooth="yes"/>
      <point x="499" y="352" type="line" smooth="yes"/>
      <point x="499" y="373"/>
      <point x="486" y="381"/>
    </contour>
  </outline>
</glyph>
<glyph name="quotesingle" format="1">
  <advance width="250"/>
  <unicode hex="0027"/>
  <outline>
    <contour>
      <point x="163" y="438" type="curve"/>
      <point x="173" y="678" type="line" smooth="yes"/>
      <point x="175" y="732"/>
      <point x="155" y="754"/>
      <point x="104" y="754" type="curve" smooth="yes"/>
      <point x="94" y="754"/>
      <point x="84" y="752"/>
      <point x="77" y="750" type="curve"/>
      <point x="85" y="727"/>
      <point x="86" y="719"/>
      <point x="88" y="662" type="curve" smooth="yes"/>
      <point x="98" y="473" type="line" smooth="yes"/>
      <point x="100" y="448"/>
      <point x="114" y="438"/>
      <point x="151" y="438" type="curve" smooth="yes"/>
      <point x="155" y="438"/>
      <point x="159" y="438"/>
    </contour>
  </outline>
</glyph>
<glyph name="parenleft" format="1">
  <advance width="400"/>
  <unicode hex="0028"/>
  <outline>
    <contour>
      <point x="319" y="754" type="curve" smooth="yes"/>
      <point x="202" y="637"/>
      <point x="137" y="482"/>
      <point x="137" y="301" type="curve" smooth="yes"/>
      <point x="137" y="297" type="line" smooth="yes"/>
      <point x="137" y="116"/>
      <point x="202" y="-40"/>
      <point x="319" y="-156" type="curve" smooth="yes"/>
      <point x="330" y="-167"/>
      <point x="339" y="-172"/>
      <point x="352" y="-172" type="curve" smooth="yes"/>
      <point x="370" y="-172"/>
      <point x="383" y="-166"/>
      <point x="394" y="-160" type="curve"/>
      <point x="394" y="-156" type="line"/>
      <point x="257" y="-28"/>
      <point x="194" y="122"/>
      <point x="194" y="297" type="curve" smooth="yes"/>
      <point x="194" y="301" type="line" smooth="yes"/>
      <point x="194" y="475"/>
      <point x="257" y="626"/>
      <point x="394" y="754" type="curve"/>
      <point x="394" y="758" type="line"/>
      <point x="383" y="764"/>
      <point x="370" y="770"/>
      <point x="352" y="770" type="curve" smooth="yes"/>
      <point x="339" y="770"/>
      <point x="330" y="765"/>
    </contour>
  </outline>
</glyph>
<glyph name="parenright" format="1">
  <advance width="400"/>
  <unicode hex="0029"/>
  <outline>
    <contour>
      <point x="81" y="-156" type="curve" smooth="yes"/>
      <point x="198" y="-39"/>
      <point x="263" y="116"/>
      <point x="263" y="297" type="curve" smooth="yes"/>
      <point x="263" y="301" type="line" smooth="yes"/>
      <point x="263" y="483"/>
      <point x="198" y="638"/>
      <point x="81" y="754" type="curve" smooth="yes"/>
      <point x="70" y="766"/>
      <point x="61" y="770"/>
      <point x="48" y="770" type="curve" smooth="yes"/>
      <point x="30" y="770"/>
      <point x="17" y="764"/>
      <point x="6" y="758" type="curve"/>
      <point x="6" y="754" type="line"/>
      <point x="143" y="626"/>
      <point x="206" y="476"/>
      <point x="206" y="301" type="curve" smooth="yes"/>
      <point x="206" y="297" type="line" smooth="yes"/>
      <point x="206" y="124"/>
      <point x="143" y="-28"/>
      <point x="6" y="-155" type="curve"/>
      <point x="6" y="-159" type="line"/>
      <point x="17" y="-166"/>
      <point x="30" y="-172"/>
      <point x="48" y="-172" type="curve" smooth="yes"/>
      <point x="61" y="-172"/>
      <point x="70" y="-167"/>
    </contour>
  </outline>
</glyph>
<glyph name="asterisk" format="1">
  <advance width="500"/>
  <unicode hex="002A"/>
  <outline>
    <contour>
      <point x="219" y="766" type="curve"/>
      <point x="223" y="752"/>
      <point x="227" y="741"/>
      <point x="228" y="722" type="curve" smooth="yes"/>
      <point x="236" y="556" type="line"/>
      <point x="223" y="394" type="line" smooth="yes"/>
      <point x="219" y="361"/>
      <point x="227" y="344"/>
      <point x="259" y="344" type="curve"/>
      <point x="266" y="344"/>
      <point x="274" y="345"/>
      <point x="282" y="348" type="curve"/>
      <point x="277" y="361"/>
      <point x="274" y="373"/>
      <point x="273" y="390" type="curve" smooth="yes"/>
      <point x="265" y="556" type="line"/>
      <point x="278" y="719" type="line" smooth="yes"/>
      <point x="281" y="752"/>
      <point x="274" y="770"/>
      <point x="241" y="770" type="curve" smooth="yes"/>
      <point x="234" y="769"/>
      <point x="227" y="768"/>
    </contour>
    <contour>
      <point x="419" y="685" type="curve"/>
      <point x="241" y="570" type="line"/>
      <point x="75" y="489" type="line" smooth="yes"/>
      <point x="61" y="482"/>
      <point x="58" y="463"/>
      <point x="69" y="446" type="curve"/>
      <point x="73" y="438"/>
      <point x="77" y="434"/>
      <point x="82" y="429" type="curve"/>
      <point x="260" y="545" type="line"/>
      <point x="426" y="627" type="line" smooth="yes"/>
      <point x="440" y="634"/>
      <point x="442" y="650"/>
      <point x="432" y="668" type="curve" smooth="yes"/>
      <point x="429" y="675"/>
      <point x="426" y="681"/>
    </contour>
    <contour>
      <point x="446" y="477" type="curve"/>
      <point x="260" y="569" type="line"/>
      <point x="103" y="672" type="line" smooth="yes"/>
      <point x="88" y="681"/>
      <point x="73" y="677"/>
      <point x="62" y="659" type="curve"/>
      <point x="59" y="653"/>
      <point x="57" y="646"/>
      <point x="54" y="639" type="curve"/>
      <point x="240" y="544" type="line"/>
      <point x="397" y="441" type="line" smooth="yes"/>
      <point x="412" y="432"/>
      <point x="426" y="438"/>
      <point x="437" y="456" type="curve"/>
      <point x="441" y="464"/>
      <point x="443" y="470"/>
    </contour>
  </outline>
</glyph>
<glyph name="plus" format="1">
  <advance width="600"/>
  <unicode hex="002B"/>
  <outline>
    <contour>
      <point x="59" y="328" type="line"/>
      <point x="59" y="325"/>
      <point x="59" y="320"/>
      <point x="59" y="317" type="curve" smooth="yes"/>
      <point x="59" y="299"/>
      <point x="63" y="287"/>
      <point x="71" y="278" type="curve" smooth="yes"/>
      <point x="75" y="274"/>
      <point x="80" y="272"/>
      <point x="87" y="272" type="curve"/>
      <point x="541" y="272" type="line"/>
      <point x="541" y="276"/>
      <point x="541" y="281"/>
      <point x="541" y="285" type="curve" smooth="yes"/>
      <point x="541" y="310"/>
      <point x="535" y="328"/>
      <point x="515" y="328" type="curve"/>
    </contour>
    <contour>
      <point x="328" y="60" type="curve"/>
      <point x="328" y="465" type="line" smooth="yes"/>
      <point x="328" y="494"/>
      <point x="326" y="515"/>
      <point x="313" y="528" type="curve" smooth="yes"/>
      <point x="302" y="538"/>
      <point x="290" y="541"/>
      <point x="279" y="541" type="curve" smooth="yes"/>
      <point x="273" y="541"/>
      <point x="267" y="540"/>
      <point x="261" y="537" type="curve"/>
      <point x="270" y="510"/>
      <point x="272" y="496"/>
      <point x="272" y="449" type="curve" smooth="yes"/>
      <point x="272" y="85" type="line" smooth="yes"/>
      <point x="272" y="65"/>
      <point x="291" y="59"/>
      <point x="315" y="59" type="curve" smooth="yes"/>
      <point x="319" y="59"/>
      <point x="324" y="60"/>
    </contour>
  </outline>
</glyph>
<glyph name="comma" format="1">
  <advance width="350"/>
  <unicode hex="002C"/>
  <outline>
    <contour>
      <point x="135" y="-191" type="curve" smooth="yes"/>
      <point x="148" y="-191"/>
      <point x="153" y="-188"/>
      <point x="159" y="-182" type="curve"/>
      <point x="209" y="-133"/>
      <point x="256" y="-36"/>
      <point x="256" y="97" type="curve"/>
      <point x="256" y="126"/>
      <point x="231" y="134"/>
      <point x="207" y="134" type="curve" smooth="yes"/>
      <point x="191" y="134"/>
      <point x="181" y="132"/>
      <point x="170" y="127" type="curve"/>
      <point x="170" y="-23"/>
      <point x="153" y="-83"/>
      <point x="94" y="-178" type="curve"/>
      <point x="107" y="-187"/>
      <point x="117" y="-191"/>
    </contour>
  </outline>
</glyph>
<glyph name="hyphen" format="1">
  <advance width="600"/>
  <unicode hex="002D"/>
  <outline>
    <contour>
      <point x="109" y="328" type="line"/>
      <point x="109" y="325"/>
      <point x="109" y="320"/>
      <point x="109" y="317" type="curve" smooth="yes"/>
      <point x="109" y="299"/>
      <point x="113" y="287"/>
      <point x="121" y="278" type="curve" smooth="yes"/>
      <point x="125" y="274"/>
      <point x="130" y="272"/>
      <point x="137" y="272" type="curve"/>
      <point x="491" y="272" type="line"/>
      <point x="491" y="276"/>
      <point x="491" y="281"/>
      <point x="491" y="285" type="curve" smooth="yes"/>
      <point x="491" y="310"/>
      <point x="486" y="328"/>
      <point x="465" y="328" type="curve"/>
    </contour>
  </outline>
</glyph>
<glyph name="period" format="1">
  <advance width="300"/>
  <unicode hex="002E"/>
  <outline>
    <contour>
      <point x="214" y="8" type="curve"/>
      <point x="214" y="74" type="line" smooth="yes"/>
      <point x="214" y="109"/>
      <point x="189" y="129"/>
      <point x="138" y="129" type="curve" smooth="yes"/>
      <point x="116" y="129"/>
      <point x="99" y="125"/>
      <point x="86" y="116" type="curve"/>
      <point x="86" y="51" type="line" smooth="yes"/>
      <point x="86" y="15"/>
      <point x="111" y="-5"/>
      <point x="162" y="-5" type="curve" smooth="yes"/>
      <point x="184" y="-5"/>
      <point x="201" y="0"/>
    </contour>
  </outline>
</glyph>
<glyph name="slash" format="1">
  <advance width="600"/>
  <unicode hex="002F"/>
  <outline>
    <contour>
      <point x="523" y="750" type="curve"/>
      <point x="515" y="754"/>
      <point x="507" y="757"/>
      <point x="495" y="757" type="curve" smooth="yes"/>
      <point x="480" y="757"/>
      <point x="462" y="753"/>
      <point x="456" y="732" type="curve" smooth="yes"/>
      <point x="383" y="445"/>
      <point x="280" y="179"/>
      <point x="143" y="-60" type="curve" smooth="yes"/>
      <point x="125" y="-91"/>
      <point x="112" y="-112"/>
      <point x="93" y="-132" type="curve"/>
      <point x="103" y="-137"/>
      <point x="113" y="-139"/>
      <point x="126" y="-139" type="curve" smooth="yes"/>
      <point x="149" y="-139"/>
      <point x="165" y="-133"/>
      <point x="178" y="-111" type="curve"/>
      <point x="327" y="138"/>
      <point x="443" y="425"/>
    </contour>
  </outline>
</glyph>
<glyph name="zero" format="1">
  <advance width="600"/>
  <unicode hex="0030"/>
  <outline>
    <contour>
      <point x="310" y="720" type="curve" smooth="yes"/>
      <point x="179" y="720"/>
      <point x="74" y="598"/>
      <point x="74" y="364" type="curve" smooth="yes"/>
      <point x="74" y="315" type="line" smooth="yes"/>
      <point x="74" y="100"/>
      <point x="159" y="-20"/>
      <point x="290" y="-20" type="curve"/>
      <point x="315" y="-20"/>
      <point x="321" y="-1"/>
      <point x="321" y="14" type="curve"/>
      <point x="156" y="33"/>
      <point x="129" y="195"/>
      <point x="129" y="319" type="curve" smooth="yes"/>
      <point x="129" y="363" type="line" smooth="yes"/>
      <point x="129" y="535"/>
      <point x="191" y="665"/>
      <point x="310" y="665" type="curve" smooth="yes"/>
      <point x="353" y="665"/>
      <point x="381" y="657"/>
      <point x="417" y="637" type="curve"/>
      <point x="420" y="670"/>
      <point x="378" y="720"/>
    </contour>
    <contour>
      <point x="290" y="-20" type="curve" smooth="yes"/>
      <point x="421" y="-20"/>
      <point x="526" y="100"/>
      <point x="526" y="333" type="curve" smooth="yes"/>
      <point x="526" y="383" type="line" smooth="yes"/>
      <point x="526" y="599"/>
      <point x="442" y="720"/>
      <point x="310" y="720" type="curve"/>
      <point x="285" y="720"/>
      <point x="279" y="701"/>
      <point x="279" y="686" type="curve"/>
      <point x="443" y="668"/>
      <point x="471" y="504"/>
      <point x="471" y="378" type="curve" smooth="yes"/>
      <point x="471" y="335" type="line" smooth="yes"/>
      <point x="471" y="164"/>
      <point x="409" y="35"/>
      <point x="290" y="35" type="curve" smooth="yes"/>
      <point x="247" y="35"/>
      <point x="219" y="43"/>
      <point x="183" y="63" type="curve"/>
      <point x="180" y="29"/>
      <point x="230" y="-20"/>
    </contour>
  </outline>
</glyph>
<glyph name="one" format="1">
  <advance width="600"/>
  <unicode hex="0031"/>
  <outline>
    <contour>
      <point x="363" y="28" type="curve"/>
      <point x="363" y="248"/>
      <point x="363" y="468"/>
      <point x="363" y="686" type="curve" smooth="yes"/>
      <point x="363" y="705"/>
      <point x="343" y="710"/>
      <point x="318" y="710" type="curve" smooth="yes"/>
      <point x="307" y="710" type="line"/>
      <point x="307" y="510"/>
      <point x="307" y="306"/>
      <point x="307" y="105" type="curve" smooth="yes"/>
      <point x="307" y="53"/>
      <point x="323" y="28"/>
    </contour>
    <contour>
      <point x="79" y="55" type="line"/>
      <point x="77" y="51"/>
      <point x="76" y="46"/>
      <point x="76" y="39" type="curve" smooth="yes"/>
      <point x="76" y="26"/>
      <point x="79" y="15"/>
      <point x="86" y="8" type="curve" smooth="yes"/>
      <point x="92" y="2"/>
      <point x="98" y="0"/>
      <point x="110" y="0" type="curve" smooth="yes"/>
      <point x="554" y="0" type="line"/>
      <point x="554" y="3"/>
      <point x="554" y="7"/>
      <point x="554" y="10" type="curve" smooth="yes"/>
      <point x="554" y="35"/>
      <point x="471" y="55"/>
      <point x="352" y="55" type="curve" smooth="yes"/>
    </contour>
    <contour>
      <point x="117" y="472" type="curve" smooth="yes"/>
      <point x="141" y="472"/>
      <point x="206" y="518"/>
      <point x="247" y="560" type="curve" smooth="yes"/>
      <point x="286" y="598"/>
      <point x="323" y="657"/>
      <point x="323" y="684" type="curve" smooth="yes"/>
      <point x="323" y="699"/>
      <point x="319" y="710"/>
      <point x="310" y="710" type="curve"/>
      <point x="294" y="710" type="line"/>
      <point x="273" y="675"/>
      <point x="252" y="644"/>
      <point x="219" y="611" type="curve"/>
      <point x="177" y="569"/>
      <point x="138" y="542"/>
      <point x="97" y="523" type="curve"/>
      <point x="97" y="517" type="line" smooth="yes"/>
      <point x="97" y="482"/>
      <point x="108" y="472"/>
    </contour>
  </outline>
</glyph>
<glyph name="two" format="1">
  <advance width="600"/>
  <unicode hex="0032"/>
  <outline>
    <contour>
      <point x="397" y="666" type="curve"/>
      <point x="431" y="625"/>
      <point x="455" y="591"/>
      <point x="455" y="535" type="curve" smooth="yes"/>
      <point x="455" y="448"/>
      <point x="406" y="371"/>
      <point x="286" y="298" type="curve" smooth="yes"/>
      <point x="176" y="230"/>
      <point x="74" y="149"/>
      <point x="74" y="44" type="curve" smooth="yes"/>
      <point x="74" y="33"/>
      <point x="85" y="29"/>
      <point x="127" y="29" type="curve"/>
      <point x="127" y="112"/>
      <point x="170" y="162"/>
      <point x="319" y="254" type="curve" smooth="yes"/>
      <point x="430" y="323"/>
      <point x="511" y="420"/>
      <point x="511" y="527" type="curve" smooth="yes"/>
      <point x="511" y="534" type="line" smooth="yes"/>
      <point x="511" y="601"/>
      <point x="451" y="683"/>
    </contour>
    <contour>
      <point x="526" y="0" type="line"/>
      <point x="526" y="4"/>
      <point x="526" y="9"/>
      <point x="526" y="13" type="curve" smooth="yes"/>
      <point x="526" y="37"/>
      <point x="521" y="55"/>
      <point x="501" y="55" type="curve" smooth="yes"/>
      <point x="130" y="55" type="line" smooth="yes"/>
      <point x="110" y="55"/>
      <point x="92" y="53"/>
      <point x="74" y="44" type="curve"/>
      <point x="74" y="42"/>
      <point x="74" y="41"/>
      <point x="74" y="40" type="curve" smooth="yes"/>
      <point x="74" y="24"/>
      <point x="84" y="0"/>
      <point x="99" y="0" type="curve" smooth="yes"/>
    </contour>
    <contour>
      <point x="305" y="720" type="curve" smooth="yes"/>
      <point x="233" y="720"/>
      <point x="181" y="696"/>
      <point x="144" y="660" type="curve" smooth="yes"/>
      <point x="112" y="629"/>
      <point x="92" y="588"/>
      <point x="92" y="550" type="curve" smooth="yes"/>
      <point x="92" y="531"/>
      <point x="105" y="514"/>
      <point x="120" y="505" type="curve"/>
      <point x="124" y="505" type="line"/>
      <point x="145" y="612"/>
      <point x="209" y="665"/>
      <point x="305" y="665" type="curve" smooth="yes"/>
      <point x="413" y="665"/>
      <point x="468" y="609"/>
      <point x="468" y="538" type="curve" smooth="yes"/>
      <point x="468" y="518"/>
      <point x="466" y="501"/>
      <point x="461" y="481" type="curve"/>
      <point x="485" y="481"/>
      <point x="511" y="511"/>
      <point x="511" y="534" type="curve" smooth="yes"/>
      <point x="511" y="643"/>
      <point x="426" y="720"/>
    </contour>
  </outline>
</glyph>
<glyph name="four" format="1">
  <advance width="600"/>
  <unicode hex="0034"/>
  <outline>
    <contour>
      <point x="96" y="183" type="curve"/>
      <point x="140" y="349"/>
      <point x="327" y="601"/>
      <point x="469" y="696" type="curve"/>
      <point x="469" y="700" type="line"/>
      <point x="459" y="709"/>
      <point x="447" y="716"/>
      <point x="424" y="716" type="curve" smooth="yes"/>
      <point x="404" y="716"/>
      <point x="390" y="711"/>
      <point x="335" y="656" type="curve" smooth="yes"/>
      <point x="185" y="506"/>
      <point x="51" y="288"/>
      <point x="51" y="204" type="curve" smooth="yes"/>
      <point x="51" y="188"/>
      <point x="78" y="183"/>
    </contour>
    <contour>
      <point x="565" y="150" type="line"/>
      <point x="565" y="154"/>
      <point x="565" y="158"/>
      <point x="565" y="162" type="curve" smooth="yes"/>
      <point x="565" y="185"/>
      <point x="560" y="205"/>
      <point x="541" y="205" type="curve" smooth="yes"/>
      <point x="293" y="205" type="line"/>
      <point x="215" y="205"/>
      <point x="131" y="205"/>
      <point x="51" y="204" type="curve"/>
      <point x="51" y="199" type="line" smooth="yes"/>
      <point x="51" y="181"/>
      <point x="58" y="164"/>
      <point x="66" y="155" type="curve" smooth="yes"/>
      <point x="70" y="152"/>
      <point x="74" y="150"/>
      <point x="80" y="150" type="curve" smooth="yes"/>
    </contour>
    <contour>
      <point x="484" y="-6" type="curve"/>
      <point x="475" y="28"/>
      <point x="472" y="51"/>
      <point x="472" y="100" type="curve" smooth="yes"/>
      <point x="472" y="350" type="line" smooth="yes"/>
      <point x="472" y="359"/>
      <point x="459" y="376"/>
      <point x="429" y="376" type="curve" smooth="yes"/>
      <point x="419" y="376" type="line"/>
      <point x="417" y="313"/>
      <point x="416" y="249"/>
      <point x="416" y="186" type="curve"/>
      <point x="416" y="59" type="line" smooth="yes"/>
      <point x="416" y="1"/>
      <point x="436" y="-10"/>
      <point x="462" y="-10" type="curve" smooth="yes"/>
      <point x="470" y="-10"/>
      <point x="478" y="-9"/>
    </contour>
  </outline>
</glyph>
<glyph name="five" format="1">
  <advance width="598"/>
  <unicode hex="0035"/>
  <outline>
    <contour>
      <point x="111" y="700" type="line"/>
      <point x="111" y="697"/>
      <point x="111" y="692"/>
      <point x="111" y="689" type="curve" smooth="yes"/>
      <point x="111" y="671"/>
      <point x="115" y="659"/>
      <point x="123" y="650" type="curve" smooth="yes"/>
      <point x="127" y="647"/>
      <point x="132" y="645"/>
      <point x="139" y="645" type="curve" smooth="yes"/>
      <point x="500" y="645" type="line"/>
      <point x="501" y="648"/>
      <point x="501" y="653"/>
      <point x="501" y="657" type="curve" smooth="yes"/>
      <point x="501" y="682"/>
      <point x="495" y="700"/>
      <point x="475" y="700" type="curve" smooth="yes"/>
    </contour>
    <contour>
      <point x="147" y="308" type="line"/>
      <point x="217" y="669" type="line" smooth="yes"/>
      <point x="221" y="690"/>
      <point x="207" y="700"/>
      <point x="180" y="700" type="curve" smooth="yes"/>
      <point x="169" y="700" type="line"/>
      <point x="99" y="335" type="line" smooth="yes"/>
      <point x="95" y="312"/>
      <point x="114" y="308"/>
      <point x="137" y="308" type="curve" smooth="yes"/>
    </contour>
    <contour>
      <point x="119" y="361" type="curve"/>
      <point x="118" y="330"/>
      <point x="126" y="308"/>
      <point x="147" y="308" type="curve"/>
      <point x="149" y="308"/>
      <point x="151" y="308"/>
      <point x="154" y="308" type="curve" smooth="yes"/>
      <point x="349" y="308"/>
      <point x="477" y="277"/>
      <point x="477" y="160" type="curve" smooth="yes"/>
      <point x="477" y="144"/>
      <point x="476" y="133"/>
      <point x="473" y="120" type="curve"/>
      <point x="496" y="120"/>
      <point x="524" y="143"/>
      <point x="524" y="180" type="curve" smooth="yes"/>
      <point x="524" y="302"/>
      <point x="402" y="361"/>
      <point x="160" y="361" type="curve" smooth="yes"/>
      <point x="146" y="361"/>
      <point x="132" y="361"/>
    </contour>
    <contour>
      <point x="298" y="-20" type="curve" smooth="yes"/>
      <point x="436" y="-20"/>
      <point x="524" y="52"/>
      <point x="524" y="174" type="curve" smooth="yes"/>
      <point x="524" y="180" type="line" smooth="yes"/>
      <point x="524" y="214"/>
      <point x="495" y="232"/>
      <point x="478" y="234" type="curve"/>
      <point x="478" y="227"/>
      <point x="478" y="218"/>
      <point x="478" y="208" type="curve" smooth="yes"/>
      <point x="478" y="202" type="line" smooth="yes"/>
      <point x="478" y="100"/>
      <point x="422" y="35"/>
      <point x="297" y="35" type="curve" smooth="yes"/>
      <point x="195" y="35"/>
      <point x="133" y="70"/>
      <point x="82" y="138" type="curve"/>
      <point x="78" y="138" type="line"/>
      <point x="75" y="128"/>
      <point x="74" y="119"/>
      <point x="74" y="108" type="curve" smooth="yes"/>
      <point x="74" y="87"/>
      <point x="77" y="66"/>
      <point x="94" y="50" type="curve" smooth="yes"/>
      <point x="136" y="8"/>
      <point x="205" y="-20"/>
    </contour>
  </outline>
</glyph>
<glyph name="six" format="1">
  <advance width="600"/>
  <unicode hex="0036"/>
  <outline>
    <contour>
      <point x="146" y="114" type="curve"/>
      <point x="140" y="44"/>
      <point x="218" y="-20"/>
      <point x="310" y="-20" type="curve"/>
      <point x="441" y="-20"/>
      <point x="529" y="61"/>
      <point x="529" y="181" type="curve" smooth="yes"/>
      <point x="529" y="186" type="line" smooth="yes"/>
      <point x="529" y="270"/>
      <point x="470" y="340"/>
      <point x="419" y="323" type="curve"/>
      <point x="459" y="280"/>
      <point x="474" y="244"/>
      <point x="474" y="188" type="curve" smooth="yes"/>
      <point x="474" y="183" type="line" smooth="yes"/>
      <point x="474" y="90"/>
      <point x="410" y="33"/>
      <point x="309" y="33" type="curve" smooth="yes"/>
      <point x="242" y="33"/>
      <point x="203" y="52"/>
    </contour>
    <contour>
      <point x="162" y="579" type="curve"/>
      <point x="212" y="639"/>
      <point x="265" y="665"/>
      <point x="343" y="665" type="curve" smooth="yes"/>
      <point x="412" y="665"/>
      <point x="458" y="648"/>
      <point x="494" y="613" type="curve"/>
      <point x="498" y="613" type="line"/>
      <point x="501" y="621"/>
      <point x="502" y="627"/>
      <point x="502" y="638" type="curve" smooth="yes"/>
      <point x="502" y="657"/>
      <point x="497" y="672"/>
      <point x="489" y="680" type="curve" smooth="yes"/>
      <point x="465" y="704"/>
      <point x="413" y="720"/>
      <point x="346" y="720" type="curve" smooth="yes"/>
      <point x="253" y="720"/>
      <point x="134" y="649"/>
    </contour>
    <contour>
      <point x="74" y="334" type="curve" smooth="yes"/>
      <point x="74" y="325" type="line" smooth="yes"/>
      <point x="74" y="89"/>
      <point x="150" y="-20"/>
      <point x="310" y="-20" type="curve" smooth="yes"/>
      <point x="323" y="-20"/>
      <point x="339" y="-5"/>
      <point x="339" y="12" type="curve"/>
      <point x="192" y="13"/>
      <point x="129" y="109"/>
      <point x="129" y="326" type="curve" smooth="yes"/>
      <point x="129" y="335" type="line" smooth="yes"/>
      <point x="129" y="567"/>
      <point x="209" y="686"/>
      <point x="366" y="690" type="curve"/>
      <point x="366" y="705"/>
      <point x="356" y="720"/>
      <point x="346" y="720" type="curve" smooth="yes"/>
      <point x="166" y="720"/>
      <point x="74" y="589"/>
    </contour>
    <contour>
      <point x="313" y="381" type="curve" smooth="yes"/>
      <point x="244" y="381"/>
      <point x="160" y="353"/>
      <point x="122" y="315" type="curve" smooth="yes"/>
      <point x="114" y="307"/>
      <point x="110" y="287"/>
      <point x="110" y="257" type="curve"/>
      <point x="165" y="304"/>
      <point x="234" y="327"/>
      <point x="311" y="327" type="curve" smooth="yes"/>
      <point x="427" y="327"/>
      <point x="496" y="262"/>
      <point x="496" y="154" type="curve" smooth="yes"/>
      <point x="496" y="145"/>
      <point x="495" y="134"/>
      <point x="491" y="126" type="curve"/>
      <point x="512" y="126"/>
      <point x="529" y="167"/>
      <point x="529" y="186" type="curve" smooth="yes"/>
      <point x="529" y="310"/>
      <point x="449" y="381"/>
    </contour>
  </outline>
</glyph>
<glyph name="seven" format="1">
  <advance width="600"/>
  <unicode hex="0037"/>
  <outline>
    <contour>
      <point x="470" y="645" type="line" smooth="yes"/>
      <point x="493" y="645"/>
      <point x="509" y="645"/>
      <point x="523" y="645" type="curve"/>
      <point x="523" y="655" type="line"/>
      <point x="523" y="678"/>
      <point x="517" y="700"/>
      <point x="498" y="700" type="curve"/>
      <point x="100" y="700" type="line"/>
      <point x="100" y="691" type="line" smooth="yes"/>
      <point x="100" y="658"/>
      <point x="107" y="645"/>
      <point x="125" y="645" type="curve" smooth="yes"/>
    </contour>
    <contour>
      <point x="303" y="-10" type="line"/>
      <point x="303" y="213"/>
      <point x="523" y="480"/>
      <point x="523" y="645" type="curve" smooth="yes"/>
      <point x="523" y="663"/>
      <point x="499" y="663"/>
      <point x="467" y="662" type="curve"/>
      <point x="467" y="494"/>
      <point x="247" y="218"/>
      <point x="247" y="16" type="curve" smooth="yes"/>
      <point x="247" y="-3"/>
      <point x="268" y="-10"/>
      <point x="292" y="-10" type="curve" smooth="yes"/>
    </contour>
    <contour>
      <point x="131" y="478" type="curve"/>
      <point x="131" y="588"/>
      <point x="152" y="687"/>
      <point x="152" y="695" type="curve"/>
      <point x="152" y="714"/>
      <point x="132" y="720"/>
      <point x="109" y="720" type="curve" smooth="yes"/>
      <point x="99" y="720" type="line"/>
      <point x="83" y="649"/>
      <point x="75" y="574"/>
      <point x="75" y="503" type="curve"/>
      <point x="75" y="483"/>
      <point x="94" y="478"/>
      <point x="118" y="478" type="curve" smooth="yes"/>
      <point x="122" y="478"/>
      <point x="127" y="478"/>
    </contour>
  </outline>
</glyph>
<glyph name="eight" format="1">
  <advance width="600"/>
  <unicode hex="0038"/>
  <outline>
    <contour>
      <point x="369" y="319" type="curve" smooth="yes"/>
      <point x="284" y="350" type="line" smooth="yes"/>
      <point x="170" y="391"/>
      <point x="140" y="448"/>
      <point x="140" y="514" type="curve" smooth="yes"/>
      <point x="140" y="532"/>
      <point x="141" y="549"/>
      <point x="141" y="576" type="curve"/>
      <point x="118" y="567"/>
      <point x="87" y="548"/>
      <point x="87" y="508" type="curve" smooth="yes"/>
      <point x="87" y="427"/>
      <point x="136" y="351"/>
      <point x="270" y="302" type="curve" smooth="yes"/>
      <point x="356" y="270" type="line" smooth="yes"/>
      <point x="458" y="231"/>
      <point x="489" y="198"/>
      <point x="489" y="118" type="curve" smooth="yes"/>
      <point x="489" y="113"/>
      <point x="489" y="104"/>
      <point x="489" y="99" type="curve"/>
      <point x="507" y="104"/>
      <point x="535" y="140"/>
      <point x="535" y="160" type="curve"/>
      <point x="535" y="226"/>
      <point x="483" y="278"/>
    </contour>
    <contour>
      <point x="299" y="-20" type="curve" smooth="yes"/>
      <point x="443" y="-20"/>
      <point x="535" y="51"/>
      <point x="535" y="155" type="curve" smooth="yes"/>
      <point x="535" y="160" type="line" smooth="yes"/>
      <point x="535" y="181"/>
      <point x="509" y="191"/>
      <point x="490" y="193" type="curve"/>
      <point x="490" y="189"/>
      <point x="490" y="183"/>
      <point x="490" y="178" type="curve" smooth="yes"/>
      <point x="490" y="86"/>
      <point x="429" y="35"/>
      <point x="299" y="35" type="curve" smooth="yes"/>
      <point x="204" y="35"/>
      <point x="147" y="66"/>
      <point x="109" y="148" type="curve"/>
      <point x="64" y="105"/>
      <point x="135" y="-20"/>
    </contour>
    <contour>
      <point x="327" y="720" type="curve" smooth="yes"/>
      <point x="199" y="720"/>
      <point x="87" y="639"/>
      <point x="87" y="513" type="curve" smooth="yes"/>
      <point x="87" y="508" type="line" smooth="yes"/>
      <point x="87" y="477"/>
      <point x="123" y="457"/>
      <point x="141" y="452" type="curve"/>
      <point x="141" y="473"/>
      <point x="140" y="492"/>
      <point x="140" y="514" type="curve" smooth="yes"/>
      <point x="140" y="620"/>
      <point x="254" y="665"/>
      <point x="327" y="665" type="curve" smooth="yes"/>
      <point x="385" y="665"/>
      <point x="441" y="648"/>
      <point x="480" y="597" type="curve"/>
      <point x="515" y="658"/>
      <point x="414" y="720"/>
    </contour>
    <contour>
      <point x="336" y="310" type="curve" smooth="yes"/>
      <point x="419" y="310"/>
      <point x="539" y="411"/>
      <point x="539" y="522" type="curve" smooth="yes"/>
      <point x="539" y="527" type="line" smooth="yes"/>
      <point x="539" y="637"/>
      <point x="452" y="720"/>
      <point x="327" y="720" type="curve" smooth="yes"/>
      <point x="316" y="720"/>
      <point x="295" y="714"/>
      <point x="295" y="686" type="curve"/>
      <point x="417" y="686"/>
      <point x="483" y="628"/>
      <point x="483" y="527" type="curve" smooth="yes"/>
      <point x="483" y="523" type="line" smooth="yes"/>
      <point x="483" y="434"/>
      <point x="411" y="363"/>
      <point x="292" y="328" type="curve"/>
      <point x="311" y="314"/>
      <point x="318" y="310"/>
    </contour>
    <contour>
      <point x="329" y="16" type="curve"/>
      <point x="218" y="16"/>
      <point x="127" y="73"/>
      <point x="127" y="140" type="curve" smooth="yes"/>
      <point x="127" y="144" type="line" smooth="yes"/>
      <point x="127" y="219"/>
      <point x="184" y="265"/>
      <point x="305" y="299" type="curve"/>
      <point x="292" y="315"/>
      <point x="283" y="323"/>
      <point x="271" y="323" type="curve" smooth="yes"/>
      <point x="173" y="323"/>
      <point x="73" y="243"/>
      <point x="73" y="148" type="curve" smooth="yes"/>
      <point x="73" y="143" type="line" smooth="yes"/>
      <point x="73" y="55"/>
      <point x="162" y="-20"/>
      <point x="299" y="-20" type="curve" smooth="yes"/>
      <point x="312" y="-20"/>
      <point x="329" y="-8"/>
    </contour>
  </outline>
</glyph>
<glyph name="nine" format="1">
  <advance width="600"/>
  <unicode hex="0039"/>
  <outline>
    <contour>
      <point x="455" y="586" type="curve"/>
      <point x="483" y="648"/>
      <point x="382" y="720"/>
      <point x="291" y="720" type="curve"/>
      <point x="160" y="720"/>
      <point x="72" y="623"/>
      <point x="72" y="464" type="curve" smooth="yes"/>
      <point x="72" y="459" type="line" smooth="yes"/>
      <point x="72" y="356"/>
      <point x="133" y="272"/>
      <point x="187" y="290" type="curve"/>
      <point x="139" y="340"/>
      <point x="127" y="388"/>
      <point x="127" y="456" type="curve" smooth="yes"/>
      <point x="127" y="462" type="line" smooth="yes"/>
      <point x="127" y="588"/>
      <point x="194" y="667"/>
      <point x="299" y="667" type="curve" smooth="yes"/>
      <point x="364" y="667"/>
      <point x="399" y="648"/>
    </contour>
    <contour>
      <point x="439" y="121" type="curve"/>
      <point x="389" y="61"/>
      <point x="336" y="35"/>
      <point x="258" y="35" type="curve" smooth="yes"/>
      <point x="188" y="35"/>
      <point x="143" y="52"/>
      <point x="107" y="87" type="curve"/>
      <point x="103" y="87" type="line"/>
      <point x="100" y="79"/>
      <point x="99" y="73"/>
      <point x="99" y="62" type="curve" smooth="yes"/>
      <point x="99" y="43"/>
      <point x="104" y="28"/>
      <point x="112" y="20" type="curve" smooth="yes"/>
      <point x="135" y="-4"/>
      <point x="187" y="-20"/>
      <point x="256" y="-20" type="curve" smooth="yes"/>
      <point x="349" y="-20"/>
      <point x="462" y="66"/>
    </contour>
    <contour>
      <point x="527" y="366" type="curve" smooth="yes"/>
      <point x="527" y="375" type="line" smooth="yes"/>
      <point x="527" y="611"/>
      <point x="451" y="720"/>
      <point x="291" y="720" type="curve" smooth="yes"/>
      <point x="278" y="720"/>
      <point x="262" y="705"/>
      <point x="262" y="688" type="curve"/>
      <point x="408" y="687"/>
      <point x="472" y="591"/>
      <point x="472" y="374" type="curve" smooth="yes"/>
      <point x="472" y="365" type="line" smooth="yes"/>
      <point x="472" y="133"/>
      <point x="392" y="14"/>
      <point x="235" y="10" type="curve"/>
      <point x="235" y="-5"/>
      <point x="245" y="-20"/>
      <point x="256" y="-20" type="curve" smooth="yes"/>
      <point x="435" y="-20"/>
      <point x="527" y="110"/>
    </contour>
    <contour>
      <point x="285" y="230" type="curve" smooth="yes"/>
      <point x="355" y="230"/>
      <point x="441" y="259"/>
      <point x="479" y="296" type="curve" smooth="yes"/>
      <point x="487" y="304"/>
      <point x="491" y="324"/>
      <point x="491" y="354" type="curve"/>
      <point x="436" y="308"/>
      <point x="365" y="284"/>
      <point x="287" y="284" type="curve" smooth="yes"/>
      <point x="173" y="284"/>
      <point x="105" y="354"/>
      <point x="105" y="474" type="curve" smooth="yes"/>
      <point x="105" y="497"/>
      <point x="107" y="513"/>
      <point x="113" y="531" type="curve"/>
      <point x="90" y="531"/>
      <point x="72" y="495"/>
      <point x="72" y="459" type="curve" smooth="yes"/>
      <point x="72" y="313"/>
      <point x="151" y="230"/>
    </contour>
  </outline>
</glyph>
<glyph name="colon" format="1">
  <advance width="300"/>
  <unicode hex="003A"/>
  <outline>
    <contour>
      <point x="214" y="412" type="curve"/>
      <point x="214" y="477" type="line" smooth="yes"/>
      <point x="214" y="513"/>
      <point x="189" y="533"/>
      <point x="138" y="533" type="curve" smooth="yes"/>
      <point x="116" y="533"/>
      <point x="99" y="528"/>
      <point x="86" y="520" type="curve"/>
      <point x="86" y="454" type="line" smooth="yes"/>
      <point x="86" y="419"/>
      <point x="111" y="398"/>
      <point x="162" y="398" type="curve" smooth="yes"/>
      <point x="184" y="398"/>
      <point x="201" y="403"/>
    </contour>
    <contour>
      <point x="214" y="8" type="curve"/>
      <point x="214" y="74" type="line" smooth="yes"/>
      <point x="214" y="109"/>
      <point x="189" y="129"/>
      <point x="138" y="129" type="curve" smooth="yes"/>
      <point x="116" y="129"/>
      <point x="99" y="125"/>
      <point x="86" y="116" type="curve"/>
      <point x="86" y="51" type="line" smooth="yes"/>
      <point x="86" y="15"/>
      <point x="111" y="-5"/>
      <point x="162" y="-5" type="curve" smooth="yes"/>
      <point x="184" y="-5"/>
      <point x="201" y="0"/>
    </contour>
  </outline>
</glyph>
<glyph name="semicolon" format="1">
  <advance width="350"/>
  <unicode hex="003B"/>
  <outline>
    <contour>
      <point x="239" y="411" type="curve"/>
      <point x="239" y="476" type="line" smooth="yes"/>
      <point x="239" y="512"/>
      <point x="214" y="532"/>
      <point x="163" y="532" type="curve" smooth="yes"/>
      <point x="141" y="532"/>
      <point x="124" y="527"/>
      <point x="110" y="518" type="curve"/>
      <point x="110" y="453" type="line" smooth="yes"/>
      <point x="110" y="418"/>
      <point x="136" y="397"/>
      <point x="187" y="397" type="curve" smooth="yes"/>
      <point x="209" y="397"/>
      <point x="225" y="402"/>
    </contour>
    <contour>
      <point x="100" y="-191" type="curve" smooth="yes"/>
      <point x="113" y="-191"/>
      <point x="118" y="-188"/>
      <point x="124" y="-182" type="curve"/>
      <point x="174" y="-133"/>
      <point x="222" y="-36"/>
      <point x="222" y="97" type="curve"/>
      <point x="222" y="126"/>
      <point x="197" y="134"/>
      <point x="172" y="134" type="curve" smooth="yes"/>
      <point x="157" y="134"/>
      <point x="146" y="132"/>
      <point x="135" y="127" type="curve"/>
      <point x="135" y="-23"/>
      <point x="118" y="-83"/>
      <point x="59" y="-178" type="curve"/>
      <point x="73" y="-187"/>
      <point x="83" y="-191"/>
    </contour>
  </outline>
</glyph>
<glyph name="less" format="1">
  <advance width="600"/>
  <unicode hex="003C"/>
  <outline>
    <contour>
      <point x="523" y="508" type="curve"/>
      <point x="523" y="519" type="line"/>
      <point x="523" y="546"/>
      <point x="511" y="560"/>
      <point x="498" y="560" type="curve" smooth="yes"/>
      <point x="485" y="560"/>
      <point x="452" y="552"/>
      <point x="405" y="536" type="curve" smooth="yes"/>
      <point x="254" y="483"/>
      <point x="157" y="419"/>
      <point x="70" y="325" type="curve"/>
      <point x="70" y="295" type="line"/>
      <point x="70" y="284"/>
      <point x="87" y="274"/>
      <point x="107" y="288" type="curve"/>
      <point x="232" y="405"/>
      <point x="306" y="455"/>
    </contour>
    <contour>
      <point x="519" y="35" type="curve"/>
      <point x="521" y="41"/>
      <point x="522" y="48"/>
      <point x="522" y="56" type="curve" smooth="yes"/>
      <point x="522" y="75"/>
      <point x="516" y="91"/>
      <point x="502" y="96" type="curve" smooth="yes"/>
      <point x="307" y="150"/>
      <point x="242" y="192"/>
      <point x="115" y="304" type="curve" smooth="yes"/>
      <point x="108" y="310"/>
      <point x="105" y="317"/>
      <point x="105" y="322" type="curve" smooth="yes"/>
      <point x="105" y="326"/>
      <point x="105" y="332"/>
      <point x="105" y="342" type="curve"/>
      <point x="82" y="330"/>
      <point x="70" y="317"/>
      <point x="70" y="299" type="curve" smooth="yes"/>
      <point x="70" y="289" type="line" smooth="yes"/>
      <point x="70" y="270"/>
      <point x="79" y="259"/>
      <point x="101" y="242" type="curve" smooth="yes"/>
      <point x="211" y="151"/>
      <point x="299" y="85"/>
    </contour>
  </outline>
</glyph>
<glyph name="equal" format="1">
  <advance width="600"/>
  <unicode hex="003D"/>
  <outline>
    <contour>
      <point x="59" y="453" type="line"/>
      <point x="59" y="450"/>
      <point x="59" y="445"/>
      <point x="59" y="442" type="curve" smooth="yes"/>
      <point x="59" y="424"/>
      <point x="63" y="412"/>
      <point x="71" y="403" type="curve" smooth="yes"/>
      <point x="75" y="399"/>
      <point x="80" y="397"/>
      <point x="87" y="397" type="curve"/>
      <point x="541" y="397" type="line"/>
      <point x="541" y="401"/>
      <point x="541" y="406"/>
      <point x="541" y="410" type="curve" smooth="yes"/>
      <point x="541" y="435"/>
      <point x="536" y="453"/>
      <point x="515" y="453" type="curve"/>
    </contour>
    <contour>
      <point x="541" y="147" type="line"/>
      <point x="541" y="150"/>
      <point x="541" y="155"/>
      <point x="541" y="158" type="curve" smooth="yes"/>
      <point x="541" y="176"/>
      <point x="538" y="188"/>
      <point x="529" y="197" type="curve" smooth="yes"/>
      <point x="526" y="201"/>
      <point x="521" y="203"/>
      <point x="514" y="203" type="curve"/>
      <point x="60" y="203" type="line"/>
      <point x="60" y="199"/>
      <point x="59" y="194"/>
      <point x="59" y="190" type="curve" smooth="yes"/>
      <point x="59" y="165"/>
      <point x="65" y="147"/>
      <point x="85" y="147" type="curve"/>
    </contour>
  </outline>
</glyph>
<glyph name="greater" format="1">
  <advance width="550"/>
  <unicode hex="003E"/>
  <outline>
    <contour>
      <point x="77" y="92" type="curve"/>
      <point x="77" y="81" type="line"/>
      <point x="77" y="54"/>
      <point x="89" y="40"/>
      <point x="102" y="40" type="curve" smooth="yes"/>
      <point x="115" y="40"/>
      <point x="148" y="48"/>
      <point x="195" y="64" type="curve" smooth="yes"/>
      <point x="346" y="117"/>
      <point x="443" y="181"/>
      <point x="530" y="275" type="curve"/>
      <point x="530" y="305" type="line"/>
      <point x="530" y="316"/>
      <point x="513" y="326"/>
      <point x="493" y="312" type="curve"/>
      <point x="368" y="195"/>
      <point x="294" y="145"/>
    </contour>
    <contour>
      <point x="81" y="565" type="curve"/>
      <point x="79" y="559"/>
      <point x="78" y="552"/>
      <point x="78" y="544" type="curve" smooth="yes"/>
      <point x="78" y="525"/>
      <point x="84" y="509"/>
      <point x="98" y="504" type="curve" smooth="yes"/>
      <point x="293" y="450"/>
      <point x="358" y="408"/>
      <point x="485" y="296" type="curve" smooth="yes"/>
      <point x="492" y="290"/>
      <point x="495" y="283"/>
      <point x="495" y="278" type="curve" smooth="yes"/>
      <point x="495" y="274"/>
      <point x="495" y="268"/>
      <point x="495" y="258" type="curve"/>
      <point x="518" y="270"/>
      <point x="530" y="283"/>
      <point x="530" y="301" type="curve" smooth="yes"/>
      <point x="530" y="311" type="line" smooth="yes"/>
      <point x="530" y="330"/>
      <point x="521" y="341"/>
      <point x="499" y="358" type="curve" smooth="yes"/>
      <point x="389" y="449"/>
      <point x="301" y="515"/>
    </contour>
  </outline>
</glyph>
<glyph name="question" format="1">
  <advance width="600"/>
  <unicode hex="003F"/>
  <outline>
    <contour>
      <point x="305" y="720" type="curve" smooth="yes"/>
      <point x="237" y="720"/>
      <point x="181" y="696"/>
      <point x="144" y="660" type="curve" smooth="yes"/>
      <point x="113" y="630"/>
      <point x="92" y="595"/>
      <point x="92" y="560" type="curve" smooth="yes"/>
      <point x="92" y="543"/>
      <point x="104" y="531"/>
      <point x="116" y="522" type="curve"/>
      <point x="121" y="522" type="line"/>
      <point x="147" y="606"/>
      <point x="203" y="665"/>
      <point x="305" y="665" type="curve" smooth="yes"/>
      <point x="406" y="665"/>
      <point x="474" y="617"/>
      <point x="474" y="553" type="curve" smooth="yes"/>
      <point x="474" y="533"/>
      <point x="474" y="524"/>
      <point x="471" y="512" type="curve"/>
      <point x="500" y="511"/>
      <point x="509" y="543"/>
      <point x="509" y="559" type="curve" smooth="yes"/>
      <point x="509" y="636"/>
      <point x="454" y="720"/>
    </contour>
    <contour>
      <point x="400" y="674" type="curve"/>
      <point x="429" y="639"/>
      <point x="452" y="610"/>
      <point x="452" y="557" type="curve" smooth="yes"/>
      <point x="452" y="503"/>
      <point x="431" y="461"/>
      <point x="368" y="416" type="curve" smooth="yes"/>
      <point x="346" y="400" type="line" smooth="yes"/>
      <point x="290" y="359"/>
      <point x="251" y="313"/>
      <point x="251" y="269" type="curve" smooth="yes"/>
      <point x="251" y="264" type="line" smooth="yes"/>
      <point x="251" y="250"/>
      <point x="264" y="238"/>
      <point x="299" y="238" type="curve" smooth="yes"/>
      <point x="305" y="238" type="line"/>
      <point x="305" y="247" type="line" smooth="yes"/>
      <point x="305" y="289"/>
      <point x="319" y="312"/>
      <point x="387" y="363" type="curve" smooth="yes"/>
      <point x="409" y="379" type="line" smooth="yes"/>
      <point x="478" y="432"/>
      <point x="509" y="481"/>
      <point x="509" y="552" type="curve" smooth="yes"/>
      <point x="509" y="559" type="line" smooth="yes"/>
      <point x="509" y="615"/>
      <point x="461" y="688"/>
    </contour>
    <contour>
      <point x="347" y="8" type="curve"/>
      <point x="347" y="72" type="line" smooth="yes"/>
      <point x="347" y="108"/>
      <point x="322" y="128"/>
      <point x="271" y="128" type="curve" smooth="yes"/>
      <point x="249" y="128"/>
      <point x="232" y="124"/>
      <point x="219" y="115" type="curve"/>
      <point x="219" y="51" type="line" smooth="yes"/>
      <point x="219" y="15"/>
      <point x="244" y="-5"/>
      <point x="295" y="-5" type="curve" smooth="yes"/>
      <point x="317" y="-5"/>
      <point x="333" y="0"/>
    </contour>
  </outline>
</glyph>
<glyph name="B" format="1">
  <advance width="600"/>
  <unicode hex="0042"/>
  <outline>
    <contour>
      <point x="155" y="17" type="curve"/>
      <point x="155" y="605" type="line" smooth="yes"/>
      <point x="155" y="658"/>
      <point x="138" y="680"/>
      <point x="99" y="680" type="curve"/>
      <point x="99" y="32" type="line"/>
      <point x="99" y="23"/>
      <point x="120" y="17"/>
    </contour>
    <contour>
      <point x="49" y="700" type="curve"/>
      <point x="48" y="696"/>
      <point x="48" y="692"/>
      <point x="48" y="687" type="curve" smooth="yes"/>
      <point x="48" y="669"/>
      <point x="52" y="658"/>
      <point x="60" y="650" type="curve" smooth="yes"/>
      <point x="64" y="646"/>
      <point x="70" y="645"/>
      <point x="74" y="645" type="curve" smooth="yes"/>
      <point x="82" y="645"/>
      <point x="91" y="646"/>
      <point x="103" y="648" type="curve" smooth="yes"/>
      <point x="156" y="657"/>
      <point x="235" y="665"/>
      <point x="290" y="665" type="curve" smooth="yes"/>
      <point x="376" y="665"/>
      <point x="422" y="652"/>
      <point x="472" y="605" type="curve"/>
      <point x="518" y="651"/>
      <point x="414" y="720"/>
      <point x="309" y="720" type="curve" smooth="yes"/>
      <point x="229" y="720"/>
      <point x="153" y="717"/>
    </contour>
    <contour>
      <point x="526" y="505" type="curve" smooth="yes"/>
      <point x="526" y="537" type="line" smooth="yes"/>
      <point x="526" y="641"/>
      <point x="453" y="720"/>
      <point x="309" y="720" type="curve" smooth="yes"/>
      <point x="303" y="720"/>
      <point x="296" y="709"/>
      <point x="296" y="695" type="curve"/>
      <point x="403" y="695"/>
      <point x="470" y="614"/>
      <point x="470" y="527" type="curve" smooth="yes"/>
      <point x="470" y="504" type="line" smooth="yes"/>
      <point x="470" y="398"/>
      <point x="371" y="338"/>
      <point x="204" y="338" type="curve" smooth="yes"/>
      <point x="175" y="338"/>
      <point x="159" y="341"/>
      <point x="141" y="350" type="curve"/>
      <point x="137" y="348"/>
      <point x="134" y="342"/>
      <point x="134" y="335" type="curve" smooth="yes"/>
      <point x="134" y="309"/>
      <point x="172" y="284"/>
      <point x="197" y="284" type="curve" smooth="yes"/>
      <point x="209" y="284" type="line" smooth="yes"/>
      <point x="381" y="284"/>
      <point x="526" y="355"/>
    </contour>
    <contour>
      <point x="524" y="181" type="curve" smooth="yes"/>
      <point x="524" y="215" type="line" smooth="yes"/>
      <point x="524" y="290"/>
      <point x="453" y="353"/>
      <point x="400" y="353" type="curve" smooth="yes"/>
      <point x="395" y="353" type="line" smooth="yes"/>
      <point x="377" y="353"/>
      <point x="352" y="338"/>
      <point x="352" y="328" type="curve"/>
      <point x="352" y="325" type="line"/>
      <point x="357" y="325" type="line"/>
      <point x="415" y="325"/>
      <point x="469" y="266"/>
      <point x="469" y="209" type="curve" smooth="yes"/>
      <point x="469" y="187" type="line" smooth="yes"/>
      <point x="469" y="93"/>
      <point x="372" y="45"/>
      <point x="275" y="45" type="curve" smooth="yes"/>
      <point x="170" y="45"/>
      <point x="143" y="55"/>
      <point x="115" y="76" type="curve"/>
      <point x="104" y="56"/>
      <point x="99" y="40"/>
      <point x="99" y="32" type="curve" smooth="yes"/>
      <point x="99" y="11"/>
      <point x="142" y="-10"/>
      <point x="274" y="-10" type="curve" smooth="yes"/>
      <point x="283" y="-10" type="line" smooth="yes"/>
      <point x="412" y="-10"/>
      <point x="524" y="61"/>
    </contour>
  </outline>
</glyph>
<glyph name="D" format="1">
  <advance width="650"/>
  <unicode hex="0044"/>
  <outline>
    <contour>
      <point x="155" y="20" type="curve"/>
      <point x="155" y="605" type="line" smooth="yes"/>
      <point x="155" y="658"/>
      <point x="138" y="680"/>
      <point x="99" y="680" type="curve"/>
      <point x="99" y="42" type="line" smooth="yes"/>
      <point x="99" y="31"/>
      <point x="120" y="20"/>
    </contour>
    <contour>
      <point x="50" y="700" type="curve"/>
      <point x="48" y="696"/>
      <point x="48" y="692"/>
      <point x="48" y="687" type="curve"/>
      <point x="48" y="669"/>
      <point x="52" y="658"/>
      <point x="60" y="650" type="curve" smooth="yes"/>
      <point x="64" y="646"/>
      <point x="70" y="645"/>
      <point x="74" y="645" type="curve" smooth="yes"/>
      <point x="82" y="645"/>
      <point x="91" y="646"/>
      <point x="103" y="648" type="curve" smooth="yes"/>
      <point x="157" y="657"/>
      <point x="235" y="665"/>
      <point x="290" y="665" type="curve"/>
      <point x="395" y="665"/>
      <point x="446" y="645"/>
      <point x="510" y="583" type="curve"/>
      <point x="542" y="617"/>
      <point x="433" y="720"/>
      <point x="290" y="720" type="curve" smooth="yes"/>
      <point x="216" y="720"/>
      <point x="145" y="716"/>
    </contour>
    <contour>
      <point x="576" y="377" type="curve" smooth="yes"/>
      <point x="576" y="408" type="line" smooth="yes"/>
      <point x="576" y="630"/>
      <point x="497" y="720"/>
      <point x="290" y="720" type="curve" smooth="yes"/>
      <point x="271" y="720"/>
      <point x="261" y="711"/>
      <point x="261" y="693" type="curve"/>
      <point x="494" y="692"/>
      <point x="520" y="564"/>
      <point x="520" y="398" type="curve" smooth="yes"/>
      <point x="520" y="385" type="line" smooth="yes"/>
      <point x="520" y="189"/>
      <point x="417" y="46"/>
      <point x="246" y="46" type="curve" smooth="yes"/>
      <point x="196" y="46"/>
      <point x="151" y="53"/>
      <point x="112" y="74" type="curve"/>
      <point x="103" y="66"/>
      <point x="99" y="57"/>
      <point x="99" y="42" type="curve" smooth="yes"/>
      <point x="99" y="13"/>
      <point x="151" y="-10"/>
      <point x="243" y="-10" type="curve" smooth="yes"/>
      <point x="248" y="-10" type="line" smooth="yes"/>
      <point x="443" y="-10"/>
      <point x="576" y="154"/>
    </contour>
    <contour>
      <point x="312" y="711" type="move" name="top"/>
    </contour>
  </outline>
</glyph>
<glyph name="F" format="1">
  <advance width="550"/>
  <unicode hex="0046"/>
  <outline>
    <contour>
      <point x="167" y="-7" type="curve"/>
      <point x="157" y="22"/>
      <point x="156" y="34"/>
      <point x="156" y="81" type="curve" smooth="yes"/>
      <point x="156" y="595" type="line"/>
      <point x="156" y="651"/>
      <point x="139" y="678"/>
      <point x="100" y="678" type="curve"/>
      <point x="100" y="41" type="line" smooth="yes"/>
      <point x="100" y="9"/>
      <point x="120" y="-7"/>
      <point x="160" y="-7" type="curve" smooth="yes"/>
      <point x="162" y="-7"/>
      <point x="164" y="-7"/>
    </contour>
    <contour>
      <point x="49" y="700" type="line"/>
      <point x="49" y="697"/>
      <point x="49" y="692"/>
      <point x="49" y="689" type="curve" smooth="yes"/>
      <point x="49" y="671"/>
      <point x="52" y="658"/>
      <point x="60" y="650" type="curve" smooth="yes"/>
      <point x="64" y="646"/>
      <point x="67" y="645"/>
      <point x="73" y="645" type="curve"/>
      <point x="498" y="645" type="line"/>
      <point x="500" y="650"/>
      <point x="501" y="657"/>
      <point x="501" y="664" type="curve" smooth="yes"/>
      <point x="501" y="674"/>
      <point x="499" y="686"/>
      <point x="490" y="695" type="curve" smooth="yes"/>
      <point x="487" y="698"/>
      <point x="483" y="700"/>
      <point x="477" y="700" type="curve"/>
    </contour>
    <contour>
      <point x="120" y="303" type="line"/>
      <point x="120" y="264"/>
      <point x="125" y="247"/>
      <point x="144" y="247" type="curve"/>
      <point x="460" y="247" type="line"/>
      <point x="460" y="251"/>
      <point x="461" y="255"/>
      <point x="461" y="258" type="curve"/>
      <point x="461" y="275"/>
      <point x="457" y="288"/>
      <point x="448" y="297" type="curve" smooth="yes"/>
      <point x="444" y="301"/>
      <point x="440" y="303"/>
      <point x="433" y="303" type="curve"/>
    </contour>
  </outline>
</glyph>
<glyph name="G" format="1">
  <advance width="650"/>
  <unicode hex="0047"/>
  <outline>
    <contour>
      <point x="387" y="665" type="curve" smooth="yes"/>
      <point x="489" y="665"/>
      <point x="518" y="625"/>
      <point x="518" y="560" type="curve"/>
      <point x="536" y="560"/>
      <point x="546" y="578"/>
      <point x="546" y="588" type="curve" smooth="yes"/>
      <point x="546" y="621"/>
      <point x="536" y="653"/>
      <point x="512" y="677" type="curve" smooth="yes"/>
      <point x="486" y="703"/>
      <point x="444" y="720"/>
      <point x="386" y="720" type="curve" smooth="yes"/>
      <point x="199" y="720"/>
      <point x="74" y="534"/>
      <point x="74" y="253" type="curve" smooth="yes"/>
      <point x="74" y="227" type="line" smooth="yes"/>
      <point x="74" y="182"/>
      <point x="111" y="118"/>
      <point x="149" y="102" type="curve"/>
      <point x="137" y="140"/>
      <point x="131" y="183"/>
      <point x="131" y="228" type="curve" smooth="yes"/>
      <point x="131" y="251" type="line" smooth="yes"/>
      <point x="131" y="497"/>
      <point x="237" y="665"/>
    </contour>
    <contour>
      <point x="323" y="35" type="curve" smooth="yes"/>
      <point x="198" y="35"/>
      <point x="121" y="131"/>
      <point x="121" y="285" type="curve"/>
      <point x="94" y="285"/>
      <point x="74" y="261"/>
      <point x="74" y="227" type="curve" smooth="yes"/>
      <point x="74" y="85"/>
      <point x="177" y="-20"/>
      <point x="323" y="-20" type="curve" smooth="yes"/>
      <point x="460" y="-20"/>
      <point x="555" y="64"/>
      <point x="555" y="186" type="curve" smooth="yes"/>
      <point x="555" y="193" type="line" smooth="yes"/>
      <point x="555" y="246"/>
      <point x="537" y="279"/>
      <point x="494" y="279" type="curve"/>
      <point x="500" y="257"/>
      <point x="503" y="231"/>
      <point x="503" y="198" type="curve" smooth="yes"/>
      <point x="503" y="101"/>
      <point x="429" y="35"/>
    </contour>
    <contour>
      <point x="316" y="303" type="line"/>
      <point x="314" y="300"/>
      <point x="313" y="294"/>
      <point x="313" y="288" type="curve" smooth="yes"/>
      <point x="313" y="274"/>
      <point x="316" y="264"/>
      <point x="324" y="256" type="curve" smooth="yes"/>
      <point x="329" y="251"/>
      <point x="336" y="249"/>
      <point x="345" y="249" type="curve"/>
      <point x="601" y="249" type="line"/>
      <point x="601" y="259" type="line" smooth="yes"/>
      <point x="601" y="289"/>
      <point x="592" y="303"/>
      <point x="575" y="303" type="curve" smooth="yes"/>
    </contour>
    <contour>
      <point x="546" y="478" type="curve"/>
      <point x="546" y="588" type="line" smooth="yes"/>
      <point x="546" y="641"/>
      <point x="498" y="683"/>
      <point x="463" y="672" type="curve"/>
      <point x="484" y="641"/>
      <point x="491" y="611"/>
      <point x="491" y="591" type="curve" smooth="yes"/>
      <point x="491" y="504" type="line" smooth="yes"/>
      <point x="491" y="484"/>
      <point x="501" y="476"/>
      <point x="530" y="476" type="curve" smooth="yes"/>
      <point x="536" y="476"/>
      <point x="541" y="477"/>
    </contour>
    <contour>
      <point x="337" y="711" type="move" name="top"/>
    </contour>
    <contour>
      <point x="337" y="-1" type="move" name="bottom"/>
    </contour>
  </outline>
</glyph>
<glyph name="H" format="1">
  <advance width="650"/>
  <unicode hex="0048"/>
  <outline>
    <contour>
      <point x="101" y="707" type="curve"/>
      <point x="107" y="672"/>
      <point x="108" y="637"/>
      <point x="108" y="599" type="curve" smooth="yes"/>
      <point x="108" y="15" type="line" smooth="yes"/>
      <point x="108" y="-4"/>
      <point x="127" y="-10"/>
      <point x="153" y="-10" type="curve" smooth="yes"/>
      <point x="156" y="-10"/>
      <point x="161" y="-10"/>
      <point x="164" y="-10" type="curve"/>
      <point x="164" y="649" type="line" smooth="yes"/>
      <point x="164" y="672"/>
      <point x="162" y="689"/>
      <point x="150" y="701" type="curve" smooth="yes"/>
      <point x="144" y="707"/>
      <point x="136" y="710"/>
      <point x="120" y="710" type="curve" smooth="yes"/>
      <point x="113" y="710"/>
      <point x="108" y="709"/>
    </contour>
    <contour>
      <point x="559" y="-7" type="curve"/>
      <point x="553" y="28"/>
      <point x="552" y="63"/>
      <point x="552" y="101" type="curve" smooth="yes"/>
      <point x="552" y="685" type="line" smooth="yes"/>
      <point x="552" y="704"/>
      <point x="532" y="710"/>
      <point x="506" y="710" type="curve" smooth="yes"/>
      <point x="503" y="710"/>
      <point x="499" y="710"/>
      <point x="496" y="710" type="curve"/>
      <point x="496" y="51" type="line" smooth="yes"/>
      <point x="496" y="28"/>
      <point x="498" y="11"/>
      <point x="510" y="-1" type="curve" smooth="yes"/>
      <point x="516" y="-7"/>
      <point x="524" y="-10"/>
      <point x="540" y="-10" type="curve" smooth="yes"/>
      <point x="547" y="-10"/>
      <point x="552" y="-9"/>
    </contour>
    <contour>
      <point x="49" y="305" type="line"/>
      <point x="49" y="295" type="line" smooth="yes"/>
      <point x="49" y="277"/>
      <point x="52" y="264"/>
      <point x="61" y="255" type="curve" smooth="yes"/>
      <point x="64" y="252"/>
      <point x="68" y="250"/>
      <point x="73" y="250" type="curve"/>
      <point x="526" y="250" type="line"/>
      <point x="526" y="291"/>
      <point x="497" y="305"/>
      <point x="447" y="305" type="curve" smooth="yes"/>
    </contour>
    <contour>
      <point x="303" y="711" type="move" name="top"/>
    </contour>
  </outline>
</glyph>
<glyph name="I" format="1">
  <advance width="500"/>
  <unicode hex="0049"/>
  <outline>
    <contour>
      <point x="278" y="28" type="curve"/>
      <point x="278" y="595" type="line" smooth="yes"/>
      <point x="278" y="646"/>
      <point x="264" y="670"/>
      <point x="222" y="670" type="curve"/>
      <point x="222" y="105" type="line" smooth="yes"/>
      <point x="222" y="54"/>
      <point x="236" y="28"/>
    </contour>
    <contour>
      <point x="72" y="700" type="line"/>
      <point x="69" y="696"/>
      <point x="68" y="689"/>
      <point x="68" y="683" type="curve"/>
      <point x="68" y="669"/>
      <point x="72" y="659"/>
      <point x="79" y="652" type="curve" smooth="yes"/>
      <point x="84" y="647"/>
      <point x="91" y="645"/>
      <point x="100" y="645" type="curve" smooth="yes"/>
      <point x="429" y="645" type="line"/>
      <point x="431" y="649"/>
      <point x="432" y="656"/>
      <point x="432" y="661" type="curve" smooth="yes"/>
      <point x="432" y="686"/>
      <point x="424" y="700"/>
      <point x="407" y="700" type="curve" smooth="yes"/>
    </contour>
    <contour>
      <point x="72" y="55" type="line"/>
      <point x="69" y="51"/>
      <point x="68" y="44"/>
      <point x="68" y="37" type="curve"/>
      <point x="68" y="24"/>
      <point x="71" y="14"/>
      <point x="79" y="7" type="curve" smooth="yes"/>
      <point x="84" y="2"/>
      <point x="89" y="0"/>
      <point x="97" y="0" type="curve" smooth="yes"/>
      <point x="431" y="0" type="line"/>
      <point x="432" y="4"/>
      <point x="432" y="9"/>
      <point x="432" y="13" type="curve" smooth="yes"/>
      <point x="432" y="41"/>
      <point x="424" y="55"/>
      <point x="407" y="55" type="curve" smooth="yes"/>
    </contour>
    <contour>
      <point x="250" y="711" type="move" name="top"/>
    </contour>
    <contour>
      <point x="432" y="0" type="move" name="ogonek"/>
    </contour>
    <contour>
      <point x="250" y="-1" type="move" name="bottom"/>
    </contour>
  </outline>
</glyph>
<glyph name="J" format="1">
  <advance width="500"/>
  <unicode hex="004A"/>
  <outline>
    <contour>
      <point x="75" y="700" type="line"/>
      <point x="75" y="697"/>
      <point x="75" y="692"/>
      <point x="75" y="689" type="curve" smooth="yes"/>
      <point x="75" y="671"/>
      <point x="78" y="659"/>
      <point x="87" y="651" type="curve" smooth="yes"/>
      <point x="91" y="647"/>
      <point x="96" y="645"/>
      <point x="104" y="645" type="curve" smooth="yes"/>
      <point x="391" y="645" type="line"/>
      <point x="391" y="685"/>
      <point x="384" y="700"/>
      <point x="365" y="700" type="curve"/>
    </contour>
    <contour>
      <point x="417" y="201" type="curve" smooth="yes"/>
      <point x="417" y="676" type="line" smooth="yes"/>
      <point x="417" y="691"/>
      <point x="403" y="700"/>
      <point x="373" y="700" type="curve" smooth="yes"/>
      <point x="361" y="700" type="line"/>
      <point x="361" y="230" type="line" smooth="yes"/>
      <point x="361" y="129"/>
      <point x="341" y="82"/>
      <point x="281" y="28" type="curve"/>
      <point x="336" y="10"/>
      <point x="417" y="95"/>
    </contour>
    <contour>
      <point x="211" y="35" type="curve" smooth="yes"/>
      <point x="134" y="35"/>
      <point x="109" y="44"/>
      <point x="54" y="75" type="curve"/>
      <point x="50" y="75" type="line"/>
      <point x="50" y="70"/>
      <point x="49" y="64"/>
      <point x="49" y="59" type="curve"/>
      <point x="49" y="40"/>
      <point x="53" y="21"/>
      <point x="62" y="12" type="curve" smooth="yes"/>
      <point x="85" y="-11"/>
      <point x="129" y="-20"/>
      <point x="205" y="-20" type="curve" smooth="yes"/>
      <point x="210" y="-20" type="line" smooth="yes"/>
      <point x="335" y="-20"/>
      <point x="417" y="67"/>
      <point x="417" y="201" type="curve"/>
      <point x="417" y="213"/>
      <point x="411" y="233"/>
      <point x="382" y="235" type="curve"/>
      <point x="382" y="75"/>
      <point x="305" y="35"/>
    </contour>
    <contour>
      <point x="248" y="711" type="move" name="top"/>
    </contour>
  </outline>
</glyph>
<glyph name="L" format="1">
  <advance width="550"/>
  <unicode hex="004C"/>
  <outline>
    <contour>
      <point x="154" y="23" type="curve"/>
      <point x="154" y="649" type="line" smooth="yes"/>
      <point x="154" y="672"/>
      <point x="152" y="689"/>
      <point x="140" y="701" type="curve" smooth="yes"/>
      <point x="134" y="707"/>
      <point x="126" y="710"/>
      <point x="110" y="710" type="curve" smooth="yes"/>
      <point x="103" y="710"/>
      <point x="98" y="709"/>
      <point x="91" y="707" type="curve"/>
      <point x="97" y="672"/>
      <point x="98" y="637"/>
      <point x="98" y="599" type="curve" smooth="yes"/>
      <point x="98" y="48" type="line" smooth="yes"/>
      <point x="98" y="27"/>
      <point x="125" y="23"/>
    </contour>
    <contour>
      <point x="98" y="55" type="line"/>
      <point x="98" y="45" type="line" smooth="yes"/>
      <point x="98" y="24"/>
      <point x="115" y="0"/>
      <point x="132" y="0" type="curve" smooth="yes"/>
      <point x="491" y="0" type="line"/>
      <point x="492" y="4"/>
      <point x="492" y="9"/>
      <point x="492" y="13" type="curve" smooth="yes"/>
      <point x="492" y="42"/>
      <point x="483" y="55"/>
      <point x="467" y="55" type="curve" smooth="yes"/>
    </contour>
    <contour>
      <point x="382" y="551" type="move" name="caronslovak"/>
    </contour>
    <contour>
      <point x="127" y="711" type="move" name="top"/>
    </contour>
    <contour>
      <point x="441" y="400" type="move" name="dot"/>
    </contour>
    <contour>
      <point x="291" y="-1" type="move" name="bottom"/>
    </contour>
  </outline>
</glyph>
<glyph name="M" format="1">
  <advance width="800"/>
  <unicode hex="004D"/>
  <outline>
    <contour>
      <point x="134" y="-10" type="curve"/>
      <point x="134" y="10"/>
      <point x="134" y="32"/>
      <point x="134" y="56" type="curve" smooth="yes"/>
      <point x="134" y="222"/>
      <point x="146" y="483"/>
      <point x="184" y="684" type="curve" smooth="yes"/>
      <point x="185" y="690"/>
      <point x="182" y="695"/>
      <point x="178" y="698" type="curve" smooth="yes"/>
      <point x="170" y="707"/>
      <point x="156" y="710"/>
      <point x="138" y="710" type="curve" smooth="yes"/>
      <point x="131" y="710"/>
      <point x="125" y="709"/>
      <point x="118" y="708" type="curve"/>
      <point x="121" y="666"/>
      <point x="120" y="649"/>
      <point x="113" y="600" type="curve" smooth="yes"/>
      <point x="87" y="405"/>
      <point x="78" y="231"/>
      <point x="78" y="15" type="curve" smooth="yes"/>
      <point x="78" y="10"/>
      <point x="80" y="4"/>
      <point x="84" y="1" type="curve" smooth="yes"/>
      <point x="91" y="-7"/>
      <point x="104" y="-10"/>
      <point x="123" y="-10" type="curve" smooth="yes"/>
      <point x="126" y="-10"/>
      <point x="131" y="-10"/>
    </contour>
    <contour>
      <point x="724" y="-6" type="curve"/>
      <point x="715" y="32"/>
      <point x="713" y="73"/>
      <point x="712" y="112" type="curve" smooth="yes"/>
      <point x="707" y="328"/>
      <point x="689" y="495"/>
      <point x="664" y="669" type="curve"/>
      <point x="662" y="685"/>
      <point x="659" y="694"/>
      <point x="652" y="699" type="curve" smooth="yes"/>
      <point x="644" y="707"/>
      <point x="617" y="710"/>
      <point x="600" y="710" type="curve" smooth="yes"/>
      <point x="597" y="710" type="line"/>
      <point x="599" y="697"/>
      <point x="602" y="684"/>
      <point x="604" y="671" type="curve"/>
      <point x="638" y="469"/>
      <point x="651" y="276"/>
      <point x="655" y="143" type="curve" smooth="yes"/>
      <point x="657" y="105"/>
      <point x="657" y="72"/>
      <point x="656" y="45" type="curve" smooth="yes"/>
      <point x="656" y="14"/>
      <point x="662" y="6"/>
      <point x="669" y="0" type="curve" smooth="yes"/>
      <point x="675" y="-7"/>
      <point x="684" y="-10"/>
      <point x="700" y="-10" type="curve" smooth="yes"/>
      <point x="709" y="-10"/>
      <point x="716" y="-9"/>
    </contour>
    <contour>
      <point x="214" y="684" type="curve" smooth="yes"/>
      <point x="211" y="698"/>
      <point x="182" y="710"/>
      <point x="147" y="710" type="curve"/>
      <point x="140" y="710" type="line"/>
      <point x="156" y="699"/>
      <point x="165" y="688"/>
      <point x="168" y="669" type="curve" smooth="yes"/>
      <point x="209" y="384"/>
      <point x="329" y="169"/>
      <point x="378" y="120" type="curve"/>
      <point x="384" y="114"/>
      <point x="391" y="112"/>
      <point x="408" y="112" type="curve" smooth="yes"/>
      <point x="416" y="112"/>
      <point x="420" y="132"/>
      <point x="418" y="155" type="curve"/>
      <point x="320" y="304"/>
      <point x="267" y="434"/>
    </contour>
    <contour>
      <point x="573" y="708" type="curve"/>
      <point x="527" y="454"/>
      <point x="472" y="296"/>
      <point x="389" y="169" type="curve"/>
      <point x="378" y="153"/>
      <point x="394" y="112"/>
      <point x="408" y="112" type="curve"/>
      <point x="418" y="112" type="line"/>
      <point x="541" y="292"/>
      <point x="613" y="571"/>
      <point x="613" y="682" type="curve" smooth="yes"/>
      <point x="613" y="699"/>
      <point x="610" y="710"/>
      <point x="597" y="710" type="curve" smooth="yes"/>
      <point x="589" y="710"/>
      <point x="582" y="710"/>
    </contour>
  </outline>
</glyph>
<glyph name="O" format="1">
  <advance width="650"/>
  <unicode hex="004F"/>
  <outline>
    <contour>
      <point x="329" y="720" type="curve" smooth="yes"/>
      <point x="171" y="720"/>
      <point x="74" y="598"/>
      <point x="74" y="364" type="curve" smooth="yes"/>
      <point x="74" y="316" type="line" smooth="yes"/>
      <point x="74" y="88"/>
      <point x="156" y="-20"/>
      <point x="320" y="-20" type="curve" smooth="yes"/>
      <point x="336" y="-20"/>
      <point x="346" y="-6"/>
      <point x="346" y="15" type="curve"/>
      <point x="200" y="21"/>
      <point x="129" y="120"/>
      <point x="129" y="321" type="curve" smooth="yes"/>
      <point x="129" y="363" type="line" smooth="yes"/>
      <point x="129" y="567"/>
      <point x="205" y="665"/>
      <point x="333" y="665" type="curve" smooth="yes"/>
      <point x="373" y="665"/>
      <point x="412" y="656"/>
      <point x="456" y="636" type="curve"/>
      <point x="488" y="667"/>
      <point x="409" y="720"/>
    </contour>
    <contour>
      <point x="320" y="-20" type="curve" smooth="yes"/>
      <point x="479" y="-20"/>
      <point x="576" y="102"/>
      <point x="576" y="336" type="curve" smooth="yes"/>
      <point x="576" y="384" type="line" smooth="yes"/>
      <point x="576" y="609"/>
      <point x="489" y="720"/>
      <point x="329" y="720" type="curve" smooth="yes"/>
      <point x="314" y="720"/>
      <point x="304" y="706"/>
      <point x="304" y="685" type="curve"/>
      <point x="450" y="679"/>
      <point x="521" y="580"/>
      <point x="521" y="379" type="curve" smooth="yes"/>
      <point x="521" y="337" type="line" smooth="yes"/>
      <point x="521" y="133"/>
      <point x="445" y="35"/>
      <point x="317" y="35" type="curve" smooth="yes"/>
      <point x="278" y="35"/>
      <point x="241" y="45"/>
      <point x="198" y="64" type="curve"/>
      <point x="162" y="28"/>
      <point x="244" y="-20"/>
    </contour>
    <contour>
      <point x="325" y="711" type="move" name="top"/>
    </contour>
    <contour>
      <point x="422" y="11" type="move" name="ogonek"/>
    </contour>
    <contour>
      <point x="325" y="-1" type="move" name="bottom"/>
    </contour>
  </outline>
</glyph>
<glyph name="Q" format="1">
  <advance width="650"/>
  <unicode hex="0051"/>
  <outline>
    <contour>
      <point x="329" y="720" type="curve" smooth="yes"/>
      <point x="171" y="720"/>
      <point x="74" y="598"/>
      <point x="74" y="364" type="curve" smooth="yes"/>
      <point x="74" y="316" type="line" smooth="yes"/>
      <point x="74" y="88"/>
      <point x="156" y="-20"/>
      <point x="320" y="-20" type="curve" smooth="yes"/>
      <point x="336" y="-20"/>
      <point x="346" y="-6"/>
      <point x="346" y="15" type="curve"/>
      <point x="200" y="21"/>
      <point x="129" y="120"/>
      <point x="129" y="321" type="curve" smooth="yes"/>
      <point x="129" y="363" type="line" smooth="yes"/>
      <point x="129" y="567"/>
      <point x="205" y="665"/>
      <point x="333" y="665" type="curve" smooth="yes"/>
      <point x="373" y="665"/>
      <point x="412" y="656"/>
      <point x="456" y="636" type="curve"/>
      <point x="488" y="667"/>
      <point x="409" y="720"/>
    </contour>
    <contour>
      <point x="320" y="-20" type="curve" smooth="yes"/>
      <point x="479" y="-20"/>
      <point x="576" y="102"/>
      <point x="576" y="336" type="curve" smooth="yes"/>
      <point x="576" y="384" type="line" smooth="yes"/>
      <point x="576" y="609"/>
      <point x="490" y="720"/>
      <point x="329" y="720" type="curve" smooth="yes"/>
      <point x="314" y="720"/>
      <point x="304" y="706"/>
      <point x="304" y="685" type="curve"/>
      <point x="450" y="679"/>
      <point x="521" y="580"/>
      <point x="521" y="379" type="curve" smooth="yes"/>
      <point x="521" y="337" type="line" smooth="yes"/>
      <point x="521" y="133"/>
      <point x="445" y="35"/>
      <point x="317" y="35" type="curve" smooth="yes"/>
      <point x="278" y="35"/>
      <point x="241" y="45"/>
      <point x="198" y="64" type="curve"/>
      <point x="162" y="28"/>
      <point x="244" y="-20"/>
    </contour>
    <contour>
      <point x="435" y="51" type="line"/>
      <point x="409" y="33"/>
      <point x="396" y="13"/>
      <point x="402" y="5" type="curve" smooth="yes"/>
      <point x="463" y="-78" type="line" smooth="yes"/>
      <point x="504" y="-133"/>
      <point x="534" y="-156"/>
      <point x="573" y="-156" type="curve" smooth="yes"/>
      <point x="576" y="-156" type="line" smooth="yes"/>
      <point x="614" y="-156"/>
      <point x="630" y="-136"/>
      <point x="630" y="-104" type="curve" smooth="yes"/>
      <point x="630" y="-92"/>
      <point x="629" y="-81"/>
      <point x="627" y="-72" type="curve"/>
      <point x="623" y="-72" type="line"/>
      <point x="613" y="-83"/>
      <point x="598" y="-89"/>
      <point x="581" y="-89" type="curve" smooth="yes"/>
      <point x="558" y="-89"/>
      <point x="535" y="-78"/>
      <point x="511" y="-47" type="curve" smooth="yes"/>
    </contour>
  </outline>
</glyph>
<glyph name="U" format="1">
  <advance width="650"/>
  <unicode hex="0055"/>
  <outline>
    <contour>
      <point x="79" y="706" type="curve"/>
      <point x="89" y="671"/>
      <point x="93" y="628"/>
      <point x="93" y="571" type="curve" smooth="yes"/>
      <point x="93" y="159" type="line"/>
      <point x="93" y="120"/>
      <point x="109" y="99"/>
      <point x="138" y="118" type="curve"/>
      <point x="148" y="282"/>
      <point x="155" y="388"/>
      <point x="155" y="543" type="curve"/>
      <point x="155" y="547" type="line"/>
      <point x="155" y="672"/>
      <point x="132" y="710"/>
      <point x="102" y="710" type="curve"/>
      <point x="93" y="710"/>
      <point x="87" y="709"/>
    </contour>
    <contour>
      <point x="252" y="-19" type="curve" smooth="yes"/>
      <point x="348" y="-19"/>
      <point x="423" y="25"/>
      <point x="499" y="124" type="curve" smooth="yes"/>
      <point x="518" y="152"/>
      <point x="521" y="176"/>
      <point x="516" y="207" type="curve"/>
      <point x="406" y="75"/>
      <point x="345" y="37"/>
      <point x="261" y="37" type="curve" smooth="yes"/>
      <point x="184" y="37"/>
      <point x="145" y="83"/>
      <point x="136" y="195" type="curve"/>
      <point x="101" y="186"/>
      <point x="93" y="172"/>
      <point x="93" y="159" type="curve" smooth="yes"/>
      <point x="93" y="63"/>
      <point x="150" y="-19"/>
    </contour>
    <contour>
      <point x="559" y="-7" type="curve"/>
      <point x="553" y="28"/>
      <point x="552" y="63"/>
      <point x="552" y="100" type="curve" smooth="yes"/>
      <point x="552" y="685" type="line" smooth="yes"/>
      <point x="552" y="704"/>
      <point x="533" y="710"/>
      <point x="508" y="710" type="curve" smooth="yes"/>
      <point x="504" y="710"/>
      <point x="499" y="710"/>
      <point x="496" y="710" type="curve"/>
      <point x="496" y="52" type="line" smooth="yes"/>
      <point x="496" y="29"/>
      <point x="498" y="11"/>
      <point x="511" y="-1" type="curve" smooth="yes"/>
      <point x="516" y="-7"/>
      <point x="525" y="-10"/>
      <point x="540" y="-10" type="curve" smooth="yes"/>
      <point x="547" y="-10"/>
      <point x="552" y="-9"/>
    </contour>
    <contour>
      <point x="319" y="711" type="move" name="top"/>
    </contour>
    <contour>
      <point x="560" y="-7" type="move" name="ogonek"/>
    </contour>
    <contour>
      <point x="319" y="702" type="move" name="ring"/>
    </contour>
    <contour>
      <point x="319" y="-1" type="move" name="bottom"/>
    </contour>
  </outline>
</glyph>
<glyph name="V" format="1">
  <advance width="650"/>
  <unicode hex="0056"/>
  <outline>
    <contour>
      <point x="73" y="710" type="curve"/>
      <point x="62" y="710" type="line"/>
      <point x="81" y="299"/>
      <point x="134" y="153"/>
      <point x="272" y="15" type="curve"/>
      <point x="290" y="-2"/>
      <point x="304" y="-10"/>
      <point x="322" y="-10" type="curve"/>
      <point x="345" y="-10"/>
      <point x="359" y="2"/>
      <point x="368" y="20" type="curve"/>
      <point x="361" y="20"/>
      <point x="357" y="20"/>
      <point x="352" y="20" type="curve" smooth="yes"/>
      <point x="347" y="20"/>
      <point x="342" y="21"/>
      <point x="338" y="25" type="curve"/>
      <point x="192" y="169"/>
      <point x="137" y="293"/>
      <point x="120" y="689" type="curve"/>
      <point x="119" y="703"/>
      <point x="101" y="710"/>
    </contour>
    <contour>
      <point x="542" y="710" type="curve"/>
      <point x="531" y="710" type="line"/>
      <point x="507" y="299"/>
      <point x="465" y="164"/>
      <point x="312" y="27" type="curve"/>
      <point x="300" y="16"/>
      <point x="293" y="-10"/>
      <point x="322" y="-10" type="curve"/>
      <point x="353" y="-10" type="line"/>
      <point x="512" y="128"/>
      <point x="565" y="299"/>
      <point x="586" y="680" type="curve"/>
      <point x="587" y="695"/>
      <point x="570" y="710"/>
    </contour>
  </outline>
</glyph>
<glyph name="W" format="1">
  <advance width="900"/>
  <unicode hex="0057"/>
  <outline>
    <contour>
      <point x="62" y="710" type="curve"/>
      <point x="77" y="312"/>
      <point x="115" y="165"/>
      <point x="200" y="36" type="curve"/>
      <point x="221" y="5"/>
      <point x="242" y="-10"/>
      <point x="260" y="-10" type="curve"/>
      <point x="274" y="-10" type="line" smooth="yes"/>
      <point x="279" y="-10"/>
      <point x="283" y="7"/>
      <point x="283" y="22" type="curve"/>
      <point x="181" y="148"/>
      <point x="148" y="247"/>
      <point x="121" y="678" type="curve"/>
      <point x="120" y="693"/>
      <point x="119" y="696"/>
      <point x="115" y="700" type="curve" smooth="yes"/>
      <point x="108" y="707"/>
      <point x="92" y="710"/>
      <point x="72" y="710" type="curve"/>
      <point x="69" y="710"/>
      <point x="65" y="710"/>
    </contour>
    <contour>
      <point x="784" y="710" type="curve"/>
      <point x="763" y="319"/>
      <point x="736" y="178"/>
      <point x="624" y="27" type="curve"/>
      <point x="617" y="13"/>
      <point x="616" y="-10"/>
      <point x="638" y="-10" type="curve"/>
      <point x="667" y="-10" type="line"/>
      <point x="792" y="138"/>
      <point x="823" y="352"/>
      <point x="837" y="678" type="curve" smooth="yes"/>
      <point x="837" y="688"/>
      <point x="837" y="692"/>
      <point x="832" y="696" type="curve" smooth="yes"/>
      <point x="826" y="702"/>
      <point x="812" y="710"/>
      <point x="794" y="710" type="curve"/>
      <point x="791" y="710"/>
      <point x="787" y="710"/>
    </contour>
    <contour>
      <point x="447" y="611" type="curve"/>
      <point x="416" y="611" type="line"/>
      <point x="374" y="302"/>
      <point x="332" y="169"/>
      <point x="250" y="25" type="curve"/>
      <point x="238" y="7"/>
      <point x="243" y="-10"/>
      <point x="260" y="-10" type="curve"/>
      <point x="291" y="-10" type="line"/>
      <point x="377" y="134"/>
      <point x="427" y="300"/>
      <point x="458" y="575" type="curve" smooth="yes"/>
      <point x="461" y="600"/>
      <point x="455" y="611"/>
    </contour>
    <contour>
      <point x="448" y="611" type="curve"/>
      <point x="438" y="611" type="line"/>
      <point x="474" y="290"/>
      <point x="522" y="142"/>
      <point x="594" y="10" type="curve" smooth="yes"/>
      <point x="603" y="-4"/>
      <point x="616" y="-10"/>
      <point x="638" y="-10" type="curve"/>
      <point x="651" y="-10" type="line"/>
      <point x="654" y="-10"/>
      <point x="661" y="2"/>
      <point x="651" y="23" type="curve"/>
      <point x="567" y="178"/>
      <point x="530" y="298"/>
      <point x="492" y="586" type="curve" smooth="yes"/>
      <point x="489" y="600"/>
      <point x="475" y="611"/>
    </contour>
    <contour>
      <point x="449" y="711" type="move" name="top"/>
    </contour>
  </outline>
</glyph>
<glyph name="X" format="1">
  <advance width="650"/>
  <unicode hex="0058"/>
  <outline>
    <contour>
      <point x="584" y="-6" type="curve" smooth="yes"/>
      <point x="596" y="-6"/>
      <point x="608" y="-4"/>
      <point x="618" y="0" type="curve"/>
      <point x="528" y="77"/>
      <point x="426" y="194"/>
      <point x="336" y="315" type="curve" smooth="yes"/>
      <point x="331" y="321"/>
      <point x="327" y="327"/>
      <point x="323" y="333" type="curve" smooth="yes"/>
      <point x="226" y="464"/>
      <point x="144" y="599"/>
      <point x="106" y="691" type="curve" smooth="yes"/>
      <point x="101" y="703"/>
      <point x="82" y="706"/>
      <point x="47" y="706" type="curve" smooth="yes"/>
      <point x="34" y="706" type="line"/>
      <point x="85" y="581"/>
      <point x="180" y="431"/>
      <point x="278" y="299" type="curve" smooth="yes"/>
      <point x="282" y="292"/>
      <point x="288" y="286"/>
      <point x="292" y="280" type="curve" smooth="yes"/>
      <point x="378" y="167"/>
      <point x="465" y="68"/>
      <point x="528" y="11" type="curve" smooth="yes"/>
      <point x="540" y="-1"/>
      <point x="561" y="-6"/>
    </contour>
    <contour>
      <point x="558" y="706" type="curve" smooth="yes"/>
      <point x="551" y="706" type="line"/>
      <point x="499" y="553"/>
      <point x="429" y="445"/>
      <point x="297" y="325" type="curve"/>
      <point x="276" y="305"/>
      <point x="305" y="286"/>
      <point x="334" y="291" type="curve"/>
      <point x="462" y="403"/>
      <point x="543" y="520"/>
      <point x="602" y="683" type="curve"/>
      <point x="604" y="688"/>
      <point x="604" y="692"/>
      <point x="602" y="695" type="curve" smooth="yes"/>
      <point x="592" y="704"/>
      <point x="576" y="706"/>
    </contour>
    <contour>
      <point x="83" y="-6" type="curve"/>
      <point x="90" y="-6" type="line"/>
      <point x="143" y="102"/>
      <point x="222" y="199"/>
      <point x="317" y="284" type="curve"/>
      <point x="338" y="303"/>
      <point x="306" y="322"/>
      <point x="277" y="318" type="curve"/>
      <point x="172" y="220"/>
      <point x="92" y="127"/>
      <point x="37" y="21" type="curve" smooth="yes"/>
      <point x="33" y="13"/>
      <point x="34" y="8"/>
      <point x="37" y="4" type="curve" smooth="yes"/>
      <point x="44" y="-3"/>
      <point x="57" y="-6"/>
    </contour>
  </outline>
</glyph>
<glyph name="bracketleft" format="1">
  <advance width="400"/>
  <unicode hex="005B"/>
  <outline>
    <contour>
      <point x="50" y="649" type="curve" smooth="yes"/>
      <point x="50" y="-106" type="line" smooth="yes"/>
      <point x="50" y="-118"/>
      <point x="79" y="-120"/>
      <point x="106" y="-120" type="curve"/>
      <point x="106" y="718" type="line" smooth="yes"/>
      <point x="106" y="740"/>
      <point x="101" y="760"/>
      <point x="72" y="760" type="curve" smooth="yes"/>
      <point x="61" y="760"/>
      <point x="53" y="759"/>
      <point x="43" y="756" type="curve"/>
      <point x="49" y="721"/>
      <point x="50" y="687"/>
    </contour>
    <contour>
      <point x="354" y="705" type="line"/>
      <point x="356" y="710"/>
      <point x="357" y="717"/>
      <point x="357" y="724" type="curve" smooth="yes"/>
      <point x="357" y="733"/>
      <point x="355" y="746"/>
      <point x="346" y="755" type="curve" smooth="yes"/>
      <point x="343" y="758"/>
      <point x="339" y="760"/>
      <point x="333" y="760" type="curve" smooth="yes"/>
      <point x="72" y="760" type="line"/>
      <point x="72" y="731"/>
      <point x="80" y="705"/>
      <point x="141" y="705" type="curve"/>
    </contour>
    <contour>
      <point x="357" y="-161" type="line"/>
      <point x="357" y="-157"/>
      <point x="357" y="-152"/>
      <point x="357" y="-148" type="curve" smooth="yes"/>
      <point x="357" y="-119"/>
      <point x="348" y="-106"/>
      <point x="332" y="-106" type="curve" smooth="yes"/>
      <point x="50" y="-106" type="line"/>
      <point x="50" y="-116" type="line" smooth="yes"/>
      <point x="50" y="-137"/>
      <point x="67" y="-161"/>
      <point x="85" y="-161" type="curve" smooth="yes"/>
    </contour>
  </outline>
</glyph>
<glyph name="bracketright" format="1">
  <advance width="400"/>
  <unicode hex="005D"/>
  <outline>
    <contour>
      <point x="350" y="-50" type="curve" smooth="yes"/>
      <point x="350" y="705" type="line" smooth="yes"/>
      <point x="350" y="717"/>
      <point x="321" y="719"/>
      <point x="294" y="719" type="curve"/>
      <point x="294" y="-119" type="line" smooth="yes"/>
      <point x="294" y="-141"/>
      <point x="299" y="-161"/>
      <point x="328" y="-161" type="curve" smooth="yes"/>
      <point x="339" y="-161"/>
      <point x="347" y="-160"/>
      <point x="357" y="-157" type="curve"/>
      <point x="351" y="-122"/>
      <point x="350" y="-88"/>
    </contour>
    <contour>
      <point x="46" y="-106" type="line"/>
      <point x="44" y="-111"/>
      <point x="43" y="-118"/>
      <point x="43" y="-125" type="curve" smooth="yes"/>
      <point x="43" y="-134"/>
      <point x="45" y="-147"/>
      <point x="54" y="-156" type="curve" smooth="yes"/>
      <point x="57" y="-159"/>
      <point x="61" y="-161"/>
      <point x="67" y="-161" type="curve" smooth="yes"/>
      <point x="328" y="-161" type="line"/>
      <point x="328" y="-132"/>
      <point x="320" y="-106"/>
      <point x="259" y="-106" type="curve"/>
    </contour>
    <contour>
      <point x="43" y="760" type="line"/>
      <point x="43" y="756"/>
      <point x="43" y="751"/>
      <point x="43" y="747" type="curve" smooth="yes"/>
      <point x="43" y="718"/>
      <point x="52" y="705"/>
      <point x="68" y="705" type="curve" smooth="yes"/>
      <point x="350" y="705" type="line"/>
      <point x="350" y="715" type="line" smooth="yes"/>
      <point x="350" y="736"/>
      <point x="333" y="760"/>
      <point x="315" y="760" type="curve" smooth="yes"/>
    </contour>
  </outline>
</glyph>
<glyph name="grave" format="1">
  <advance width="350"/>
  <unicode hex="0060"/>
  <outline>
    <contour>
      <point x="256" y="407" type="curve"/>
      <point x="197" y="502"/>
      <point x="180" y="562"/>
      <point x="180" y="712" type="curve"/>
      <point x="169" y="718"/>
      <point x="158" y="720"/>
      <point x="143" y="720" type="curve" smooth="yes"/>
      <point x="119" y="720"/>
      <point x="94" y="712"/>
      <point x="94" y="683" type="curve" smooth="yes"/>
      <point x="94" y="550"/>
      <point x="141" y="453"/>
      <point x="191" y="403" type="curve" smooth="yes"/>
      <point x="197" y="397"/>
      <point x="203" y="395"/>
      <point x="214" y="395" type="curve" smooth="yes"/>
      <point x="232" y="395"/>
      <point x="243" y="398"/>
    </contour>
  </outline>
</glyph>
<glyph name="b" format="1">
  <advance width="600"/>
  <unicode hex="0062"/>
  <outline>
    <contour>
      <point x="108" y="0" type="line"/>
      <point x="112" y="-3"/>
      <point x="118" y="-4"/>
      <point x="127" y="-4" type="curve" smooth="yes"/>
      <point x="152" y="-4"/>
      <point x="163" y="12"/>
      <point x="163" y="36" type="curve" smooth="yes"/>
      <point x="163" y="690" type="line"/>
      <point x="163" y="739"/>
      <point x="150" y="760"/>
      <point x="123" y="760" type="curve" smooth="yes"/>
      <point x="113" y="760"/>
      <point x="105" y="759"/>
      <point x="94" y="754" type="curve"/>
      <point x="104" y="729"/>
      <point x="108" y="710"/>
      <point x="108" y="660" type="curve" smooth="yes"/>
    </contour>
    <contour>
      <point x="368" y="537" type="curve" smooth="yes"/>
      <point x="279" y="537"/>
      <point x="194" y="463"/>
      <point x="155" y="348" type="curve" smooth="yes"/>
      <point x="143" y="312"/>
      <point x="145" y="280"/>
      <point x="156" y="255" type="curve"/>
      <point x="225" y="423"/>
      <point x="295" y="481"/>
      <point x="372" y="481" type="curve" smooth="yes"/>
      <point x="431" y="481"/>
      <point x="475" y="418"/>
      <point x="486" y="318" type="curve"/>
      <point x="518" y="318"/>
      <point x="527" y="325"/>
      <point x="527" y="332" type="curve" smooth="yes"/>
      <point x="527" y="458"/>
      <point x="466" y="537"/>
    </contour>
    <contour>
      <point x="309" y="-10" type="curve" smooth="yes"/>
      <point x="444" y="-10"/>
      <point x="527" y="89"/>
      <point x="527" y="314" type="curve" smooth="yes"/>
      <point x="527" y="332" type="line" smooth="yes"/>
      <point x="527" y="386"/>
      <point x="493" y="468"/>
      <point x="462" y="468" type="curve"/>
      <point x="452" y="468"/>
      <point x="446" y="467"/>
      <point x="444" y="460" type="curve"/>
      <point x="468" y="412"/>
      <point x="471" y="369"/>
      <point x="471" y="323" type="curve" smooth="yes"/>
      <point x="471" y="314" type="line" smooth="yes"/>
      <point x="471" y="136"/>
      <point x="420" y="45"/>
      <point x="312" y="45" type="curve" smooth="yes"/>
      <point x="243" y="45"/>
      <point x="207" y="73"/>
      <point x="155" y="130" type="curve"/>
      <point x="149" y="129"/>
      <point x="145" y="114"/>
      <point x="146" y="106" type="curve" smooth="yes"/>
      <point x="148" y="52"/>
      <point x="223" y="-10"/>
    </contour>
  </outline>
</glyph>
<glyph name="c" format="1">
  <advance width="500"/>
  <unicode hex="0063"/>
  <outline>
    <contour>
      <point x="312" y="537" type="curve" smooth="yes"/>
      <point x="163" y="537"/>
      <point x="69" y="417"/>
      <point x="69" y="230" type="curve" smooth="yes"/>
      <point x="69" y="215" type="line" smooth="yes"/>
      <point x="69" y="70"/>
      <point x="154" y="-12"/>
      <point x="294" y="-10" type="curve" smooth="yes"/>
      <point x="303" y="-10"/>
      <point x="310" y="-4"/>
      <point x="310" y="26" type="curve"/>
      <point x="191" y="28"/>
      <point x="124" y="113"/>
      <point x="124" y="213" type="curve" smooth="yes"/>
      <point x="124" y="229" type="line" smooth="yes"/>
      <point x="124" y="374"/>
      <point x="187" y="481"/>
      <point x="304" y="481" type="curve" smooth="yes"/>
      <point x="363" y="481"/>
      <point x="396" y="466"/>
      <point x="434" y="429" type="curve"/>
      <point x="438" y="429" type="line"/>
      <point x="441" y="439"/>
      <point x="442" y="447"/>
      <point x="442" y="458" type="curve"/>
      <point x="442" y="477"/>
      <point x="439" y="490"/>
      <point x="427" y="501" type="curve" smooth="yes"/>
      <point x="404" y="525"/>
      <point x="364" y="537"/>
    </contour>
    <contour>
      <point x="294" y="-10" type="curve" smooth="yes"/>
      <point x="353" y="-10"/>
      <point x="407" y="9"/>
      <point x="429" y="31" type="curve" smooth="yes"/>
      <point x="442" y="44"/>
      <point x="445" y="62"/>
      <point x="445" y="85" type="curve"/>
      <point x="445" y="93"/>
      <point x="444" y="99"/>
      <point x="443" y="103" type="curve"/>
      <point x="439" y="103" type="line"/>
      <point x="402" y="65"/>
      <point x="364" y="45"/>
      <point x="293" y="45" type="curve" smooth="yes"/>
      <point x="226" y="45"/>
      <point x="185" y="64"/>
      <point x="134" y="120" type="curve"/>
      <point x="106" y="60"/>
      <point x="189" y="-10"/>
    </contour>
    <contour>
      <point x="278" y="538" type="move" name="top"/>
    </contour>
    <contour>
      <point x="278" y="-1" type="move" name="bottom"/>
    </contour>
  </outline>
</glyph>
<glyph name="f" format="1">
  <advance width="400"/>
  <unicode hex="0066"/>
  <outline>
    <contour>
      <point x="187" y="-6" type="curve"/>
      <point x="177" y="28"/>
      <point x="174" y="51"/>
      <point x="174" y="100" type="curve" smooth="yes"/>
      <point x="174" y="514" type="line" smooth="yes"/>
      <point x="173" y="537"/>
      <point x="173" y="551"/>
      <point x="173" y="573" type="curve" smooth="yes"/>
      <point x="173" y="680"/>
      <point x="213" y="730"/>
      <point x="313" y="730" type="curve"/>
      <point x="313" y="751"/>
      <point x="306" y="759"/>
      <point x="296" y="759" type="curve" smooth="yes"/>
      <point x="187" y="759"/>
      <point x="118" y="690"/>
      <point x="118" y="580" type="curve" smooth="yes"/>
      <point x="118" y="60" type="line" smooth="yes"/>
      <point x="118" y="2"/>
      <point x="137" y="-10"/>
      <point x="164" y="-10" type="curve" smooth="yes"/>
      <point x="173" y="-10"/>
      <point x="180" y="-9"/>
    </contour>
    <contour>
      <point x="162" y="639" type="curve"/>
      <point x="201" y="690"/>
      <point x="235" y="704"/>
      <point x="290" y="704" type="curve" smooth="yes"/>
      <point x="338" y="704"/>
      <point x="369" y="697"/>
      <point x="403" y="677" type="curve"/>
      <point x="407" y="677" type="line"/>
      <point x="409" y="683"/>
      <point x="410" y="690"/>
      <point x="410" y="698" type="curve"/>
      <point x="410" y="715"/>
      <point x="405" y="728"/>
      <point x="399" y="734" type="curve" smooth="yes"/>
      <point x="389" y="744"/>
      <point x="357" y="759"/>
      <point x="296" y="759" type="curve" smooth="yes"/>
      <point x="206" y="759"/>
      <point x="139" y="691"/>
    </contour>
    <contour>
      <point x="34" y="527" type="curve"/>
      <point x="34" y="524"/>
      <point x="34" y="519"/>
      <point x="34" y="516" type="curve" smooth="yes"/>
      <point x="34" y="498"/>
      <point x="37" y="486"/>
      <point x="46" y="478" type="curve" smooth="yes"/>
      <point x="50" y="474"/>
      <point x="55" y="471"/>
      <point x="63" y="471" type="curve" smooth="yes"/>
      <point x="164" y="471"/>
      <point x="276" y="471"/>
      <point x="376" y="471" type="curve"/>
      <point x="376" y="475"/>
      <point x="376" y="480"/>
      <point x="376" y="484" type="curve" smooth="yes"/>
      <point x="376" y="509"/>
      <point x="371" y="527"/>
      <point x="351" y="527" type="curve" smooth="yes"/>
      <point x="254" y="527"/>
      <point x="134" y="527"/>
    </contour>
  </outline>
</glyph>
<glyph name="h" format="1">
  <advance width="600"/>
  <unicode hex="0068"/>
  <outline>
    <contour>
      <point x="154" y="-5" type="curve"/>
      <point x="154" y="681" type="line" smooth="yes"/>
      <point x="154" y="710"/>
      <point x="152" y="732"/>
      <point x="139" y="745" type="curve" smooth="yes"/>
      <point x="129" y="756"/>
      <point x="117" y="758"/>
      <point x="104" y="758" type="curve" smooth="yes"/>
      <point x="99" y="758"/>
      <point x="93" y="757"/>
      <point x="87" y="755" type="curve"/>
      <point x="96" y="727"/>
      <point x="98" y="713"/>
      <point x="98" y="667" type="curve" smooth="yes"/>
      <point x="98" y="20" type="line" smooth="yes"/>
      <point x="98" y="0"/>
      <point x="118" y="-5"/>
      <point x="142" y="-5" type="curve" smooth="yes"/>
      <point x="146" y="-5"/>
      <point x="150" y="-5"/>
    </contour>
    <contour>
      <point x="377" y="538" type="curve" smooth="yes"/>
      <point x="288" y="538"/>
      <point x="204" y="447"/>
      <point x="146" y="330" type="curve" smooth="yes"/>
      <point x="131" y="297"/>
      <point x="129" y="262"/>
      <point x="145" y="221" type="curve"/>
      <point x="192" y="360"/>
      <point x="285" y="481"/>
      <point x="374" y="481" type="curve" smooth="yes"/>
      <point x="423" y="481"/>
      <point x="450" y="442"/>
      <point x="457" y="367" type="curve"/>
      <point x="497" y="369"/>
      <point x="502" y="383"/>
      <point x="502" y="396" type="curve" smooth="yes"/>
      <point x="502" y="471"/>
      <point x="455" y="538"/>
    </contour>
    <contour>
      <point x="513" y="0" type="curve"/>
      <point x="504" y="44"/>
      <point x="502" y="78"/>
      <point x="502" y="126" type="curve" smooth="yes"/>
      <point x="502" y="396" type="line"/>
      <point x="502" y="430"/>
      <point x="486" y="449"/>
      <point x="457" y="449" type="curve"/>
      <point x="447" y="292"/>
      <point x="443" y="238"/>
      <point x="443" y="135" type="curve" smooth="yes"/>
      <point x="443" y="130" type="line" smooth="yes"/>
      <point x="443" y="25"/>
      <point x="469" y="-2"/>
      <point x="499" y="-2" type="curve" smooth="yes"/>
      <point x="504" y="-2"/>
      <point x="509" y="-1"/>
    </contour>
    <contour>
      <point x="122" y="730" type="move" name="top"/>
    </contour>
  </outline>
</glyph>
<glyph name="i" format="1">
  <advance width="350"/>
  <unicode hex="0069"/>
  <outline>
    <contour>
      <point x="43" y="527" type="curve"/>
      <point x="43" y="523"/>
      <point x="43" y="519"/>
      <point x="43" y="514" type="curve" smooth="yes"/>
      <point x="43" y="485"/>
      <point x="51" y="472"/>
      <point x="67" y="472" type="curve" smooth="yes"/>
      <point x="79" y="472"/>
      <point x="122" y="482"/>
      <point x="196" y="482" type="curve"/>
      <point x="196" y="520"/>
      <point x="191" y="537"/>
      <point x="172" y="537" type="curve" smooth="yes"/>
      <point x="136" y="537"/>
      <point x="97" y="534"/>
    </contour>
    <contour>
      <point x="240" y="-6" type="curve"/>
      <point x="230" y="28"/>
      <point x="227" y="51"/>
      <point x="227" y="100" type="curve" smooth="yes"/>
      <point x="227" y="509" type="line" smooth="yes"/>
      <point x="227" y="524"/>
      <point x="217" y="537"/>
      <point x="181" y="537" type="curve" smooth="yes"/>
      <point x="172" y="537" type="line"/>
      <point x="172" y="60" type="line" smooth="yes"/>
      <point x="172" y="2"/>
      <point x="191" y="-10"/>
      <point x="217" y="-10" type="curve" smooth="yes"/>
      <point x="226" y="-10"/>
      <point x="233" y="-9"/>
    </contour>
    <contour>
      <point x="242" y="634" type="curve"/>
      <point x="242" y="687" type="line" smooth="yes"/>
      <point x="242" y="711"/>
      <point x="223" y="724"/>
      <point x="189" y="724" type="curve" smooth="yes"/>
      <point x="177" y="724"/>
      <point x="166" y="723"/>
      <point x="157" y="721" type="curve"/>
      <point x="157" y="667" type="line" smooth="yes"/>
      <point x="157" y="643"/>
      <point x="177" y="630"/>
      <point x="209" y="630" type="curve" smooth="yes"/>
      <point x="222" y="630"/>
      <point x="233" y="631"/>
    </contour>
    <contour>
      <point x="241" y="-6" type="move" name="ogonek"/>
    </contour>
    <contour>
      <point x="202" y="-1" type="move" name="bottom"/>
    </contour>
  </outline>
</glyph>
<glyph name="j" format="1">
  <advance width="350"/>
  <unicode hex="006A"/>
  <outline>
    <contour>
      <point x="49" y="527" type="curve"/>
      <point x="49" y="523"/>
      <point x="49" y="518"/>
      <point x="49" y="514" type="curve" smooth="yes"/>
      <point x="49" y="485"/>
      <point x="58" y="471"/>
      <point x="73" y="471" type="curve" smooth="yes"/>
      <point x="84" y="471"/>
      <point x="160" y="482"/>
      <point x="220" y="482" type="curve"/>
      <point x="220" y="521"/>
      <point x="215" y="537"/>
      <point x="196" y="537" type="curve" smooth="yes"/>
      <point x="167" y="537"/>
      <point x="93" y="531"/>
    </contour>
    <contour>
      <point x="252" y="-43" type="curve" smooth="yes"/>
      <point x="252" y="511" type="line" smooth="yes"/>
      <point x="252" y="517"/>
      <point x="250" y="521"/>
      <point x="246" y="525" type="curve" smooth="yes"/>
      <point x="237" y="533"/>
      <point x="219" y="537"/>
      <point x="201" y="537" type="curve" smooth="yes"/>
      <point x="196" y="537" type="line"/>
      <point x="196" y="-33" type="line" smooth="yes"/>
      <point x="196" y="-114"/>
      <point x="183" y="-156"/>
      <point x="135" y="-201" type="curve"/>
      <point x="184" y="-217"/>
      <point x="252" y="-141"/>
    </contour>
    <contour>
      <point x="95" y="-195" type="curve" smooth="yes"/>
      <point x="60" y="-195"/>
      <point x="43" y="-189"/>
      <point x="18" y="-172" type="curve"/>
      <point x="14" y="-172" type="line"/>
      <point x="11" y="-178"/>
      <point x="10" y="-185"/>
      <point x="10" y="-195" type="curve" smooth="yes"/>
      <point x="10" y="-209"/>
      <point x="13" y="-222"/>
      <point x="22" y="-231" type="curve" smooth="yes"/>
      <point x="36" y="-245"/>
      <point x="62" y="-250"/>
      <point x="91" y="-250" type="curve" smooth="yes"/>
      <point x="201" y="-250"/>
      <point x="252" y="-167"/>
      <point x="252" y="-43" type="curve" smooth="yes"/>
      <point x="252" y="-32"/>
      <point x="243" y="-26"/>
      <point x="235" y="-26" type="curve"/>
      <point x="215" y="-128"/>
      <point x="169" y="-195"/>
    </contour>
    <contour>
      <point x="262" y="634" type="curve"/>
      <point x="262" y="687" type="line" smooth="yes"/>
      <point x="262" y="711"/>
      <point x="242" y="724"/>
      <point x="209" y="724" type="curve" smooth="yes"/>
      <point x="196" y="724"/>
      <point x="185" y="723"/>
      <point x="176" y="721" type="curve"/>
      <point x="176" y="667" type="line" smooth="yes"/>
      <point x="176" y="643"/>
      <point x="197" y="630"/>
      <point x="229" y="630" type="curve" smooth="yes"/>
      <point x="242" y="630"/>
      <point x="253" y="631"/>
    </contour>
  </outline>
</glyph>
<glyph name="l" format="1">
  <advance width="300"/>
  <unicode hex="006C"/>
  <outline>
    <contour>
      <point x="98" y="669" type="curve"/>
      <point x="98" y="124" type="line" smooth="yes"/>
      <point x="98" y="46"/>
      <point x="145" y="14"/>
      <point x="190" y="26" type="curve"/>
      <point x="158" y="59"/>
      <point x="153" y="79"/>
      <point x="153" y="147" type="curve" smooth="yes"/>
      <point x="153" y="684" type="line" smooth="yes"/>
      <point x="153" y="712"/>
      <point x="151" y="734"/>
      <point x="139" y="747" type="curve" smooth="yes"/>
      <point x="128" y="757"/>
      <point x="116" y="760"/>
      <point x="104" y="760" type="curve" smooth="yes"/>
      <point x="98" y="760"/>
      <point x="92" y="759"/>
      <point x="86" y="757" type="curve"/>
      <point x="95" y="729"/>
      <point x="98" y="715"/>
    </contour>
    <contour>
      <point x="279" y="68" type="curve"/>
      <point x="275" y="68" type="line"/>
      <point x="260" y="54"/>
      <point x="239" y="45"/>
      <point x="211" y="45" type="curve" smooth="yes"/>
      <point x="161" y="45"/>
      <point x="134" y="79"/>
      <point x="133" y="149" type="curve"/>
      <point x="112" y="149"/>
      <point x="98" y="148"/>
      <point x="98" y="124" type="curve" smooth="yes"/>
      <point x="98" y="39"/>
      <point x="126" y="-10"/>
      <point x="206" y="-10" type="curve" smooth="yes"/>
      <point x="211" y="-10" type="line" smooth="yes"/>
      <point x="232" y="-10"/>
      <point x="255" y="-5"/>
      <point x="268" y="8" type="curve" smooth="yes"/>
      <point x="278" y="18"/>
      <point x="281" y="27"/>
      <point x="281" y="48" type="curve" smooth="yes"/>
      <point x="281" y="57"/>
      <point x="280" y="63"/>
    </contour>
    <contour>
      <point x="334" y="711" type="move" name="caronslovak"/>
    </contour>
    <contour>
      <point x="125" y="731" type="move" name="top"/>
    </contour>
    <contour>
      <point x="334" y="400" type="move" name="dot"/>
    </contour>
    <contour>
      <point x="184" y="-1" type="move" name="bottom"/>
    </contour>
  </outline>
</glyph>
<glyph name="m" format="1">
  <advance width="850"/>
  <unicode hex="006D"/>
  <outline>
    <contour>
      <point x="154" y="-6" type="curve"/>
      <point x="154" y="456" type="line" smooth="yes"/>
      <point x="154" y="485"/>
      <point x="152" y="506"/>
      <point x="139" y="519" type="curve" smooth="yes"/>
      <point x="129" y="530"/>
      <point x="116" y="532"/>
      <point x="104" y="532" type="curve" smooth="yes"/>
      <point x="99" y="532"/>
      <point x="92" y="531"/>
      <point x="87" y="529" type="curve"/>
      <point x="96" y="501"/>
      <point x="98" y="487"/>
      <point x="98" y="441" type="curve" smooth="yes"/>
      <point x="98" y="19" type="line" smooth="yes"/>
      <point x="98" y="-1"/>
      <point x="118" y="-6"/>
      <point x="141" y="-6" type="curve" smooth="yes"/>
      <point x="146" y="-6"/>
      <point x="150" y="-6"/>
    </contour>
    <contour>
      <point x="329" y="538" type="curve" smooth="yes"/>
      <point x="240" y="538"/>
      <point x="173" y="458"/>
      <point x="142" y="375" type="curve" smooth="yes"/>
      <point x="133" y="350"/>
      <point x="129" y="333"/>
      <point x="147" y="304" type="curve"/>
      <point x="190" y="410"/>
      <point x="257" y="481"/>
      <point x="325" y="481" type="curve" smooth="yes"/>
      <point x="374" y="481"/>
      <point x="401" y="442"/>
      <point x="409" y="367" type="curve"/>
      <point x="448" y="369"/>
      <point x="453" y="383"/>
      <point x="453" y="396" type="curve" smooth="yes"/>
      <point x="453" y="471"/>
      <point x="407" y="538"/>
    </contour>
    <contour>
      <point x="453" y="0" type="curve"/>
      <point x="453" y="396" type="line"/>
      <point x="453" y="427"/>
      <point x="437" y="444"/>
      <point x="408" y="444" type="curve"/>
      <point x="400" y="304"/>
      <point x="395" y="218"/>
      <point x="395" y="125" type="curve" smooth="yes"/>
      <point x="395" y="120" type="line" smooth="yes"/>
      <point x="395" y="15"/>
      <point x="414" y="-3"/>
      <point x="437" y="-3" type="curve" smooth="yes"/>
      <point x="444" y="-3"/>
      <point x="448" y="-2"/>
    </contour>
    <contour>
      <point x="628" y="538" type="curve" smooth="yes"/>
      <point x="539" y="538"/>
      <point x="472" y="458"/>
      <point x="441" y="375" type="curve" smooth="yes"/>
      <point x="432" y="350"/>
      <point x="428" y="333"/>
      <point x="445" y="304" type="curve"/>
      <point x="489" y="410"/>
      <point x="555" y="481"/>
      <point x="624" y="481" type="curve" smooth="yes"/>
      <point x="673" y="481"/>
      <point x="700" y="442"/>
      <point x="708" y="367" type="curve"/>
      <point x="747" y="369"/>
      <point x="752" y="383"/>
      <point x="752" y="396" type="curve" smooth="yes"/>
      <point x="752" y="471"/>
      <point x="706" y="538"/>
    </contour>
    <contour>
      <point x="763" y="0" type="curve"/>
      <point x="754" y="44"/>
      <point x="752" y="78"/>
      <point x="752" y="126" type="curve" smooth="yes"/>
      <point x="752" y="396" type="line"/>
      <point x="752" y="430"/>
      <point x="736" y="449"/>
      <point x="707" y="449" type="curve"/>
      <point x="697" y="292"/>
      <point x="694" y="238"/>
      <point x="694" y="135" type="curve" smooth="yes"/>
      <point x="694" y="130" type="line" smooth="yes"/>
      <point x="694" y="25"/>
      <point x="720" y="-2"/>
      <point x="749" y="-2" type="curve" smooth="yes"/>
      <point x="755" y="-2"/>
      <point x="760" y="-1"/>
    </contour>
  </outline>
</glyph>
<glyph name="q" format="1">
  <advance width="600"/>
  <unicode hex="0071"/>
  <outline>
    <contour>
      <point x="291" y="537" type="curve" smooth="yes"/>
      <point x="156" y="537"/>
      <point x="73" y="438"/>
      <point x="73" y="212" type="curve" smooth="yes"/>
      <point x="73" y="195" type="line" smooth="yes"/>
      <point x="73" y="141"/>
      <point x="107" y="58"/>
      <point x="138" y="58" type="curve" smooth="yes"/>
      <point x="148" y="58"/>
      <point x="154" y="60"/>
      <point x="156" y="67" type="curve"/>
      <point x="132" y="115"/>
      <point x="129" y="157"/>
      <point x="129" y="204" type="curve" smooth="yes"/>
      <point x="129" y="213" type="line" smooth="yes"/>
      <point x="129" y="391"/>
      <point x="180" y="482"/>
      <point x="288" y="482" type="curve" smooth="yes"/>
      <point x="357" y="482"/>
      <point x="393" y="454"/>
      <point x="445" y="396" type="curve"/>
      <point x="451" y="398"/>
      <point x="456" y="413"/>
      <point x="455" y="420" type="curve" smooth="yes"/>
      <point x="453" y="474"/>
      <point x="377" y="537"/>
    </contour>
    <contour>
      <point x="232" y="-10" type="curve" smooth="yes"/>
      <point x="321" y="-10"/>
      <point x="406" y="64"/>
      <point x="445" y="179" type="curve" smooth="yes"/>
      <point x="457" y="215"/>
      <point x="455" y="247"/>
      <point x="444" y="272" type="curve"/>
      <point x="375" y="103"/>
      <point x="305" y="46"/>
      <point x="228" y="46" type="curve" smooth="yes"/>
      <point x="169" y="46"/>
      <point x="125" y="109"/>
      <point x="114" y="209" type="curve"/>
      <point x="82" y="208"/>
      <point x="73" y="202"/>
      <point x="73" y="195" type="curve" smooth="yes"/>
      <point x="73" y="69"/>
      <point x="134" y="-10"/>
    </contour>
    <contour>
      <point x="492" y="-219" type="curve"/>
      <point x="492" y="441" type="line" smooth="yes"/>
      <point x="492" y="487"/>
      <point x="495" y="501"/>
      <point x="504" y="529" type="curve"/>
      <point x="498" y="531"/>
      <point x="492" y="532"/>
      <point x="486" y="532" type="curve" smooth="yes"/>
      <point x="475" y="532"/>
      <point x="463" y="529"/>
      <point x="453" y="519" type="curve" smooth="yes"/>
      <point x="440" y="506"/>
      <point x="437" y="482"/>
      <point x="437" y="452" type="curve" smooth="yes"/>
      <point x="437" y="-193" type="line" smooth="yes"/>
      <point x="437" y="-215"/>
      <point x="456" y="-221"/>
      <point x="476" y="-221" type="curve" smooth="yes"/>
      <point x="483" y="-221"/>
      <point x="488" y="-220"/>
    </contour>
  </outline>
</glyph>
<glyph name="s" format="1">
  <advance width="550"/>
  <unicode hex="0073"/>
  <outline>
    <contour>
      <point x="313" y="539" type="curve" smooth="yes"/>
      <point x="307" y="539" type="line" smooth="yes"/>
      <point x="187" y="539"/>
      <point x="96" y="468"/>
      <point x="96" y="375" type="curve" smooth="yes"/>
      <point x="96" y="352"/>
      <point x="124" y="333"/>
      <point x="159" y="333" type="curve"/>
      <point x="153" y="350"/>
      <point x="151" y="362"/>
      <point x="151" y="377" type="curve" smooth="yes"/>
      <point x="151" y="436"/>
      <point x="213" y="484"/>
      <point x="306" y="484" type="curve" smooth="yes"/>
      <point x="366" y="484"/>
      <point x="405" y="473"/>
      <point x="444" y="449" type="curve"/>
      <point x="448" y="449" type="line"/>
      <point x="451" y="457"/>
      <point x="452" y="463"/>
      <point x="452" y="471" type="curve"/>
      <point x="452" y="490"/>
      <point x="448" y="500"/>
      <point x="439" y="510" type="curve" smooth="yes"/>
      <point x="422" y="527"/>
      <point x="374" y="539"/>
    </contour>
    <contour>
      <point x="345" y="272" type="curve" smooth="yes"/>
      <point x="255" y="289" type="line" smooth="yes"/>
      <point x="176" y="303"/>
      <point x="151" y="330"/>
      <point x="151" y="377" type="curve" smooth="yes"/>
      <point x="151" y="396"/>
      <point x="152" y="412"/>
      <point x="156" y="427" type="curve"/>
      <point x="114" y="412"/>
      <point x="96" y="397"/>
      <point x="96" y="375" type="curve"/>
      <point x="96" y="305"/>
      <point x="138" y="260"/>
      <point x="231" y="242" type="curve" smooth="yes"/>
      <point x="323" y="224" type="line" smooth="yes"/>
      <point x="402" y="208"/>
      <point x="428" y="179"/>
      <point x="428" y="113" type="curve" smooth="yes"/>
      <point x="428" y="106"/>
      <point x="428" y="99"/>
      <point x="427" y="93" type="curve"/>
      <point x="451" y="98"/>
      <point x="476" y="126"/>
      <point x="476" y="143" type="curve" smooth="yes"/>
      <point x="476" y="209"/>
      <point x="429" y="256"/>
    </contour>
    <contour>
      <point x="281" y="45" type="curve" smooth="yes"/>
      <point x="180" y="45"/>
      <point x="136" y="61"/>
      <point x="82" y="105" type="curve"/>
      <point x="78" y="105" type="line"/>
      <point x="77" y="101"/>
      <point x="76" y="94"/>
      <point x="76" y="87" type="curve" smooth="yes"/>
      <point x="76" y="63"/>
      <point x="81" y="46"/>
      <point x="91" y="37" type="curve" smooth="yes"/>
      <point x="118" y="8"/>
      <point x="188" y="-10"/>
      <point x="275" y="-10" type="curve" smooth="yes"/>
      <point x="280" y="-10" type="line" smooth="yes"/>
      <point x="405" y="-10"/>
      <point x="476" y="46"/>
      <point x="476" y="143" type="curve" smooth="yes"/>
      <point x="476" y="160"/>
      <point x="455" y="171"/>
      <point x="431" y="171" type="curve"/>
      <point x="432" y="165"/>
      <point x="432" y="160"/>
      <point x="432" y="157" type="curve" smooth="yes"/>
      <point x="432" y="85"/>
      <point x="378" y="45"/>
    </contour>
    <contour>
      <point x="275" y="538" type="move" name="top"/>
    </contour>
    <contour>
      <point x="275" y="-1" type="move" name="bottom"/>
    </contour>
  </outline>
</glyph>
<glyph name="t" format="1">
  <advance width="500"/>
  <unicode hex="0074"/>
  <outline>
    <contour>
      <point x="149" y="700" type="curve"/>
      <point x="149" y="144" type="line" smooth="yes"/>
      <point x="149" y="35"/>
      <point x="224" y="-10"/>
      <point x="254" y="20" type="curve"/>
      <point x="220" y="50"/>
      <point x="204" y="91"/>
      <point x="204" y="163" type="curve" smooth="yes"/>
      <point x="204" y="678" type="line" smooth="yes"/>
      <point x="204" y="696"/>
      <point x="185" y="703"/>
      <point x="166" y="703" type="curve" smooth="yes"/>
      <point x="160" y="703"/>
      <point x="154" y="702"/>
    </contour>
    <contour>
      <point x="426" y="84" type="curve"/>
      <point x="422" y="84" type="line"/>
      <point x="392" y="52"/>
      <point x="357" y="36"/>
      <point x="301" y="36" type="curve" smooth="yes"/>
      <point x="230" y="36"/>
      <point x="196" y="65"/>
      <point x="173" y="164" type="curve"/>
      <point x="154" y="164"/>
      <point x="149" y="159"/>
      <point x="149" y="144" type="curve" smooth="yes"/>
      <point x="149" y="38"/>
      <point x="206" y="-20"/>
      <point x="299" y="-20" type="curve" smooth="yes"/>
      <point x="309" y="-20" type="line" smooth="yes"/>
      <point x="353" y="-20"/>
      <point x="393" y="-6"/>
      <point x="412" y="14" type="curve" smooth="yes"/>
      <point x="425" y="26"/>
      <point x="429" y="43"/>
      <point x="429" y="62" type="curve" smooth="yes"/>
      <point x="429" y="71"/>
      <point x="428" y="77"/>
    </contour>
    <contour>
      <point x="45" y="527" type="line"/>
      <point x="45" y="524"/>
      <point x="45" y="519"/>
      <point x="45" y="516" type="curve" smooth="yes"/>
      <point x="45" y="498"/>
      <point x="48" y="486"/>
      <point x="56" y="478" type="curve" smooth="yes"/>
      <point x="61" y="474"/>
      <point x="66" y="471"/>
      <point x="76" y="471" type="curve"/>
      <point x="426" y="471" type="line"/>
      <point x="426" y="475"/>
      <point x="426" y="480"/>
      <point x="426" y="484" type="curve" smooth="yes"/>
      <point x="426" y="509"/>
      <point x="421" y="527"/>
      <point x="401" y="527" type="curve"/>
    </contour>
    <contour>
      <point x="386" y="711" type="move" name="caronslovak"/>
    </contour>
    <contour>
      <point x="271" y="-1" type="move" name="bottom"/>
    </contour>
  </outline>
</glyph>
<glyph name="v" format="1">
  <advance width="600"/>
  <unicode hex="0076"/>
  <outline>
    <contour>
      <point x="479" y="531" type="curve" smooth="yes"/>
      <point x="469" y="531" type="line"/>
      <point x="445" y="245"/>
      <point x="405" y="125"/>
      <point x="285" y="21" type="curve"/>
      <point x="270" y="8"/>
      <point x="283" y="-10"/>
      <point x="299" y="-10" type="curve"/>
      <point x="328" y="-10" type="line"/>
      <point x="450" y="86"/>
      <point x="501" y="238"/>
      <point x="522" y="502" type="curve"/>
      <point x="524" y="516"/>
      <point x="508" y="531"/>
    </contour>
    <contour>
      <point x="85" y="531" type="curve" smooth="yes"/>
      <point x="74" y="531" type="line"/>
      <point x="97" y="257"/>
      <point x="143" y="117"/>
      <point x="244" y="15" type="curve"/>
      <point x="262" y="-2"/>
      <point x="277" y="-10"/>
      <point x="296" y="-10" type="curve" smooth="yes"/>
      <point x="302" y="-10" type="line" smooth="yes"/>
      <point x="322" y="-10"/>
      <point x="332" y="0"/>
      <point x="344" y="21" type="curve"/>
      <point x="334" y="21"/>
      <point x="327" y="21"/>
      <point x="324" y="21" type="curve" smooth="yes"/>
      <point x="319" y="21"/>
      <point x="312" y="23"/>
      <point x="309" y="26" type="curve"/>
      <point x="194" y="132"/>
      <point x="151" y="260"/>
      <point x="133" y="505" type="curve"/>
      <point x="132" y="524"/>
      <point x="113" y="531"/>
    </contour>
  </outline>
</glyph>
<glyph name="w" format="1">
  <advance width="800"/>
  <unicode hex="0077"/>
  <outline>
    <contour>
      <point x="66" y="536" type="curve"/>
      <point x="82" y="256"/>
      <point x="117" y="126"/>
      <point x="176" y="36" type="curve"/>
      <point x="196" y="6"/>
      <point x="213" y="-10"/>
      <point x="231" y="-10" type="curve"/>
      <point x="245" y="-10" type="line" smooth="yes"/>
      <point x="250" y="-10"/>
      <point x="252" y="13"/>
      <point x="252" y="21" type="curve"/>
      <point x="179" y="118"/>
      <point x="150" y="182"/>
      <point x="125" y="504" type="curve"/>
      <point x="124" y="519"/>
      <point x="123" y="523"/>
      <point x="118" y="527" type="curve" smooth="yes"/>
      <point x="112" y="533"/>
      <point x="95" y="537"/>
      <point x="78" y="537" type="curve"/>
      <point x="74" y="537"/>
      <point x="69" y="537"/>
    </contour>
    <contour>
      <point x="371" y="493" type="curve"/>
      <point x="333" y="260"/>
      <point x="299" y="136"/>
      <point x="223" y="21" type="curve"/>
      <point x="214" y="5"/>
      <point x="224" y="-10"/>
      <point x="240" y="-10" type="curve"/>
      <point x="263" y="-10" type="line"/>
      <point x="343" y="107"/>
      <point x="383" y="254"/>
      <point x="413" y="457" type="curve"/>
      <point x="416" y="472"/>
      <point x="417" y="493"/>
      <point x="386" y="493" type="curve" smooth="yes"/>
      <point x="381" y="493"/>
      <point x="376" y="493"/>
    </contour>
    <contour>
      <point x="380" y="490" type="curve"/>
      <point x="411" y="266"/>
      <point x="461" y="105"/>
      <point x="523" y="9" type="curve"/>
      <point x="533" y="-8"/>
      <point x="547" y="-10"/>
      <point x="563" y="-10" type="curve"/>
      <point x="576" y="-10" type="line" smooth="yes"/>
      <point x="576" y="-10"/>
      <point x="577" y="13"/>
      <point x="577" y="19" type="curve"/>
      <point x="501" y="126"/>
      <point x="475" y="256"/>
      <point x="435" y="461" type="curve"/>
      <point x="430" y="486"/>
      <point x="419" y="493"/>
      <point x="386" y="493" type="curve" smooth="yes"/>
      <point x="384" y="493"/>
      <point x="381" y="492"/>
    </contour>
    <contour>
      <point x="683" y="536" type="curve"/>
      <point x="654" y="216"/>
      <point x="635" y="154"/>
      <point x="551" y="23" type="curve"/>
      <point x="545" y="10"/>
      <point x="549" y="-10"/>
      <point x="570" y="-10" type="curve"/>
      <point x="592" y="-10" type="line"/>
      <point x="687" y="122"/>
      <point x="714" y="259"/>
      <point x="737" y="504" type="curve"/>
      <point x="738" y="514"/>
      <point x="736" y="519"/>
      <point x="731" y="523" type="curve" smooth="yes"/>
      <point x="725" y="529"/>
      <point x="712" y="537"/>
      <point x="695" y="537" type="curve"/>
      <point x="691" y="537"/>
      <point x="686" y="537"/>
    </contour>
    <contour>
      <point x="401" y="538" type="move" name="top"/>
    </contour>
  </outline>
</glyph>
<glyph name="braceleft" format="1">
  <advance width="500"/>
  <unicode hex="007B"/>
  <outline>
    <contour>
      <point x="384" y="715" type="curve" smooth="yes"/>
      <point x="408" y="715"/>
      <point x="422" y="713"/>
      <point x="442" y="707" type="curve"/>
      <point x="446" y="707" type="line"/>
      <point x="447" y="713"/>
      <point x="448" y="718"/>
      <point x="448" y="726" type="curve"/>
      <point x="448" y="750"/>
      <point x="434" y="770"/>
      <point x="397" y="770" type="curve" smooth="yes"/>
      <point x="392" y="770" type="line" smooth="yes"/>
      <point x="268" y="770"/>
      <point x="178" y="733"/>
      <point x="178" y="657" type="curve" smooth="yes"/>
      <point x="178" y="654" type="line" smooth="yes"/>
      <point x="178" y="642"/>
      <point x="195" y="628"/>
      <point x="214" y="628" type="curve"/>
      <point x="228" y="694"/>
      <point x="293" y="715"/>
    </contour>
    <contour>
      <point x="291" y="471" type="curve" smooth="yes"/>
      <point x="291" y="556"/>
      <point x="231" y="619"/>
      <point x="231" y="656" type="curve" smooth="yes"/>
      <point x="231" y="674"/>
      <point x="236" y="686"/>
      <point x="246" y="703" type="curve"/>
      <point x="214" y="704"/>
      <point x="178" y="698"/>
      <point x="178" y="657" type="curve" smooth="yes"/>
      <point x="178" y="653" type="line" smooth="yes"/>
      <point x="178" y="592"/>
      <point x="236" y="548"/>
      <point x="236" y="467" type="curve" smooth="yes"/>
      <point x="236" y="389"/>
      <point x="182" y="326"/>
      <point x="59" y="326" type="curve" smooth="yes"/>
      <point x="54" y="326" type="line"/>
      <point x="54" y="316" type="line" smooth="yes"/>
      <point x="54" y="296"/>
      <point x="60" y="285"/>
      <point x="68" y="285" type="curve" smooth="yes"/>
      <point x="75" y="285" type="line" smooth="yes"/>
      <point x="198" y="285"/>
      <point x="291" y="347"/>
    </contour>
    <contour>
      <point x="291" y="127" type="curve" smooth="yes"/>
      <point x="291" y="251"/>
      <point x="198" y="316"/>
      <point x="76" y="316" type="curve" smooth="yes"/>
      <point x="67" y="316"/>
      <point x="61" y="317"/>
      <point x="54" y="319" type="curve"/>
      <point x="54" y="311" type="line" smooth="yes"/>
      <point x="54" y="290"/>
      <point x="60" y="272"/>
      <point x="77" y="272" type="curve" smooth="yes"/>
      <point x="79" y="272" type="line" smooth="yes"/>
      <point x="181" y="272"/>
      <point x="236" y="207"/>
      <point x="236" y="132" type="curve" smooth="yes"/>
      <point x="236" y="50"/>
      <point x="178" y="1"/>
      <point x="178" y="-60" type="curve" smooth="yes"/>
      <point x="178" y="-62" type="line" smooth="yes"/>
      <point x="178" y="-111"/>
      <point x="221" y="-114"/>
      <point x="251" y="-114" type="curve"/>
      <point x="234" y="-95"/>
      <point x="231" y="-80"/>
      <point x="231" y="-59" type="curve" smooth="yes"/>
      <point x="231" y="-22"/>
      <point x="291" y="43"/>
    </contour>
    <contour>
      <point x="389" y="-116" type="curve" smooth="yes"/>
      <point x="270" y="-116"/>
      <point x="224" y="-98"/>
      <point x="207" y="-22" type="curve"/>
      <point x="189" y="-25"/>
      <point x="178" y="-43"/>
      <point x="178" y="-60" type="curve" smooth="yes"/>
      <point x="178" y="-62" type="line" smooth="yes"/>
      <point x="178" y="-148"/>
      <point x="271" y="-172"/>
      <point x="401" y="-172" type="curve" smooth="yes"/>
      <point x="407" y="-172" type="line" smooth="yes"/>
      <point x="436" y="-172"/>
      <point x="448" y="-150"/>
      <point x="448" y="-116" type="curve"/>
      <point x="448" y="-108" type="line"/>
      <point x="444" y="-108" type="line"/>
      <point x="427" y="-113"/>
      <point x="412" y="-116"/>
    </contour>
  </outline>
</glyph>
<glyph name="bar" format="1">
  <advance width="300"/>
  <unicode hex="007C"/>
  <outline>
    <contour>
      <point x="118" y="760" type="curve"/>
      <point x="124" y="725"/>
      <point x="126" y="690"/>
      <point x="126" y="653" type="curve" smooth="yes"/>
      <point x="126" y="-135" type="line" smooth="yes"/>
      <point x="126" y="-154"/>
      <point x="145" y="-160"/>
      <point x="170" y="-160" type="curve" smooth="yes"/>
      <point x="174" y="-160"/>
      <point x="178" y="-160"/>
      <point x="182" y="-160" type="curve"/>
      <point x="182" y="703" type="line" smooth="yes"/>
      <point x="182" y="725"/>
      <point x="180" y="742"/>
      <point x="168" y="754" type="curve" smooth="yes"/>
      <point x="162" y="760"/>
      <point x="154" y="763"/>
      <point x="138" y="763" type="curve" smooth="yes"/>
      <point x="131" y="763"/>
      <point x="125" y="762"/>
    </contour>
  </outline>
</glyph>
<glyph name="braceright" format="1">
  <advance width="500"/>
  <unicode hex="007D"/>
  <outline>
    <contour>
      <point x="116" y="-117" type="curve" smooth="yes"/>
      <point x="92" y="-117"/>
      <point x="78" y="-115"/>
      <point x="58" y="-109" type="curve"/>
      <point x="54" y="-109" type="line"/>
      <point x="53" y="-115"/>
      <point x="52" y="-120"/>
      <point x="52" y="-128" type="curve"/>
      <point x="52" y="-152"/>
      <point x="66" y="-172"/>
      <point x="103" y="-172" type="curve" smooth="yes"/>
      <point x="108" y="-172" type="line" smooth="yes"/>
      <point x="232" y="-172"/>
      <point x="322" y="-135"/>
      <point x="322" y="-59" type="curve" smooth="yes"/>
      <point x="322" y="-56" type="line" smooth="yes"/>
      <point x="322" y="-44"/>
      <point x="305" y="-30"/>
      <point x="286" y="-30" type="curve"/>
      <point x="272" y="-96"/>
      <point x="207" y="-117"/>
    </contour>
    <contour>
      <point x="209" y="127" type="curve" smooth="yes"/>
      <point x="209" y="42"/>
      <point x="269" y="-21"/>
      <point x="269" y="-58" type="curve" smooth="yes"/>
      <point x="269" y="-76"/>
      <point x="264" y="-88"/>
      <point x="254" y="-105" type="curve"/>
      <point x="286" y="-106"/>
      <point x="322" y="-100"/>
      <point x="322" y="-59" type="curve" smooth="yes"/>
      <point x="322" y="-55" type="line" smooth="yes"/>
      <point x="322" y="6"/>
      <point x="264" y="50"/>
      <point x="264" y="131" type="curve" smooth="yes"/>
      <point x="264" y="209"/>
      <point x="318" y="272"/>
      <point x="441" y="272" type="curve" smooth="yes"/>
      <point x="446" y="272" type="line"/>
      <point x="446" y="282" type="line" smooth="yes"/>
      <point x="446" y="302"/>
      <point x="440" y="313"/>
      <point x="432" y="313" type="curve" smooth="yes"/>
      <point x="425" y="313" type="line" smooth="yes"/>
      <point x="302" y="313"/>
      <point x="209" y="251"/>
    </contour>
    <contour>
      <point x="209" y="471" type="curve" smooth="yes"/>
      <point x="209" y="347"/>
      <point x="302" y="282"/>
      <point x="424" y="282" type="curve" smooth="yes"/>
      <point x="433" y="282"/>
      <point x="439" y="281"/>
      <point x="446" y="279" type="curve"/>
      <point x="446" y="287" type="line" smooth="yes"/>
      <point x="446" y="308"/>
      <point x="440" y="326"/>
      <point x="423" y="326" type="curve" smooth="yes"/>
      <point x="421" y="326" type="line" smooth="yes"/>
      <point x="319" y="326"/>
      <point x="264" y="391"/>
      <point x="264" y="466" type="curve" smooth="yes"/>
      <point x="264" y="548"/>
      <point x="322" y="597"/>
      <point x="322" y="658" type="curve" smooth="yes"/>
      <point x="322" y="660" type="line" smooth="yes"/>
      <point x="322" y="709"/>
      <point x="279" y="712"/>
      <point x="249" y="712" type="curve"/>
      <point x="266" y="693"/>
      <point x="269" y="678"/>
      <point x="269" y="657" type="curve" smooth="yes"/>
      <point x="269" y="620"/>
      <point x="209" y="555"/>
    </contour>
    <contour>
      <point x="111" y="714" type="curve" smooth="yes"/>
      <point x="230" y="714"/>
      <point x="276" y="696"/>
      <point x="293" y="620" type="curve"/>
      <point x="311" y="623"/>
      <point x="322" y="641"/>
      <point x="322" y="658" type="curve" smooth="yes"/>
      <point x="322" y="660" type="line" smooth="yes"/>
      <point x="322" y="746"/>
      <point x="229" y="770"/>
      <point x="99" y="770" type="curve" smooth="yes"/>
      <point x="93" y="770" type="line" smooth="yes"/>
      <point x="64" y="770"/>
      <point x="52" y="748"/>
      <point x="52" y="714" type="curve"/>
      <point x="52" y="706" type="line"/>
      <point x="56" y="706" type="line"/>
      <point x="73" y="711"/>
      <point x="88" y="714"/>
    </contour>
  </outline>
</glyph>
<glyph name="exclamdown" format="1">
  <advance width="397"/>
  <unicode hex="00A1"/>
  <outline>
    <contour>
      <point x="173" y="292" type="line"/>
      <point x="165" y="215"/>
      <point x="161" y="138"/>
      <point x="161" y="62" type="curve"/>
      <point x="161" y="-133" type="line" smooth="yes"/>
      <point x="161" y="-165"/>
      <point x="175" y="-175"/>
      <point x="220" y="-175" type="curve" smooth="yes"/>
      <point x="229" y="-175"/>
      <point x="237" y="-174"/>
      <point x="244" y="-172" type="curve"/>
      <point x="238" y="-137"/>
      <point x="237" y="-102"/>
      <point x="237" y="-64" type="curve" smooth="yes"/>
      <point x="237" y="62" type="line"/>
      <point x="237" y="181"/>
      <point x="232" y="266"/>
      <point x="218" y="280" type="curve" smooth="yes"/>
      <point x="208" y="290"/>
      <point x="193" y="292"/>
      <point x="177" y="292" type="curve"/>
    </contour>
    <contour>
      <point x="134" y="527" type="curve"/>
      <point x="134" y="461" type="line" smooth="yes"/>
      <point x="134" y="426"/>
      <point x="160" y="406"/>
      <point x="210" y="406" type="curve" smooth="yes"/>
      <point x="233" y="406"/>
      <point x="249" y="410"/>
      <point x="263" y="419" type="curve"/>
      <point x="263" y="484" type="line" smooth="yes"/>
      <point x="263" y="520"/>
      <point x="237" y="540"/>
      <point x="187" y="540" type="curve" smooth="yes"/>
      <point x="165" y="540"/>
      <point x="148" y="535"/>
    </contour>
  </outline>
</glyph>
<glyph name="cent" format="1">
  <advance width="600"/>
  <unicode hex="00A2"/>
  <outline>
    <contour>
      <point x="345" y="424" type="line"/>
      <point x="367" y="710" type="line" smooth="yes"/>
      <point x="371" y="751"/>
      <point x="360" y="767"/>
      <point x="328" y="767" type="curve" smooth="yes"/>
      <point x="318" y="767"/>
      <point x="307" y="765"/>
      <point x="300" y="763" type="curve"/>
      <point x="306" y="739"/>
      <point x="308" y="716"/>
      <point x="308" y="675" type="curve"/>
      <point x="308" y="453" type="line" smooth="yes"/>
      <point x="308" y="434"/>
      <point x="320" y="424"/>
      <point x="341" y="424" type="curve" smooth="yes"/>
    </contour>
    <contour>
      <point x="303" y="270" type="line"/>
      <point x="281" y="-16" type="line" smooth="yes"/>
      <point x="277" y="-57"/>
      <point x="288" y="-73"/>
      <point x="320" y="-73" type="curve" smooth="yes"/>
      <point x="330" y="-73"/>
      <point x="341" y="-71"/>
      <point x="348" y="-69" type="curve"/>
      <point x="341" y="-45"/>
      <point x="340" y="-22"/>
      <point x="340" y="19" type="curve"/>
      <point x="340" y="241" type="line" smooth="yes"/>
      <point x="340" y="260"/>
      <point x="328" y="270"/>
      <point x="307" y="270" type="curve" smooth="yes"/>
    </contour>
    <contour>
      <point x="339" y="623" type="curve" smooth="yes"/>
      <point x="189" y="623"/>
      <point x="74" y="515"/>
      <point x="74" y="313" type="curve" smooth="yes"/>
      <point x="74" y="299" type="line" smooth="yes"/>
      <point x="74" y="162"/>
      <point x="161" y="77"/>
      <point x="322" y="77" type="curve" smooth="yes"/>
      <point x="332" y="77"/>
      <point x="343" y="89"/>
      <point x="343" y="116" type="curve"/>
      <point x="195" y="119"/>
      <point x="129" y="194"/>
      <point x="129" y="298" type="curve" smooth="yes"/>
      <point x="129" y="313" type="line" smooth="yes"/>
      <point x="129" y="460"/>
      <point x="203" y="568"/>
      <point x="331" y="568" type="curve" smooth="yes"/>
      <point x="410" y="568"/>
      <point x="446" y="546"/>
      <point x="491" y="501" type="curve"/>
      <point x="495" y="501" type="line"/>
      <point x="497" y="507"/>
      <point x="498" y="513"/>
      <point x="498" y="522" type="curve" smooth="yes"/>
      <point x="498" y="541"/>
      <point x="495" y="566"/>
      <point x="483" y="578" type="curve" smooth="yes"/>
      <point x="452" y="609"/>
      <point x="404" y="623"/>
    </contour>
    <contour>
      <point x="140" y="205" type="curve"/>
      <point x="111" y="152"/>
      <point x="211" y="77"/>
      <point x="322" y="77" type="curve" smooth="yes"/>
      <point x="395" y="77"/>
      <point x="458" y="101"/>
      <point x="486" y="129" type="curve" smooth="yes"/>
      <point x="498" y="142"/>
      <point x="501" y="169"/>
      <point x="501" y="182" type="curve"/>
      <point x="501" y="191"/>
      <point x="500" y="196"/>
      <point x="499" y="201" type="curve"/>
      <point x="495" y="201" type="line"/>
      <point x="449" y="154"/>
      <point x="399" y="132"/>
      <point x="322" y="132" type="curve" smooth="yes"/>
      <point x="238" y="132"/>
      <point x="187" y="155"/>
    </contour>
  </outline>
</glyph>
<glyph name="sterling" format="1">
  <advance width="600"/>
  <unicode hex="00A3"/>
  <outline>
    <contour>
      <point x="303" y="664" type="curve" smooth="yes"/>
      <point x="400" y="664"/>
      <point x="461" y="630"/>
      <point x="506" y="563" type="curve"/>
      <point x="510" y="563" type="line"/>
      <point x="515" y="576"/>
      <point x="516" y="587"/>
      <point x="516" y="602" type="curve" smooth="yes"/>
      <point x="516" y="623"/>
      <point x="513" y="637"/>
      <point x="493" y="657" type="curve" smooth="yes"/>
      <point x="460" y="689"/>
      <point x="393" y="719"/>
      <point x="303" y="719" type="curve" smooth="yes"/>
      <point x="171" y="719"/>
      <point x="87" y="649"/>
      <point x="87" y="546" type="curve" smooth="yes"/>
      <point x="87" y="539" type="line" smooth="yes"/>
      <point x="87" y="503"/>
      <point x="109" y="496"/>
      <point x="131" y="496" type="curve"/>
      <point x="131" y="601"/>
      <point x="182" y="664"/>
    </contour>
    <contour>
      <point x="87" y="539" type="curve" smooth="yes"/>
      <point x="87" y="401"/>
      <point x="200" y="292"/>
      <point x="200" y="152" type="curve" smooth="yes"/>
      <point x="200" y="77"/>
      <point x="166" y="43"/>
      <point x="105" y="43" type="curve" smooth="yes"/>
      <point x="83" y="43"/>
      <point x="69" y="45"/>
      <point x="55" y="56" type="curve"/>
      <point x="51" y="56" type="line"/>
      <point x="48" y="48"/>
      <point x="47" y="43"/>
      <point x="47" y="35" type="curve" smooth="yes"/>
      <point x="47" y="4"/>
      <point x="64" y="-12"/>
      <point x="107" y="-12" type="curve" smooth="yes"/>
      <point x="112" y="-12" type="line" smooth="yes"/>
      <point x="211" y="-12"/>
      <point x="253" y="57"/>
      <point x="253" y="150" type="curve" smooth="yes"/>
      <point x="253" y="299"/>
      <point x="139" y="411"/>
      <point x="139" y="555" type="curve" smooth="yes"/>
      <point x="139" y="577"/>
      <point x="141" y="598"/>
      <point x="150" y="620" type="curve"/>
      <point x="97" y="620"/>
      <point x="87" y="581"/>
    </contour>
    <contour>
      <point x="203" y="78" type="curve"/>
      <point x="291" y="20"/>
      <point x="364" y="-12"/>
      <point x="443" y="-12" type="curve" smooth="yes"/>
      <point x="453" y="-12" type="line" smooth="yes"/>
      <point x="521" y="-12"/>
      <point x="553" y="24"/>
      <point x="553" y="62" type="curve"/>
      <point x="553" y="80"/>
      <point x="547" y="94"/>
      <point x="540" y="105" type="curve"/>
      <point x="536" y="105" type="line"/>
      <point x="520" y="60"/>
      <point x="497" y="44"/>
      <point x="446" y="44" type="curve" smooth="yes"/>
      <point x="374" y="44"/>
      <point x="304" y="72"/>
      <point x="224" y="123" type="curve"/>
      <point x="214" y="125"/>
      <point x="202" y="104"/>
    </contour>
    <contour>
      <point x="50" y="353" type="line"/>
      <point x="50" y="350"/>
      <point x="50" y="345"/>
      <point x="50" y="342" type="curve" smooth="yes"/>
      <point x="50" y="324"/>
      <point x="53" y="312"/>
      <point x="62" y="303" type="curve" smooth="yes"/>
      <point x="65" y="299"/>
      <point x="70" y="297"/>
      <point x="78" y="297" type="curve" smooth="yes"/>
      <point x="441" y="297" type="line"/>
      <point x="442" y="301"/>
      <point x="442" y="306"/>
      <point x="442" y="310" type="curve" smooth="yes"/>
      <point x="442" y="335"/>
      <point x="436" y="353"/>
      <point x="416" y="353" type="curve" smooth="yes"/>
    </contour>
  </outline>
</glyph>
<glyph name="currency" format="1">
  <advance width="600"/>
  <unicode hex="00A4"/>
  <outline>
    <contour>
      <point x="230" y="410" type="curve"/>
      <point x="201" y="435"/>
      <point x="174" y="461"/>
      <point x="149" y="491" type="curve" smooth="yes"/>
      <point x="145" y="498"/>
      <point x="139" y="500"/>
      <point x="134" y="500" type="curve" smooth="yes"/>
      <point x="123" y="500"/>
      <point x="112" y="492"/>
      <point x="101" y="480" type="curve" smooth="yes"/>
      <point x="99" y="478"/>
      <point x="95" y="474"/>
      <point x="92" y="471" type="curve"/>
      <point x="117" y="442"/>
      <point x="143" y="415"/>
      <point x="170" y="392" type="curve" smooth="yes"/>
      <point x="184" y="379"/>
      <point x="206" y="386"/>
      <point x="223" y="403" type="curve" smooth="yes"/>
      <point x="225" y="405"/>
      <point x="228" y="408"/>
    </contour>
    <contour>
      <point x="370" y="410" type="curve"/>
      <point x="372" y="408"/>
      <point x="375" y="405"/>
      <point x="377" y="403" type="curve" smooth="yes"/>
      <point x="394" y="386"/>
      <point x="413" y="381"/>
      <point x="427" y="392" type="curve" smooth="yes"/>
      <point x="454" y="415"/>
      <point x="481" y="440"/>
      <point x="507" y="471" type="curve"/>
      <point x="505" y="474"/>
      <point x="501" y="478"/>
      <point x="499" y="480" type="curve" smooth="yes"/>
      <point x="488" y="492"/>
      <point x="477" y="500"/>
      <point x="466" y="500" type="curve" smooth="yes"/>
      <point x="461" y="500"/>
      <point x="456" y="498"/>
      <point x="451" y="492" type="curve" smooth="yes"/>
      <point x="426" y="460"/>
      <point x="398" y="433"/>
    </contour>
    <contour>
      <point x="369" y="187" type="curve"/>
      <point x="398" y="162"/>
      <point x="425" y="136"/>
      <point x="449" y="106" type="curve" smooth="yes"/>
      <point x="455" y="99"/>
      <point x="460" y="97"/>
      <point x="465" y="97" type="curve" smooth="yes"/>
      <point x="476" y="97"/>
      <point x="487" y="105"/>
      <point x="498" y="116" type="curve" smooth="yes"/>
      <point x="500" y="119"/>
      <point x="504" y="123"/>
      <point x="506" y="126" type="curve"/>
      <point x="482" y="155"/>
      <point x="456" y="182"/>
      <point x="429" y="205" type="curve" smooth="yes"/>
      <point x="415" y="218"/>
      <point x="393" y="211"/>
      <point x="376" y="194" type="curve" smooth="yes"/>
      <point x="374" y="192"/>
      <point x="371" y="189"/>
    </contour>
    <contour>
      <point x="226" y="186" type="curve"/>
      <point x="224" y="188"/>
      <point x="221" y="191"/>
      <point x="219" y="193" type="curve" smooth="yes"/>
      <point x="202" y="210"/>
      <point x="183" y="215"/>
      <point x="169" y="204" type="curve" smooth="yes"/>
      <point x="142" y="181"/>
      <point x="115" y="156"/>
      <point x="89" y="125" type="curve"/>
      <point x="91" y="122"/>
      <point x="95" y="118"/>
      <point x="97" y="116" type="curve" smooth="yes"/>
      <point x="108" y="104"/>
      <point x="119" y="96"/>
      <point x="130" y="96" type="curve" smooth="yes"/>
      <point x="135" y="96"/>
      <point x="140" y="98"/>
      <point x="145" y="104" type="curve" smooth="yes"/>
      <point x="170" y="136"/>
      <point x="198" y="163"/>
    </contour>
    <contour>
      <point x="316" y="172" type="curve"/>
      <point x="239" y="172"/>
      <point x="194" y="219"/>
      <point x="194" y="292" type="curve" smooth="yes"/>
      <point x="194" y="298" type="line" smooth="yes"/>
      <point x="194" y="374"/>
      <point x="233" y="419"/>
      <point x="307" y="419" type="curve" smooth="yes"/>
      <point x="340" y="419"/>
      <point x="362" y="413"/>
      <point x="391" y="393" type="curve"/>
      <point x="405" y="431"/>
      <point x="355" y="469"/>
      <point x="302" y="469" type="curve"/>
      <point x="206" y="469"/>
      <point x="139" y="398"/>
      <point x="139" y="300" type="curve" smooth="yes"/>
      <point x="139" y="294" type="line" smooth="yes"/>
      <point x="139" y="198"/>
      <point x="205" y="134"/>
      <point x="296" y="134" type="curve"/>
      <point x="306" y="134"/>
      <point x="316" y="154"/>
    </contour>
    <contour>
      <point x="282" y="429" type="curve"/>
      <point x="359" y="429"/>
      <point x="404" y="383"/>
      <point x="404" y="310" type="curve" smooth="yes"/>
      <point x="404" y="304" type="line" smooth="yes"/>
      <point x="404" y="228"/>
      <point x="365" y="183"/>
      <point x="291" y="183" type="curve" smooth="yes"/>
      <point x="258" y="183"/>
      <point x="236" y="189"/>
      <point x="207" y="209" type="curve"/>
      <point x="193" y="172"/>
      <point x="243" y="134"/>
      <point x="296" y="134" type="curve"/>
      <point x="392" y="134"/>
      <point x="459" y="204"/>
      <point x="459" y="302" type="curve" smooth="yes"/>
      <point x="459" y="308" type="line" smooth="yes"/>
      <point x="459" y="404"/>
      <point x="393" y="469"/>
      <point x="302" y="469" type="curve"/>
      <point x="292" y="469"/>
      <point x="282" y="449"/>
    </contour>
  </outline>
</glyph>
<glyph name="yen" format="1">
  <advance width="600"/>
  <unicode hex="00A5"/>
  <outline>
    <contour>
      <point x="38" y="383" type="line"/>
      <point x="38" y="380"/>
      <point x="38" y="375"/>
      <point x="38" y="372" type="curve" smooth="yes"/>
      <point x="38" y="354"/>
      <point x="41" y="343"/>
      <point x="50" y="334" type="curve" smooth="yes"/>
      <point x="54" y="331"/>
      <point x="58" y="328"/>
      <point x="66" y="328" type="curve"/>
      <point x="200" y="328" type="line"/>
      <point x="200" y="332"/>
      <point x="200" y="337"/>
      <point x="200" y="341" type="curve" smooth="yes"/>
      <point x="200" y="365"/>
      <point x="194" y="383"/>
      <point x="174" y="383" type="curve"/>
    </contour>
    <contour>
      <point x="398" y="383" type="line"/>
      <point x="392" y="374"/>
      <point x="388" y="366"/>
      <point x="388" y="354" type="curve" smooth="yes"/>
      <point x="388" y="342"/>
      <point x="392" y="328"/>
      <point x="410" y="328" type="curve"/>
      <point x="562" y="328" type="line"/>
      <point x="562" y="332"/>
      <point x="562" y="337"/>
      <point x="562" y="341" type="curve" smooth="yes"/>
      <point x="562" y="365"/>
      <point x="556" y="383"/>
      <point x="536" y="383" type="curve"/>
    </contour>
    <contour>
      <point x="561" y="128" type="line"/>
      <point x="561" y="131"/>
      <point x="561" y="136"/>
      <point x="561" y="139" type="curve" smooth="yes"/>
      <point x="561" y="157"/>
      <point x="558" y="168"/>
      <point x="550" y="177" type="curve" smooth="yes"/>
      <point x="546" y="180"/>
      <point x="541" y="182"/>
      <point x="534" y="182" type="curve"/>
      <point x="39" y="182" type="line"/>
      <point x="39" y="178"/>
      <point x="39" y="173"/>
      <point x="39" y="170" type="curve" smooth="yes"/>
      <point x="39" y="146"/>
      <point x="44" y="128"/>
      <point x="64" y="128" type="curve"/>
    </contour>
    <contour>
      <point x="41" y="710" type="line"/>
      <point x="87" y="445"/>
      <point x="146" y="358"/>
      <point x="271" y="232" type="curve"/>
      <point x="276" y="227"/>
      <point x="286" y="226"/>
      <point x="293" y="226" type="curve"/>
      <point x="305" y="226"/>
      <point x="314" y="242"/>
      <point x="315" y="264" type="curve"/>
      <point x="195" y="382"/>
      <point x="140" y="454"/>
      <point x="100" y="689" type="curve"/>
      <point x="98" y="703"/>
      <point x="80" y="710"/>
      <point x="52" y="710" type="curve" smooth="yes"/>
    </contour>
    <contour>
      <point x="501" y="710" type="line"/>
      <point x="470" y="483"/>
      <point x="412" y="386"/>
      <point x="286" y="264" type="curve"/>
      <point x="261" y="240"/>
      <point x="286" y="226"/>
      <point x="293" y="226" type="curve"/>
      <point x="324" y="226" type="line"/>
      <point x="451" y="352"/>
      <point x="525" y="462"/>
      <point x="555" y="680" type="curve"/>
      <point x="557" y="695"/>
      <point x="540" y="710"/>
      <point x="512" y="710" type="curve"/>
    </contour>
    <contour>
      <point x="335" y="-7" type="curve"/>
      <point x="329" y="28"/>
      <point x="328" y="63"/>
      <point x="328" y="101" type="curve" smooth="yes"/>
      <point x="328" y="243" type="line" smooth="yes"/>
      <point x="328" y="264"/>
      <point x="301" y="268"/>
      <point x="272" y="268" type="curve"/>
      <point x="272" y="51" type="line" smooth="yes"/>
      <point x="272" y="28"/>
      <point x="274" y="11"/>
      <point x="286" y="-1" type="curve" smooth="yes"/>
      <point x="292" y="-7"/>
      <point x="300" y="-10"/>
      <point x="316" y="-10" type="curve" smooth="yes"/>
      <point x="323" y="-10"/>
      <point x="328" y="-9"/>
    </contour>
  </outline>
</glyph>
<glyph name="brokenbar" format="1">
  <advance width="300"/>
  <unicode hex="00A6"/>
  <outline>
    <contour>
      <point x="115" y="760" type="curve"/>
      <point x="121" y="725"/>
      <point x="122" y="690"/>
      <point x="122" y="653" type="curve" smooth="yes"/>
      <point x="122" y="395" type="line" smooth="yes"/>
      <point x="122" y="376"/>
      <point x="141" y="370"/>
      <point x="167" y="370" type="curve" smooth="yes"/>
      <point x="170" y="370"/>
      <point x="175" y="370"/>
      <point x="178" y="370" type="curve"/>
      <point x="178" y="703" type="line" smooth="yes"/>
      <point x="178" y="725"/>
      <point x="176" y="742"/>
      <point x="164" y="754" type="curve" smooth="yes"/>
      <point x="158" y="760"/>
      <point x="150" y="763"/>
      <point x="134" y="763" type="curve" smooth="yes"/>
      <point x="127" y="763"/>
      <point x="122" y="762"/>
    </contour>
    <contour>
      <point x="122" y="230" type="curve"/>
      <point x="122" y="-135" type="line"/>
      <point x="122" y="-154"/>
      <point x="141" y="-160"/>
      <point x="167" y="-160" type="curve" smooth="yes"/>
      <point x="170" y="-160"/>
      <point x="175" y="-160"/>
      <point x="178" y="-160" type="curve"/>
      <point x="178" y="194" type="line" smooth="yes"/>
      <point x="178" y="219"/>
      <point x="171" y="233"/>
      <point x="138" y="233" type="curve" smooth="yes"/>
      <point x="132" y="233"/>
      <point x="126" y="232"/>
    </contour>
  </outline>
</glyph>
<glyph name="copyright" format="1">
  <advance width="600"/>
  <unicode hex="00A9"/>
  <outline>
    <contour>
      <point x="300" y="715" type="curve" smooth="yes"/>
      <point x="124" y="715"/>
      <point x="22" y="586"/>
      <point x="22" y="360" type="curve" smooth="yes"/>
      <point x="22" y="350" type="line" smooth="yes"/>
      <point x="22" y="114"/>
      <point x="121" y="-15"/>
      <point x="300" y="-15" type="curve" smooth="yes"/>
      <point x="327" y="-15"/>
      <point x="337" y="1"/>
      <point x="337" y="16" type="curve"/>
      <point x="170" y="16"/>
      <point x="71" y="120"/>
      <point x="71" y="334" type="curve" smooth="yes"/>
      <point x="71" y="367" type="line" smooth="yes"/>
      <point x="71" y="561"/>
      <point x="154" y="667"/>
      <point x="300" y="667" type="curve" smooth="yes"/>
      <point x="380" y="667"/>
      <point x="443" y="636"/>
      <point x="492" y="595" type="curve"/>
      <point x="541" y="636"/>
      <point x="391" y="715"/>
    </contour>
    <contour>
      <point x="300" y="-15" type="curve" smooth="yes"/>
      <point x="476" y="-15"/>
      <point x="578" y="114"/>
      <point x="578" y="340" type="curve" smooth="yes"/>
      <point x="578" y="350" type="line" smooth="yes"/>
      <point x="578" y="586"/>
      <point x="479" y="715"/>
      <point x="300" y="715" type="curve" smooth="yes"/>
      <point x="273" y="715"/>
      <point x="263" y="699"/>
      <point x="263" y="684" type="curve"/>
      <point x="430" y="684"/>
      <point x="529" y="580"/>
      <point x="529" y="366" type="curve" smooth="yes"/>
      <point x="529" y="333" type="line" smooth="yes"/>
      <point x="529" y="139"/>
      <point x="446" y="33"/>
      <point x="300" y="33" type="curve" smooth="yes"/>
      <point x="220" y="33"/>
      <point x="157" y="64"/>
      <point x="108" y="105" type="curve"/>
      <point x="59" y="64"/>
      <point x="209" y="-15"/>
    </contour>
    <contour>
      <point x="307" y="520" type="curve" smooth="yes"/>
      <point x="352" y="520"/>
      <point x="373" y="500"/>
      <point x="394" y="452" type="curve"/>
      <point x="411" y="452"/>
      <point x="416" y="463"/>
      <point x="416" y="471" type="curve" smooth="yes"/>
      <point x="416" y="494"/>
      <point x="410" y="512"/>
      <point x="389" y="533" type="curve" smooth="yes"/>
      <point x="366" y="556"/>
      <point x="343" y="566"/>
      <point x="306" y="566" type="curve" smooth="yes"/>
      <point x="217" y="566"/>
      <point x="165" y="484"/>
      <point x="165" y="342" type="curve" smooth="yes"/>
      <point x="165" y="331" type="line" smooth="yes"/>
      <point x="165" y="289"/>
      <point x="189" y="169"/>
      <point x="248" y="190" type="curve"/>
      <point x="224" y="238"/>
      <point x="215" y="260"/>
      <point x="215" y="341" type="curve" smooth="yes"/>
      <point x="215" y="352" type="line" smooth="yes"/>
      <point x="215" y="466"/>
      <point x="249" y="520"/>
    </contour>
    <contour>
      <point x="308" y="134" type="curve" smooth="yes"/>
      <point x="355" y="134"/>
      <point x="387" y="151"/>
      <point x="402" y="170" type="curve"/>
      <point x="412" y="182"/>
      <point x="414" y="193"/>
      <point x="414" y="208" type="curve" smooth="yes"/>
      <point x="414" y="219"/>
      <point x="413" y="230"/>
      <point x="410" y="240" type="curve"/>
      <point x="406" y="240" type="line"/>
      <point x="383" y="199"/>
      <point x="350" y="182"/>
      <point x="306" y="182" type="curve" smooth="yes"/>
      <point x="250" y="182"/>
      <point x="202" y="230"/>
      <point x="197" y="348" type="curve"/>
      <point x="174" y="348"/>
      <point x="165" y="348"/>
      <point x="165" y="331" type="curve" smooth="yes"/>
      <point x="165" y="189"/>
      <point x="219" y="134"/>
    </contour>
    <contour>
      <point x="416" y="411" type="curve"/>
      <point x="416" y="471" type="line" smooth="yes"/>
      <point x="416" y="486"/>
      <point x="388" y="542"/>
      <point x="348" y="531" type="curve"/>
      <point x="365" y="504"/>
      <point x="365" y="494"/>
      <point x="365" y="473" type="curve" smooth="yes"/>
      <point x="365" y="445" type="line" smooth="yes"/>
      <point x="365" y="419"/>
      <point x="377" y="406"/>
      <point x="400" y="406" type="curve" smooth="yes"/>
      <point x="408" y="406"/>
      <point x="412" y="408"/>
    </contour>
  </outline>
</glyph>
<glyph name="guillemotleft" format="1">
  <advance width="601"/>
  <unicode hex="00AB"/>
  <outline>
    <contour>
      <point x="310" y="496" type="line"/>
      <point x="296" y="501"/>
      <point x="282" y="503"/>
      <point x="264" y="503" type="curve" smooth="yes"/>
      <point x="250" y="503"/>
      <point x="239" y="500"/>
      <point x="220" y="487" type="curve" smooth="yes"/>
      <point x="163" y="443"/>
      <point x="123" y="400"/>
      <point x="72" y="325" type="curve"/>
      <point x="72" y="305" type="line"/>
      <point x="72" y="285"/>
      <point x="100" y="286"/>
      <point x="111" y="283" type="curve"/>
      <point x="170" y="380"/>
      <point x="209" y="421"/>
      <point x="310" y="492" type="curve"/>
    </contour>
    <contour>
      <point x="310" y="108" type="line"/>
      <point x="211" y="178"/>
      <point x="164" y="226"/>
      <point x="114" y="315" type="curve"/>
      <point x="94" y="314"/>
      <point x="72" y="320"/>
      <point x="72" y="309" type="curve"/>
      <point x="72" y="301" type="line" smooth="yes"/>
      <point x="72" y="276"/>
      <point x="78" y="265"/>
      <point x="101" y="232" type="curve" smooth="yes"/>
      <point x="150" y="166"/>
      <point x="177" y="143"/>
      <point x="208" y="121" type="curve"/>
      <point x="233" y="102"/>
      <point x="248" y="97"/>
      <point x="266" y="97" type="curve" smooth="yes"/>
      <point x="286" y="97"/>
      <point x="299" y="99"/>
      <point x="310" y="104" type="curve"/>
    </contour>
    <contour>
      <point x="550" y="496" type="line"/>
      <point x="536" y="501"/>
      <point x="522" y="503"/>
      <point x="504" y="503" type="curve" smooth="yes"/>
      <point x="489" y="503"/>
      <point x="478" y="500"/>
      <point x="460" y="487" type="curve" smooth="yes"/>
      <point x="402" y="443"/>
      <point x="362" y="400"/>
      <point x="312" y="325" type="curve"/>
      <point x="312" y="305" type="line"/>
      <point x="312" y="285"/>
      <point x="340" y="286"/>
      <point x="351" y="283" type="curve"/>
      <point x="409" y="380"/>
      <point x="448" y="421"/>
      <point x="550" y="492" type="curve"/>
    </contour>
    <contour>
      <point x="550" y="108" type="line"/>
      <point x="451" y="178"/>
      <point x="404" y="226"/>
      <point x="354" y="315" type="curve"/>
      <point x="333" y="314"/>
      <point x="312" y="320"/>
      <point x="312" y="309" type="curve"/>
      <point x="312" y="301" type="line" smooth="yes"/>
      <point x="312" y="276"/>
      <point x="318" y="265"/>
      <point x="341" y="232" type="curve" smooth="yes"/>
      <point x="390" y="166"/>
      <point x="416" y="143"/>
      <point x="447" y="121" type="curve"/>
      <point x="472" y="102"/>
      <point x="487" y="97"/>
      <point x="506" y="97" type="curve" smooth="yes"/>
      <point x="526" y="97"/>
      <point x="538" y="99"/>
      <point x="550" y="104" type="curve"/>
    </contour>
  </outline>
</glyph>
<glyph name="logicalnot" format="1">
  <advance width="600"/>
  <unicode hex="00AC"/>
  <outline>
    <contour>
      <point x="69" y="412" type="line"/>
      <point x="69" y="409"/>
      <point x="69" y="405"/>
      <point x="69" y="402" type="curve" smooth="yes"/>
      <point x="69" y="384"/>
      <point x="72" y="372"/>
      <point x="81" y="364" type="curve" smooth="yes"/>
      <point x="84" y="360"/>
      <point x="89" y="358"/>
      <point x="96" y="358" type="curve"/>
      <point x="525" y="358" type="line"/>
      <point x="525" y="363" type="line"/>
      <point x="525" y="392"/>
      <point x="519" y="412"/>
      <point x="499" y="412" type="curve"/>
    </contour>
    <contour>
      <point x="525" y="137" type="curve"/>
      <point x="525" y="363" type="line" smooth="yes"/>
      <point x="525" y="381"/>
      <point x="502" y="383"/>
      <point x="475" y="383" type="curve"/>
      <point x="469" y="383" type="line"/>
      <point x="469" y="162" type="line" smooth="yes"/>
      <point x="469" y="142"/>
      <point x="488" y="137"/>
      <point x="512" y="137" type="curve" smooth="yes"/>
      <point x="516" y="137"/>
      <point x="521" y="137"/>
    </contour>
  </outline>
</glyph>
<glyph name="registered" format="1">
  <advance width="600"/>
  <unicode hex="00AE"/>
  <outline>
    <contour>
      <point x="248" y="328" type="curve"/>
      <point x="243" y="354"/>
      <point x="241" y="373"/>
      <point x="241" y="403" type="curve"/>
      <point x="241" y="538" type="line"/>
      <point x="241" y="589"/>
      <point x="229" y="609"/>
      <point x="197" y="609" type="curve"/>
      <point x="197" y="384" type="line" smooth="yes"/>
      <point x="197" y="347"/>
      <point x="207" y="325"/>
      <point x="230" y="325" type="curve" smooth="yes"/>
      <point x="236" y="325"/>
      <point x="241" y="326"/>
    </contour>
    <contour>
      <point x="172" y="627" type="curve"/>
      <point x="170" y="622"/>
      <point x="169" y="616"/>
      <point x="169" y="607" type="curve"/>
      <point x="169" y="595"/>
      <point x="173" y="584"/>
      <point x="183" y="584" type="curve"/>
      <point x="187" y="584"/>
      <point x="191" y="585"/>
      <point x="197" y="586" type="curve" smooth="yes"/>
      <point x="225" y="591"/>
      <point x="265" y="597"/>
      <point x="293" y="597" type="curve" smooth="yes"/>
      <point x="342" y="597"/>
      <point x="365" y="589"/>
      <point x="387" y="563" type="curve"/>
      <point x="415" y="602"/>
      <point x="358" y="640"/>
      <point x="304" y="640" type="curve" smooth="yes"/>
      <point x="263" y="640"/>
      <point x="226" y="636"/>
    </contour>
    <contour>
      <point x="420" y="547" type="curve" smooth="yes"/>
      <point x="420" y="556" type="line" smooth="yes"/>
      <point x="420" y="604"/>
      <point x="376" y="640"/>
      <point x="304" y="640" type="curve"/>
      <point x="283" y="640"/>
      <point x="275" y="629"/>
      <point x="275" y="609" type="curve"/>
      <point x="355" y="609"/>
      <point x="375" y="599"/>
      <point x="375" y="548" type="curve" smooth="yes"/>
      <point x="375" y="541" type="line" smooth="yes"/>
      <point x="375" y="497"/>
      <point x="321" y="465"/>
      <point x="237" y="465" type="curve" smooth="yes"/>
      <point x="219" y="465"/>
      <point x="215" y="465"/>
      <point x="211" y="465" type="curve"/>
      <point x="208" y="463"/>
      <point x="208" y="462"/>
      <point x="208" y="459" type="curve" smooth="yes"/>
      <point x="208" y="450"/>
      <point x="221" y="426"/>
      <point x="235" y="426" type="curve" smooth="yes"/>
      <point x="237" y="426" type="line" smooth="yes"/>
      <point x="333" y="426"/>
      <point x="420" y="469"/>
    </contour>
    <contour>
      <point x="346" y="471" type="line"/>
      <point x="328" y="466"/>
      <point x="307" y="454"/>
      <point x="313" y="439" type="curve" smooth="yes"/>
      <point x="338" y="371" type="line" smooth="yes"/>
      <point x="350" y="339"/>
      <point x="369" y="325"/>
      <point x="388" y="325" type="curve" smooth="yes"/>
      <point x="391" y="325" type="line" smooth="yes"/>
      <point x="414" y="325"/>
      <point x="421" y="337"/>
      <point x="421" y="355" type="curve"/>
      <point x="421" y="364"/>
      <point x="420" y="371"/>
      <point x="419" y="375" type="curve"/>
      <point x="416" y="375" type="line"/>
      <point x="410" y="371"/>
      <point x="404" y="369"/>
      <point x="396" y="369" type="curve"/>
      <point x="386" y="369"/>
      <point x="382" y="375"/>
      <point x="370" y="406" type="curve" smooth="yes"/>
    </contour>
    <contour>
      <point x="300" y="760" type="curve" smooth="yes"/>
      <point x="137" y="760"/>
      <point x="43" y="660"/>
      <point x="43" y="484" type="curve" smooth="yes"/>
      <point x="43" y="475" type="line" smooth="yes"/>
      <point x="43" y="299"/>
      <point x="134" y="200"/>
      <point x="300" y="200" type="curve" smooth="yes"/>
      <point x="327" y="200"/>
      <point x="336" y="216"/>
      <point x="336" y="231" type="curve"/>
      <point x="183" y="231"/>
      <point x="86" y="307"/>
      <point x="86" y="463" type="curve" smooth="yes"/>
      <point x="86" y="495" type="line" smooth="yes"/>
      <point x="86" y="636"/>
      <point x="167" y="715"/>
      <point x="300" y="715" type="curve" smooth="yes"/>
      <point x="376" y="715"/>
      <point x="436" y="688"/>
      <point x="482" y="650" type="curve"/>
      <point x="509" y="688"/>
      <point x="386" y="760"/>
    </contour>
    <contour>
      <point x="300" y="200" type="curve" smooth="yes"/>
      <point x="463" y="200"/>
      <point x="557" y="299"/>
      <point x="557" y="472" type="curve" smooth="yes"/>
      <point x="557" y="480" type="line" smooth="yes"/>
      <point x="557" y="662"/>
      <point x="466" y="760"/>
      <point x="300" y="760" type="curve" smooth="yes"/>
      <point x="273" y="760"/>
      <point x="264" y="744"/>
      <point x="264" y="729" type="curve"/>
      <point x="417" y="729"/>
      <point x="514" y="653"/>
      <point x="514" y="494" type="curve" smooth="yes"/>
      <point x="514" y="462" type="line" smooth="yes"/>
      <point x="514" y="323"/>
      <point x="433" y="245"/>
      <point x="300" y="245" type="curve" smooth="yes"/>
      <point x="224" y="245"/>
      <point x="164" y="272"/>
      <point x="118" y="310" type="curve"/>
      <point x="91" y="272"/>
      <point x="214" y="200"/>
    </contour>
  </outline>
</glyph>
<glyph name="degree" format="1">
  <advance width="600"/>
  <unicode hex="00B0"/>
  <outline>
    <contour>
      <point x="316" y="414" type="curve"/>
      <point x="239" y="414"/>
      <point x="194" y="460"/>
      <point x="194" y="534" type="curve" smooth="yes"/>
      <point x="194" y="540" type="line" smooth="yes"/>
      <point x="194" y="615"/>
      <point x="233" y="660"/>
      <point x="307" y="660" type="curve" smooth="yes"/>
      <point x="340" y="660"/>
      <point x="362" y="654"/>
      <point x="391" y="635" type="curve"/>
      <point x="405" y="672"/>
      <point x="355" y="710"/>
      <point x="302" y="710" type="curve"/>
      <point x="206" y="710"/>
      <point x="139" y="640"/>
      <point x="139" y="542" type="curve" smooth="yes"/>
      <point x="139" y="535" type="line" smooth="yes"/>
      <point x="139" y="439"/>
      <point x="205" y="375"/>
      <point x="296" y="375" type="curve"/>
      <point x="306" y="375"/>
      <point x="316" y="395"/>
    </contour>
    <contour>
      <point x="282" y="670" type="curve"/>
      <point x="359" y="670"/>
      <point x="404" y="624"/>
      <point x="404" y="551" type="curve" smooth="yes"/>
      <point x="404" y="545" type="line" smooth="yes"/>
      <point x="404" y="470"/>
      <point x="365" y="425"/>
      <point x="291" y="425" type="curve" smooth="yes"/>
      <point x="258" y="425"/>
      <point x="236" y="431"/>
      <point x="207" y="450" type="curve"/>
      <point x="193" y="413"/>
      <point x="243" y="375"/>
      <point x="296" y="375" type="curve"/>
      <point x="392" y="375"/>
      <point x="459" y="445"/>
      <point x="459" y="543" type="curve" smooth="yes"/>
      <point x="459" y="549" type="line" smooth="yes"/>
      <point x="459" y="646"/>
      <point x="393" y="710"/>
      <point x="302" y="710" type="curve"/>
      <point x="292" y="710"/>
      <point x="282" y="690"/>
    </contour>
  </outline>
</glyph>
<glyph name="twosuperior" format="1">
  <advance width="600"/>
  <unicode hex="00B2"/>
  <outline>
    <contour>
      <point x="304" y="657" type="curve" smooth="yes"/>
      <point x="371" y="657"/>
      <point x="387" y="638"/>
      <point x="388" y="599" type="curve"/>
      <point x="421" y="607"/>
      <point x="430" y="615"/>
      <point x="430" y="626" type="curve" smooth="yes"/>
      <point x="430" y="664"/>
      <point x="402" y="710"/>
      <point x="306" y="710" type="curve" smooth="yes"/>
      <point x="248" y="710"/>
      <point x="208" y="694"/>
      <point x="190" y="676" type="curve" smooth="yes"/>
      <point x="182" y="668"/>
      <point x="179" y="655"/>
      <point x="179" y="639" type="curve" smooth="yes"/>
      <point x="179" y="631"/>
      <point x="180" y="624"/>
      <point x="182" y="617" type="curve"/>
      <point x="184" y="617" type="line"/>
      <point x="222" y="646"/>
      <point x="260" y="657"/>
    </contour>
    <contour>
      <point x="363" y="661" type="curve"/>
      <point x="372" y="648"/>
      <point x="376" y="635"/>
      <point x="376" y="618" type="curve" smooth="yes"/>
      <point x="376" y="594"/>
      <point x="367" y="580"/>
      <point x="296" y="551" type="curve" smooth="yes"/>
      <point x="185" y="506"/>
      <point x="167" y="469"/>
      <point x="167" y="414" type="curve" smooth="yes"/>
      <point x="167" y="394"/>
      <point x="173" y="396"/>
      <point x="215" y="396" type="curve"/>
      <point x="215" y="456"/>
      <point x="222" y="468"/>
      <point x="316" y="509" type="curve" smooth="yes"/>
      <point x="403" y="545"/>
      <point x="430" y="570"/>
      <point x="430" y="624" type="curve" smooth="yes"/>
      <point x="430" y="626" type="line" smooth="yes"/>
      <point x="430" y="649"/>
      <point x="411" y="662"/>
    </contour>
    <contour>
      <point x="431" y="368" type="line"/>
      <point x="433" y="374"/>
      <point x="434" y="380"/>
      <point x="434" y="387" type="curve" smooth="yes"/>
      <point x="434" y="413"/>
      <point x="419" y="421"/>
      <point x="372" y="421" type="curve" smooth="yes"/>
      <point x="338" y="421" type="line" smooth="yes"/>
      <point x="285" y="421"/>
      <point x="225" y="419"/>
      <point x="167" y="414" type="curve"/>
      <point x="167" y="413"/>
      <point x="167" y="412"/>
      <point x="167" y="411" type="curve" smooth="yes"/>
      <point x="167" y="388"/>
      <point x="183" y="368"/>
      <point x="204" y="368" type="curve" smooth="yes"/>
    </contour>
  </outline>
</glyph>
<glyph name="acute" format="1">
  <advance width="600"/>
  <unicode hex="00B4"/>
  <outline>
    <contour>
      <point x="290" y="639" type="curve" smooth="yes"/>
      <point x="302" y="639"/>
      <point x="317" y="644"/>
      <point x="332" y="653" type="curve" smooth="yes"/>
      <point x="381" y="681"/>
      <point x="422" y="727"/>
      <point x="437" y="773" type="curve"/>
      <point x="442" y="785"/>
      <point x="439" y="798"/>
      <point x="426" y="804" type="curve" smooth="yes"/>
      <point x="414" y="810"/>
      <point x="404" y="811"/>
      <point x="388" y="811" type="curve"/>
      <point x="372" y="751"/>
      <point x="328" y="700"/>
      <point x="263" y="649" type="curve"/>
      <point x="271" y="641"/>
      <point x="281" y="639"/>
    </contour>
  </outline>
</glyph>
<glyph name="uni00B5" format="1">
  <advance width="600"/>
  <unicode hex="00B5"/>
  <outline>
    <contour>
      <point x="87" y="527" type="curve"/>
      <point x="97" y="483"/>
      <point x="99" y="449"/>
      <point x="99" y="401" type="curve" smooth="yes"/>
      <point x="99" y="131" type="line"/>
      <point x="99" y="97"/>
      <point x="115" y="78"/>
      <point x="143" y="78" type="curve"/>
      <point x="153" y="235"/>
      <point x="157" y="289"/>
      <point x="157" y="392" type="curve" smooth="yes"/>
      <point x="157" y="397" type="line" smooth="yes"/>
      <point x="157" y="502"/>
      <point x="131" y="529"/>
      <point x="102" y="529" type="curve" smooth="yes"/>
      <point x="96" y="529"/>
      <point x="91" y="528"/>
    </contour>
    <contour>
      <point x="246" y="-11" type="curve" smooth="yes"/>
      <point x="324" y="-11"/>
      <point x="402" y="74"/>
      <point x="448" y="191" type="curve" smooth="yes"/>
      <point x="460" y="225"/>
      <point x="466" y="259"/>
      <point x="451" y="300" type="curve"/>
      <point x="385" y="114"/>
      <point x="311" y="45"/>
      <point x="239" y="45" type="curve" smooth="yes"/>
      <point x="185" y="45"/>
      <point x="151" y="84"/>
      <point x="143" y="160" type="curve"/>
      <point x="104" y="158"/>
      <point x="99" y="144"/>
      <point x="99" y="131" type="curve" smooth="yes"/>
      <point x="99" y="55"/>
      <point x="154" y="-11"/>
    </contour>
    <contour>
      <point x="493" y="530" type="line"/>
      <point x="488" y="531"/>
      <point x="483" y="532"/>
      <point x="476" y="532" type="curve" smooth="yes"/>
      <point x="456" y="532"/>
      <point x="437" y="527"/>
      <point x="437" y="507" type="curve" smooth="yes"/>
      <point x="437" y="82" type="line" smooth="yes"/>
      <point x="437" y="38"/>
      <point x="475" y="9"/>
      <point x="514" y="25" type="curve"/>
      <point x="497" y="43"/>
      <point x="493" y="54"/>
      <point x="493" y="91" type="curve"/>
    </contour>
    <contour>
      <point x="560" y="53" type="line"/>
      <point x="556" y="53" type="line"/>
      <point x="547" y="46"/>
      <point x="536" y="44"/>
      <point x="524" y="44" type="curve" smooth="yes"/>
      <point x="501" y="44"/>
      <point x="481" y="57"/>
      <point x="480" y="106" type="curve"/>
      <point x="447" y="108"/>
      <point x="437" y="102"/>
      <point x="437" y="82" type="curve" smooth="yes"/>
      <point x="437" y="29"/>
      <point x="467" y="-10"/>
      <point x="515" y="-10" type="curve" smooth="yes"/>
      <point x="518" y="-10" type="line" smooth="yes"/>
      <point x="545" y="-10"/>
      <point x="560" y="13"/>
      <point x="560" y="46" type="curve"/>
    </contour>
    <contour>
      <point x="122" y="157" type="line"/>
      <point x="100" y="39"/>
      <point x="93" y="-36"/>
      <point x="93" y="-135" type="curve" smooth="yes"/>
      <point x="93" y="-184"/>
      <point x="114" y="-204"/>
      <point x="136" y="-204" type="curve" smooth="yes"/>
      <point x="144" y="-204"/>
      <point x="148" y="-202"/>
      <point x="154" y="-200" type="curve"/>
      <point x="154" y="-180"/>
      <point x="154" y="-171"/>
      <point x="154" y="-142" type="curve" smooth="yes"/>
      <point x="154" y="-67"/>
      <point x="138" y="157"/>
      <point x="128" y="157" type="curve" smooth="yes"/>
    </contour>
  </outline>
</glyph>
<glyph name="paragraph" format="1">
  <advance width="600"/>
  <unicode hex="00B6"/>
  <outline>
    <contour>
      <point x="358" y="-157" type="curve"/>
      <point x="358" y="596" type="line"/>
      <point x="358" y="650"/>
      <point x="339" y="665"/>
      <point x="316" y="665" type="curve" smooth="yes"/>
      <point x="312" y="665"/>
      <point x="308" y="665"/>
      <point x="305" y="664" type="curve"/>
      <point x="305" y="-99" type="line" smooth="yes"/>
      <point x="305" y="-136"/>
      <point x="317" y="-160"/>
      <point x="345" y="-160" type="curve" smooth="yes"/>
      <point x="350" y="-160"/>
      <point x="354" y="-159"/>
    </contour>
    <contour>
      <point x="518" y="-157" type="curve"/>
      <point x="512" y="-122"/>
      <point x="511" y="-87"/>
      <point x="511" y="-49" type="curve" smooth="yes"/>
      <point x="511" y="633" type="line" smooth="yes"/>
      <point x="511" y="652"/>
      <point x="492" y="658"/>
      <point x="467" y="658" type="curve" smooth="yes"/>
      <point x="464" y="658"/>
      <point x="460" y="658"/>
      <point x="457" y="658" type="curve"/>
      <point x="457" y="-98" type="line" smooth="yes"/>
      <point x="457" y="-133"/>
      <point x="470" y="-160"/>
      <point x="499" y="-160" type="curve" smooth="yes"/>
      <point x="506" y="-160"/>
      <point x="511" y="-159"/>
    </contour>
    <contour>
      <point x="355" y="710" type="line" smooth="yes"/>
      <point x="187" y="710"/>
      <point x="63" y="601"/>
      <point x="63" y="408" type="curve" smooth="yes"/>
      <point x="63" y="393" type="line" smooth="yes"/>
      <point x="63" y="254"/>
      <point x="146" y="167"/>
      <point x="304" y="167" type="curve" smooth="yes"/>
      <point x="319" y="167" type="line" smooth="yes"/>
      <point x="338" y="167"/>
      <point x="348" y="189"/>
      <point x="349" y="215" type="curve"/>
      <point x="331" y="215" type="line" smooth="yes"/>
      <point x="189" y="215"/>
      <point x="124" y="289"/>
      <point x="124" y="393" type="curve" smooth="yes"/>
      <point x="124" y="409" type="line" smooth="yes"/>
      <point x="124" y="552"/>
      <point x="205" y="655"/>
      <point x="354" y="655" type="curve" smooth="yes"/>
      <point x="442" y="655"/>
      <point x="495" y="643"/>
      <point x="548" y="595" type="curve"/>
      <point x="552" y="595" type="line"/>
      <point x="555" y="606"/>
      <point x="556" y="614"/>
      <point x="556" y="623" type="curve" smooth="yes"/>
      <point x="556" y="639"/>
      <point x="555" y="648"/>
      <point x="545" y="658" type="curve" smooth="yes"/>
      <point x="515" y="688"/>
      <point x="455" y="710"/>
      <point x="361" y="710" type="curve" smooth="yes"/>
    </contour>
  </outline>
</glyph>
<glyph name="onequarter" format="1">
  <advance width="600"/>
  <unicode hex="00BC"/>
  <outline>
    <contour>
      <point x="201" y="393" type="curve"/>
      <point x="201" y="491"/>
      <point x="201" y="589"/>
      <point x="201" y="686" type="curve" smooth="yes"/>
      <point x="201" y="705"/>
      <point x="182" y="710"/>
      <point x="158" y="710" type="curve" smooth="yes"/>
      <point x="149" y="710" type="line"/>
      <point x="149" y="630"/>
      <point x="149" y="548"/>
      <point x="149" y="467" type="curve" smooth="yes"/>
      <point x="149" y="418"/>
      <point x="163" y="393"/>
    </contour>
    <contour>
      <point x="38" y="419" type="line"/>
      <point x="36" y="415"/>
      <point x="35" y="410"/>
      <point x="35" y="402" type="curve" smooth="yes"/>
      <point x="35" y="381"/>
      <point x="43" y="366"/>
      <point x="66" y="366" type="curve" smooth="yes"/>
      <point x="294" y="366" type="line"/>
      <point x="294" y="369"/>
      <point x="294" y="373"/>
      <point x="294" y="376" type="curve" smooth="yes"/>
      <point x="294" y="400"/>
      <point x="252" y="419"/>
      <point x="193" y="419" type="curve" smooth="yes"/>
    </contour>
    <contour>
      <point x="53" y="540" type="curve" smooth="yes"/>
      <point x="80" y="540"/>
      <point x="165" y="640"/>
      <point x="165" y="685" type="curve" smooth="yes"/>
      <point x="165" y="699"/>
      <point x="162" y="710"/>
      <point x="151" y="710" type="curve"/>
      <point x="136" y="710" type="line"/>
      <point x="109" y="656"/>
      <point x="75" y="617"/>
      <point x="33" y="588" type="curve"/>
      <point x="33" y="582" type="line" smooth="yes"/>
      <point x="33" y="549"/>
      <point x="45" y="540"/>
    </contour>
    <contour>
      <point x="305" y="115" type="curve"/>
      <point x="328" y="204"/>
      <point x="365" y="269"/>
      <point x="444" y="331" type="curve"/>
      <point x="444" y="334" type="line"/>
      <point x="431" y="340"/>
      <point x="425" y="342"/>
      <point x="404" y="342" type="curve" smooth="yes"/>
      <point x="382" y="342"/>
      <point x="372" y="335"/>
      <point x="360" y="323" type="curve" smooth="yes"/>
      <point x="315" y="278"/>
      <point x="265" y="185"/>
      <point x="265" y="128" type="curve" smooth="yes"/>
      <point x="265" y="121"/>
      <point x="279" y="115"/>
    </contour>
    <contour>
      <point x="559" y="87" type="line"/>
      <point x="561" y="93"/>
      <point x="562" y="100"/>
      <point x="562" y="107" type="curve" smooth="yes"/>
      <point x="562" y="123"/>
      <point x="555" y="137"/>
      <point x="529" y="137" type="curve" smooth="yes"/>
      <point x="437" y="137" type="line" smooth="yes"/>
      <point x="368" y="137"/>
      <point x="320" y="134"/>
      <point x="265" y="128" type="curve"/>
      <point x="265" y="124" type="line" smooth="yes"/>
      <point x="265" y="110"/>
      <point x="279" y="87"/>
      <point x="297" y="87" type="curve" smooth="yes"/>
    </contour>
    <contour>
      <point x="503" y="-3" type="curve"/>
      <point x="498" y="16"/>
      <point x="496" y="32"/>
      <point x="496" y="52" type="curve" smooth="yes"/>
      <point x="496" y="206" type="line" smooth="yes"/>
      <point x="496" y="224"/>
      <point x="478" y="237"/>
      <point x="462" y="237" type="curve" smooth="yes"/>
      <point x="460" y="237" type="line"/>
      <point x="447" y="190"/>
      <point x="443" y="160"/>
      <point x="443" y="131" type="curve" smooth="yes"/>
      <point x="443" y="31" type="line" smooth="yes"/>
      <point x="443" y="4"/>
      <point x="462" y="-6"/>
      <point x="487" y="-6" type="curve" smooth="yes"/>
      <point x="492" y="-6"/>
      <point x="498" y="-5"/>
    </contour>
    <contour>
      <point x="368" y="417" type="curve"/>
      <point x="382" y="409"/>
      <point x="392" y="406"/>
      <point x="407" y="406" type="curve" smooth="yes"/>
      <point x="419" y="406"/>
      <point x="426" y="409"/>
      <point x="433" y="416" type="curve" smooth="yes"/>
      <point x="499" y="481"/>
      <point x="551" y="582"/>
      <point x="551" y="674" type="curve" smooth="yes"/>
      <point x="551" y="693"/>
      <point x="535" y="706"/>
      <point x="508" y="706" type="curve" smooth="yes"/>
      <point x="495" y="706"/>
      <point x="486" y="704"/>
      <point x="474" y="699" type="curve"/>
      <point x="467" y="585"/>
      <point x="442" y="511"/>
    </contour>
    <contour>
      <point x="232" y="282" type="curve"/>
      <point x="218" y="290"/>
      <point x="208" y="294"/>
      <point x="193" y="294" type="curve" smooth="yes"/>
      <point x="181" y="294"/>
      <point x="174" y="290"/>
      <point x="167" y="283" type="curve" smooth="yes"/>
      <point x="102" y="218"/>
      <point x="49" y="117"/>
      <point x="49" y="25" type="curve" smooth="yes"/>
      <point x="49" y="6"/>
      <point x="65" y="-7"/>
      <point x="92" y="-7" type="curve" smooth="yes"/>
      <point x="105" y="-7"/>
      <point x="114" y="-5"/>
      <point x="126" y="0" type="curve"/>
      <point x="134" y="114"/>
      <point x="158" y="188"/>
    </contour>
  </outline>
</glyph>
<glyph name="onehalf" format="1">
  <advance width="600"/>
  <unicode hex="00BD"/>
  <outline>
    <contour>
      <point x="201" y="393" type="curve"/>
      <point x="201" y="491"/>
      <point x="201" y="589"/>
      <point x="201" y="686" type="curve" smooth="yes"/>
      <point x="201" y="705"/>
      <point x="182" y="710"/>
      <point x="158" y="710" type="curve" smooth="yes"/>
      <point x="149" y="710" type="line"/>
      <point x="149" y="630"/>
      <point x="149" y="548"/>
      <point x="149" y="467" type="curve" smooth="yes"/>
      <point x="149" y="418"/>
      <point x="163" y="393"/>
    </contour>
    <contour>
      <point x="38" y="419" type="line"/>
      <point x="36" y="415"/>
      <point x="35" y="410"/>
      <point x="35" y="403" type="curve" smooth="yes"/>
      <point x="35" y="381"/>
      <point x="42" y="366"/>
      <point x="66" y="366" type="curve" smooth="yes"/>
      <point x="294" y="366" type="line"/>
      <point x="294" y="369"/>
      <point x="294" y="373"/>
      <point x="294" y="376" type="curve" smooth="yes"/>
      <point x="294" y="400"/>
      <point x="252" y="419"/>
      <point x="193" y="419" type="curve" smooth="yes"/>
    </contour>
    <contour>
      <point x="53" y="540" type="curve" smooth="yes"/>
      <point x="80" y="540"/>
      <point x="165" y="640"/>
      <point x="165" y="685" type="curve" smooth="yes"/>
      <point x="165" y="699"/>
      <point x="162" y="710"/>
      <point x="151" y="710" type="curve"/>
      <point x="136" y="710" type="line"/>
      <point x="109" y="656"/>
      <point x="75" y="617"/>
      <point x="33" y="588" type="curve"/>
      <point x="33" y="582" type="line" smooth="yes"/>
      <point x="33" y="549"/>
      <point x="45" y="540"/>
    </contour>
    <contour>
      <point x="431" y="289" type="curve" smooth="yes"/>
      <point x="498" y="289"/>
      <point x="514" y="270"/>
      <point x="516" y="231" type="curve"/>
      <point x="548" y="239"/>
      <point x="557" y="247"/>
      <point x="557" y="258" type="curve" smooth="yes"/>
      <point x="557" y="296"/>
      <point x="529" y="342"/>
      <point x="433" y="342" type="curve" smooth="yes"/>
      <point x="376" y="342"/>
      <point x="336" y="326"/>
      <point x="318" y="308" type="curve" smooth="yes"/>
      <point x="310" y="300"/>
      <point x="307" y="287"/>
      <point x="307" y="271" type="curve" smooth="yes"/>
      <point x="307" y="263"/>
      <point x="308" y="256"/>
      <point x="310" y="249" type="curve"/>
      <point x="312" y="249" type="line"/>
      <point x="350" y="278"/>
      <point x="387" y="289"/>
    </contour>
    <contour>
      <point x="490" y="293" type="curve"/>
      <point x="500" y="280"/>
      <point x="504" y="267"/>
      <point x="504" y="250" type="curve" smooth="yes"/>
      <point x="504" y="226"/>
      <point x="495" y="212"/>
      <point x="423" y="183" type="curve" smooth="yes"/>
      <point x="313" y="138"/>
      <point x="295" y="101"/>
      <point x="295" y="46" type="curve" smooth="yes"/>
      <point x="295" y="26"/>
      <point x="301" y="28"/>
      <point x="342" y="28" type="curve"/>
      <point x="342" y="88"/>
      <point x="350" y="100"/>
      <point x="443" y="141" type="curve" smooth="yes"/>
      <point x="531" y="177"/>
      <point x="557" y="202"/>
      <point x="557" y="256" type="curve" smooth="yes"/>
      <point x="557" y="258" type="line" smooth="yes"/>
      <point x="557" y="281"/>
      <point x="539" y="294"/>
    </contour>
    <contour>
      <point x="558" y="0" type="line"/>
      <point x="560" y="6"/>
      <point x="561" y="12"/>
      <point x="561" y="19" type="curve" smooth="yes"/>
      <point x="561" y="45"/>
      <point x="546" y="53"/>
      <point x="499" y="53" type="curve" smooth="yes"/>
      <point x="465" y="53" type="line" smooth="yes"/>
      <point x="413" y="53"/>
      <point x="353" y="51"/>
      <point x="295" y="46" type="curve"/>
      <point x="295" y="45"/>
      <point x="295" y="44"/>
      <point x="295" y="43" type="curve" smooth="yes"/>
      <point x="295" y="20"/>
      <point x="311" y="0"/>
      <point x="332" y="0" type="curve" smooth="yes"/>
    </contour>
    <contour>
      <point x="368" y="417" type="curve"/>
      <point x="382" y="409"/>
      <point x="392" y="406"/>
      <point x="407" y="406" type="curve" smooth="yes"/>
      <point x="419" y="406"/>
      <point x="426" y="409"/>
      <point x="433" y="416" type="curve" smooth="yes"/>
      <point x="499" y="481"/>
      <point x="551" y="582"/>
      <point x="551" y="674" type="curve" smooth="yes"/>
      <point x="551" y="693"/>
      <point x="535" y="706"/>
      <point x="508" y="706" type="curve" smooth="yes"/>
      <point x="495" y="706"/>
      <point x="486" y="704"/>
      <point x="474" y="699" type="curve"/>
      <point x="467" y="585"/>
      <point x="442" y="511"/>
    </contour>
    <contour>
      <point x="232" y="282" type="curve"/>
      <point x="218" y="290"/>
      <point x="208" y="294"/>
      <point x="193" y="294" type="curve" smooth="yes"/>
      <point x="181" y="294"/>
      <point x="174" y="290"/>
      <point x="167" y="283" type="curve" smooth="yes"/>
      <point x="102" y="218"/>
      <point x="49" y="117"/>
      <point x="49" y="25" type="curve" smooth="yes"/>
      <point x="49" y="6"/>
      <point x="65" y="-7"/>
      <point x="92" y="-7" type="curve" smooth="yes"/>
      <point x="105" y="-7"/>
      <point x="114" y="-5"/>
      <point x="126" y="0" type="curve"/>
      <point x="134" y="114"/>
      <point x="158" y="188"/>
    </contour>
  </outline>
</glyph>
